<svg width="60" height="60" viewBox="0 0 60 60" fill="none" xmlns="http://www.w3.org/2000/svg">
<path d="M43.3085 29.4099C43.1819 29.7437 42.921 30.3652 42.4222 31.2247C42.2956 31.4434 42.1536 31.6774 41.9963 31.9268C40.8759 33.6879 38.9153 36.1741 35.5735 39.0786L31 43.0574L26.4227 39.0786C23.3725 36.4274 21.4771 34.1253 20.3184 32.4064C20.1495 32.157 19.9999 31.923 19.8618 31.7043C19.1788 30.5954 18.8374 29.8051 18.6916 29.4099C17.3448 25.8033 19.1827 21.7861 22.7893 20.4394C25.8664 19.2961 29.2351 20.4586 30.9962 23.06C32.7573 20.4586 36.1298 19.2961 39.2031 20.4394C42.8174 21.7823 44.6552 25.7994 43.3085 29.4099Z" fill="#FF6464"/>
<path d="M30 7C30 6.44772 30.4477 6 31 6V6C31.5523 6 32 6.44772 32 7V13C32 13.5523 31.5523 14 31 14V14C30.4477 14 30 13.5523 30 13V7Z" fill="#FF6464"/>
<path d="M32 54C32 54.5523 31.5523 55 31 55V55C30.4477 55 30 54.5523 30 54L30 48C30 47.4477 30.4477 47 31 47V47C31.5523 47 32 47.4477 32 48L32 54Z" fill="#FF6464"/>
<path d="M46.9099 13.1759C47.3004 12.7853 47.9336 12.7853 48.3241 13.1759V13.1759C48.7146 13.5664 48.7146 14.1995 48.3241 14.5901L44.0815 18.8327C43.6909 19.2232 43.0578 19.2232 42.6673 18.8327V18.8327C42.2767 18.4422 42.2767 17.809 42.6673 17.4185L46.9099 13.1759Z" fill="#FF6464"/>
<path d="M15.0901 47.8241C14.6996 48.2147 14.0664 48.2147 13.6759 47.8241V47.8241C13.2854 47.4336 13.2854 46.8005 13.6759 46.4099L17.9185 42.1673C18.3091 41.7768 18.9422 41.7768 19.3327 42.1673V42.1673C19.7233 42.5578 19.7233 43.191 19.3327 43.5815L15.0901 47.8241Z" fill="#FF6464"/>
<path d="M54.5 29.5C55.0523 29.5 55.5 29.9477 55.5 30.5V30.5C55.5 31.0523 55.0523 31.5 54.5 31.5L48.5 31.5C47.9477 31.5 47.5 31.0523 47.5 30.5V30.5C47.5 29.9477 47.9477 29.5 48.5 29.5L54.5 29.5Z" fill="#FF6464"/>
<path d="M7.5 31.5C6.94772 31.5 6.5 31.0523 6.5 30.5V30.5C6.5 29.9477 6.94772 29.5 7.5 29.5L13.5 29.5C14.0523 29.5 14.5 29.9477 14.5 30.5V30.5C14.5 31.0523 14.0523 31.5 13.5 31.5L7.5 31.5Z" fill="#FF6464"/>
<path d="M48.3241 46.41C48.7147 46.8005 48.7147 47.4336 48.3241 47.8242V47.8242C47.9336 48.2147 47.3005 48.2147 46.9099 47.8242L42.6673 43.5815C42.2768 43.191 42.2768 42.5578 42.6673 42.1673V42.1673C43.0578 41.7768 43.691 41.7768 44.0815 42.1673L48.3241 46.41Z" fill="#FF6464"/>
<path d="M13.6759 14.5902C13.2854 14.1996 13.2854 13.5665 13.6759 13.1759V13.1759C14.0664 12.7854 14.6996 12.7854 15.0901 13.176L19.3328 17.4186C19.7233 17.8091 19.7233 18.4423 19.3328 18.8328V18.8328C18.9422 19.2233 18.3091 19.2233 17.9186 18.8328L13.6759 14.5902Z" fill="#FF6464"/>
<path d="M31 33.3984C31.6484 33.3984 31.9922 33.0078 32.0156 32.3438L32.1328 26.9375C32.1406 26.8594 32.1406 26.7656 32.1406 26.7031C32.1406 25.9844 31.7031 25.5547 31.0078 25.5547C30.3047 25.5547 29.8594 25.9844 29.8594 26.7031C29.8594 26.7656 29.8672 26.8594 29.8672 26.9375L29.9922 32.3438C30.0078 33.0078 30.3516 33.3984 31 33.3984ZM31 37.1953C31.7109 37.1953 32.2734 36.6562 32.2734 35.9688C32.2734 35.2812 31.7109 34.7422 31 34.7422C30.2891 34.7422 29.7266 35.2812 29.7266 35.9688C29.7266 36.6562 30.2891 37.1953 31 37.1953Z" fill="white"/>
</svg>
