<svg width="60" height="60" viewBox="0 0 60 60" fill="none" xmlns="http://www.w3.org/2000/svg">
<rect width="60" height="60" fill="white"/>
<path d="M37.3913 11.4747L21.6061 11.4747C17.9563 11.4747 15 14.4336 15 18.0807L15 39.6248C15 47.6334 21.4914 54.1248 29.5 54.1248C37.5086 54.1248 44 47.6334 44 39.6248L44 18.0807C44 14.431 41.0411 11.4747 37.3939 11.4747H37.3913Z" fill="white"/>
<path d="M37.3913 11.4747L21.6061 11.4747C17.9563 11.4747 15 14.4336 15 18.0807L15 39.6248C15 47.6334 21.4914 54.1248 29.5 54.1248C37.5086 54.1248 44 47.6334 44 39.6248L44 18.0807C44 14.431 41.0411 11.4747 37.3939 11.4747H37.3913Z" fill="white"/>
<path d="M29.4974 51.9767C32.8968 51.9767 35.9809 50.595 38.2177 48.3634C37.8449 43.8716 34.0856 40.3444 29.4974 40.3444C24.9091 40.3444 21.1498 43.8742 20.777 48.3634C23.0138 50.595 26.0979 51.9767 29.4974 51.9767Z" fill="#4FBE1B"/>
<g style="mix-blend-mode:multiply" opacity="0.3">
<path d="M29.0855 40.3548L29.0855 51.9663C29.2237 51.9715 29.3592 51.9767 29.4974 51.9767C29.6356 51.9767 29.7737 51.9715 29.9093 51.9663L29.9093 40.3548C29.7711 40.3496 29.6356 40.3444 29.4974 40.3444C29.3592 40.3444 29.2211 40.347 29.0855 40.3548Z" fill="#4FBE1B"/>
</g>
<g opacity="0.3">
<g style="mix-blend-mode:multiply">
<path d="M23.3267 46.1631L27.0859 47.9671L27.0859 46.1631L27.0859 44.3564L23.3267 46.1631Z" fill="#4FBE1B"/>
</g>
<g style="mix-blend-mode:multiply">
<path d="M35.6708 46.1631L31.9115 44.3565L31.9115 46.1631L31.9115 47.9672L35.6708 46.1631Z" fill="#4FBE1B"/>
</g>
</g>
<path d="M29.4974 52.3026C22.5055 52.3026 16.8197 46.6141 16.8197 39.6248L16.8197 18.0808C16.8197 15.4425 18.9652 13.2944 21.6061 13.2944L37.3913 13.2944C40.0296 13.2944 42.1778 15.4399 42.1778 18.0808L42.1778 39.6248C42.1778 46.6167 36.4893 52.3026 29.5 52.3026H29.4974ZM21.6035 13.9461C19.325 13.9461 17.4688 15.7997 17.4688 18.0808L17.4688 39.6248C17.4688 46.257 22.8653 51.6508 29.4948 51.6508C36.1244 51.6508 41.5208 46.257 41.5208 39.6248L41.5208 18.0808C41.5208 15.8023 39.6672 13.9461 37.3861 13.9461L21.6009 13.9461H21.6035Z" fill="#4FBE1B"/>
<path d="M38.3022 17.9426L20.6926 17.9426C20.1403 17.9426 19.6926 18.3903 19.6926 18.9426L19.6926 28.8538C19.6926 29.4061 20.1403 29.8538 20.6926 29.8538L38.3022 29.8538C38.8545 29.8538 39.3022 29.4061 39.3022 28.8538L39.3022 18.9426C39.3022 18.3903 38.8545 17.9426 38.3022 17.9426Z" fill="#7A7A7A"/>
<path d="M26.1292 33.8034C26.1292 34.7497 25.3601 35.5188 24.4138 35.5188L21.3063 35.5188C20.36 35.5188 19.5909 34.7497 19.5909 33.8034C19.5909 32.8571 20.36 32.088 21.3063 32.088L24.4138 32.088C25.3601 32.088 26.1292 32.8571 26.1292 33.8034Z" fill="#4FBE1B"/>
<path d="M39.4066 33.8034C39.4066 34.7497 38.6375 35.5188 37.6912 35.5188L34.5837 35.5188C33.6373 35.5188 32.8683 34.7497 32.8683 33.8034C32.8683 32.8571 33.6373 32.088 34.5837 32.088L37.6912 32.088C38.6375 32.088 39.4066 32.8571 39.4066 33.8034Z" fill="#4FBE1B"/>
<path d="M31.098 33.8034C31.098 34.6872 30.3811 35.4041 29.4974 35.4041C28.6136 35.4041 27.8993 34.6872 27.8993 33.8034C27.8993 32.9196 28.6162 32.2053 29.4974 32.2053C30.3785 32.2053 31.098 32.9222 31.098 33.8034Z" fill="#4FBE1B"/>
<path d="M29.487 33.9885C29.4192 33.9885 29.3618 33.9337 29.3618 33.8633L29.3618 32.9326C29.3618 32.8649 29.4166 32.8075 29.487 32.8075C29.5574 32.8075 29.6121 32.8622 29.6121 32.9326L29.6121 33.8633C29.6121 33.9311 29.5574 33.9885 29.487 33.9885Z" fill="white"/>
<path d="M29.4974 34.7992C29.0334 34.7992 28.6553 34.4212 28.6553 33.9572C28.6553 33.6574 28.8196 33.3758 29.0829 33.2272C29.1429 33.1933 29.2185 33.2142 29.2523 33.2742C29.2862 33.3341 29.2654 33.4097 29.2054 33.4436C29.0203 33.5505 28.903 33.746 28.903 33.9572C28.903 34.2857 29.1689 34.5516 29.4974 34.5516C29.8259 34.5516 30.0918 34.2857 30.0918 33.9572C30.0918 33.746 29.9771 33.5505 29.7894 33.4436C29.7294 33.4097 29.7086 33.3341 29.7425 33.2742C29.7763 33.2142 29.8519 33.1933 29.9119 33.2272C30.1752 33.3758 30.3395 33.6574 30.3395 33.9572C30.3395 34.4212 29.9614 34.7992 29.4974 34.7992Z" fill="white"/>
<g style="mix-blend-mode:multiply" opacity="0.3">
<path d="M24.0071 34.6223C23.9236 34.6223 23.8376 34.591 23.775 34.5258L22.86 33.6108L21.9449 34.5258C21.8146 34.6562 21.606 34.6562 21.4783 34.5258C21.3479 34.3955 21.3479 34.1869 21.4783 34.0592L22.628 32.9121C22.7557 32.7843 22.9669 32.7843 23.0946 32.9121L24.2443 34.0618C24.372 34.1895 24.372 34.4007 24.2443 34.5284C24.1791 34.5936 24.0957 34.6249 24.0097 34.6249L24.0071 34.6223Z" fill="#4FBE1B"/>
<path d="M34.9877 32.8127C35.0711 32.8127 35.1571 32.844 35.2223 32.9091L36.1373 33.8242L37.0524 32.9091C37.1827 32.7814 37.3913 32.7814 37.519 32.9091C37.6494 33.0369 37.6494 33.248 37.519 33.3758L36.372 34.5255C36.2416 34.6558 36.0331 34.6558 35.9053 34.5255L34.7556 33.3758C34.6279 33.2454 34.6279 33.0369 34.7556 32.9091C34.8208 32.844 34.9042 32.8127 34.9903 32.8127H34.9877Z" fill="#4FBE1B"/>
</g>
<path d="M33.1107 12.2124C33.1107 12.3845 32.9699 12.5253 32.7978 12.5253L26.197 12.5253C26.0249 12.5253 25.8841 12.3845 25.8841 12.2124C25.8841 12.0404 26.0249 11.8996 26.197 11.8996L32.7978 11.8996C32.9699 11.8996 33.1107 12.0404 33.1107 12.2124Z" fill="#7A7A7A"/>
<path d="M25.2623 26.5179C24.8873 26.5179 24.5496 26.4433 24.2491 26.2942C23.9487 26.145 23.7079 25.9405 23.5268 25.6805C23.3457 25.4206 23.2467 25.1244 23.2296 24.792L23.9967 24.792C24.0265 25.0882 24.1607 25.3332 24.3994 25.5271C24.6401 25.7189 24.9278 25.8148 25.2623 25.8148C25.5307 25.8148 25.7694 25.7519 25.9782 25.6262C26.1891 25.5005 26.3543 25.3279 26.4736 25.1084C26.595 24.8869 26.6557 24.6365 26.6557 24.3574C26.6557 24.0719 26.5929 23.8173 26.4672 23.5935C26.3436 23.3677 26.1731 23.1898 25.9558 23.0598C25.7385 22.9298 25.4903 22.8638 25.2111 22.8616C25.0109 22.8595 24.8053 22.8904 24.5943 22.9543C24.3834 23.0161 24.2097 23.096 24.0734 23.194L23.3319 23.1045L23.7282 19.883L27.1288 19.883L27.1288 20.5861L24.393 20.5861L24.1629 22.5165H24.2012C24.3354 22.4099 24.5038 22.3215 24.7062 22.2512C24.9086 22.1809 25.1195 22.1457 25.339 22.1457C25.7396 22.1457 26.0964 22.2416 26.4097 22.4334C26.725 22.623 26.9722 22.883 27.1511 23.2132C27.3322 23.5435 27.4228 23.9206 27.4228 24.3446C27.4228 24.7622 27.329 25.1351 27.1415 25.4632C26.9562 25.7892 26.7005 26.047 26.3745 26.2366C26.0485 26.4241 25.6778 26.5179 25.2623 26.5179ZM29.0088 26.4795C28.8511 26.4795 28.7159 26.4231 28.6029 26.3102C28.49 26.1972 28.4335 26.0619 28.4335 25.9043C28.4335 25.7466 28.49 25.6113 28.6029 25.4984C28.7159 25.3854 28.8511 25.329 29.0088 25.329C29.1665 25.329 29.3018 25.3854 29.4147 25.4984C29.5276 25.6113 29.5841 25.7466 29.5841 25.9043C29.5841 26.0087 29.5575 26.1045 29.5042 26.1919C29.4531 26.2793 29.3838 26.3496 29.2965 26.4028C29.2112 26.454 29.1154 26.4795 29.0088 26.4795ZM32.8385 26.5179C32.4635 26.5179 32.1257 26.4433 31.8253 26.2942C31.5249 26.145 31.2841 25.9405 31.103 25.6805C30.9219 25.4206 30.8228 25.1244 30.8058 24.792H31.5728C31.6027 25.0882 31.7369 25.3332 31.9755 25.5271C32.2163 25.7189 32.5039 25.8148 32.8385 25.8148C33.1069 25.8148 33.3456 25.7519 33.5544 25.6262C33.7653 25.5005 33.9304 25.3279 34.0497 25.1084C34.1712 24.8869 34.2319 24.6365 34.2319 24.3574C34.2319 24.0719 34.1691 23.8173 34.0434 23.5935C33.9198 23.3677 33.7493 23.1898 33.532 23.0598C33.3147 22.9298 33.0664 22.8638 32.7873 22.8616C32.587 22.8595 32.3814 22.8904 32.1705 22.9543C31.9595 23.0161 31.7859 23.096 31.6495 23.194L30.9081 23.1045L31.3044 19.883L34.7049 19.883L34.7049 20.5861L31.9691 20.5861L31.739 22.5165H31.7774C31.9116 22.4099 32.0799 22.3215 32.2823 22.2512C32.4848 22.1809 32.6957 22.1457 32.9152 22.1457C33.3157 22.1457 33.6726 22.2416 33.9858 22.4334C34.3012 22.623 34.5483 22.883 34.7273 23.2132C34.9084 23.5435 34.999 23.9206 34.999 24.3446C34.999 24.7622 34.9052 25.1351 34.7177 25.4632C34.5323 25.7892 34.2767 26.047 33.9507 26.2366C33.6247 26.4241 33.2539 26.5179 32.8385 26.5179Z" fill="black"/>
<path d="M27.0008 29.1218L27.0008 28.0309H27.1628L27.1628 28.2013H27.177C27.1997 28.1431 27.2364 28.0979 27.2871 28.0657C27.3377 28.033 27.3986 28.0167 27.4696 28.0167C27.5416 28.0167 27.6014 28.033 27.6493 28.0657C27.6976 28.0979 27.7352 28.1431 27.7622 28.2013H27.7736C27.8015 28.145 27.8434 28.1002 27.8993 28.0671C27.9551 28.0335 28.0221 28.0167 28.1003 28.0167C28.1978 28.0167 28.2776 28.0472 28.3396 28.1083C28.4016 28.1689 28.4327 28.2633 28.4327 28.3917V29.1218H28.265V28.3917C28.265 28.3112 28.243 28.2536 28.199 28.2191C28.155 28.1845 28.1031 28.1672 28.0434 28.1672C27.9667 28.1672 27.9073 28.1904 27.8652 28.2368C27.823 28.2827 27.802 28.341 27.802 28.4115V29.1218H27.6315V28.3746C27.6315 28.3126 27.6114 28.2626 27.5711 28.2247C27.5309 28.1864 27.4791 28.1672 27.4156 28.1672C27.372 28.1672 27.3313 28.1788 27.2934 28.202C27.256 28.2252 27.2257 28.2574 27.2025 28.2986C27.1798 28.3393 27.1684 28.3864 27.1684 28.4399V29.1218H27.0008ZM29.1795 29.5536C29.0985 29.5536 29.0289 29.5432 28.9706 29.5223C28.9124 29.502 28.8639 29.475 28.8251 29.4414C28.7867 29.4082 28.7562 29.3727 28.7334 29.3348L28.867 29.2411C28.8821 29.261 28.9013 29.2837 28.9245 29.3093C28.9477 29.3353 28.9794 29.3578 29.0197 29.3767C29.0604 29.3961 29.1136 29.4059 29.1795 29.4059C29.2675 29.4059 29.3402 29.3845 29.3975 29.3419C29.4548 29.2993 29.4834 29.2326 29.4834 29.1417V28.9201H29.4692C29.4569 28.9399 29.4394 28.9646 29.4167 28.9939C29.3944 29.0228 29.3622 29.0486 29.3201 29.0713C29.2784 29.0936 29.2221 29.1047 29.151 29.1047C29.063 29.1047 28.9839 29.0839 28.9138 29.0422C28.8442 29.0006 28.7891 28.9399 28.7483 28.8604C28.7081 28.7809 28.688 28.6843 28.688 28.5706C28.688 28.4589 28.7076 28.3616 28.7469 28.2787C28.7862 28.1954 28.8409 28.131 28.911 28.0855C28.9811 28.0396 29.062 28.0167 29.1539 28.0167C29.2249 28.0167 29.2813 28.0285 29.3229 28.0522C29.3651 28.0754 29.3973 28.1019 29.4195 28.1317C29.4422 28.1611 29.4598 28.1852 29.4721 28.2042H29.4891V28.0309H29.651L29.651 29.153C29.651 29.2468 29.6297 29.323 29.5871 29.3817C29.545 29.4409 29.4882 29.4842 29.4167 29.5117C29.3456 29.5396 29.2666 29.5536 29.1795 29.5536ZM29.1738 28.9542C29.241 28.9542 29.2978 28.9388 29.3442 28.908C29.3906 28.8772 29.4259 28.8329 29.4501 28.7752C29.4742 28.7174 29.4863 28.6483 29.4863 28.5678C29.4863 28.4892 29.4744 28.4198 29.4508 28.3597C29.4271 28.2996 29.392 28.2524 29.3456 28.2184C29.2992 28.1843 29.242 28.1672 29.1738 28.1672C29.1028 28.1672 29.0436 28.1852 28.9962 28.2212C28.9493 28.2572 28.9141 28.3055 28.8904 28.3661C28.8672 28.4267 28.8556 28.4939 28.8556 28.5678C28.8556 28.6435 28.8674 28.7105 28.8911 28.7688C28.9153 28.8265 28.9508 28.872 28.9976 28.9051C29.045 28.9378 29.1037 28.9542 29.1738 28.9542ZM30.4721 27.599L30.0033 29.3405H29.8499L30.3187 27.599H30.4721ZM31.0827 29.1445C30.9918 29.1445 30.9115 29.1215 30.8419 29.0756C30.7723 29.0292 30.7179 28.9639 30.6786 28.8796C30.6393 28.7948 30.6196 28.6947 30.6196 28.5792C30.6196 28.4646 30.6393 28.3651 30.6786 28.2809C30.7179 28.1966 30.7726 28.1315 30.8426 28.0855C30.9127 28.0396 30.9937 28.0167 31.0855 28.0167C31.1565 28.0167 31.2127 28.0285 31.2539 28.0522C31.2955 28.0754 31.3272 28.1019 31.349 28.1317C31.3713 28.1611 31.3886 28.1852 31.4009 28.2042H31.4151V27.6672H31.5827L31.5827 29.1218H31.4208V28.9542H31.4009C31.3886 28.974 31.371 28.9991 31.3483 29.0294C31.3256 29.0593 31.2932 29.086 31.251 29.1097C31.2089 29.1329 31.1528 29.1445 31.0827 29.1445ZM31.1054 28.9939C31.1726 28.9939 31.2295 28.9764 31.2759 28.9414C31.3223 28.9059 31.3575 28.8569 31.3817 28.7944C31.4058 28.7314 31.4179 28.6587 31.4179 28.5763C31.4179 28.4949 31.4061 28.4236 31.3824 28.3625C31.3587 28.301 31.3237 28.2532 31.2773 28.2191C31.2309 28.1845 31.1736 28.1672 31.1054 28.1672C31.0344 28.1672 30.9752 28.1854 30.9279 28.2219C30.881 28.2579 30.8457 28.3069 30.822 28.3689C30.7988 28.4305 30.7872 28.4996 30.7872 28.5763C30.7872 28.654 30.7991 28.7245 30.8227 28.788C30.8469 28.8509 30.8824 28.9011 30.9293 28.9385C30.9766 28.9755 31.0353 28.9939 31.1054 28.9939ZM32.0806 27.6672V29.1218H31.9129L31.9129 27.6672L32.0806 27.6672Z" fill="black"/>
</svg>
