<svg width="60" height="60" viewBox="0 0 60 60" fill="none" xmlns="http://www.w3.org/2000/svg">
<rect width="60" height="60" fill="white"/>
<g filter="url(#filter0_d_547_922)">
<path d="M38.1238 55H21.4193C13.3047 55 6.61607 48.6221 6.1747 40.4707L5.02032 18.3697C4.61289 11.105 10.3848 5 17.6506 5H41.5529C48.7169 5 54.4548 10.9686 54.1832 18.1651L53.3683 40.1978C53.0967 48.4516 46.3402 55 38.1238 55Z" fill="white"/>
<path opacity="0.2" d="M41.5529 5H38.9386C42.3338 5.81855 45.797 7.28513 48.0378 9.809C52.5874 14.925 55.0999 42.7217 42.4697 43.4379C29.8394 44.1542 20.6723 42.2783 16.2585 45.1432C13.746 46.7803 13.033 49.9864 12.8972 52.4079C15.3418 54.045 18.2617 55 21.4193 55H38.1238C46.3402 55 53.0628 48.4857 53.3683 40.2319L54.1832 18.1992C54.4548 10.9686 48.7169 5 41.5529 5Z" fill="#C3C7C5"/>
<path d="M41.4511 42.3124H17.7185C14.3572 42.3124 11.6071 39.5498 11.6071 36.1733V16.221C11.6071 12.8445 14.3572 10.0818 17.7185 10.0818H41.4511C44.8124 10.0818 47.5625 12.8445 47.5625 16.221V36.1733C47.5625 39.5839 44.8463 42.3124 41.4511 42.3124Z" fill="#C6C6C6"/>
<path d="M39.9572 40.3001H19.2124C16.2585 40.3001 13.8819 37.9127 13.8819 34.9454V17.4829C13.8819 14.5157 16.2585 12.1282 19.2124 12.1282H39.9572C42.911 12.1282 45.2877 14.5157 45.2877 17.4829V34.9454C45.3216 37.8786 42.911 40.3001 39.9572 40.3001Z" fill="url(#paint0_linear_547_922)"/>
<path d="M12.2182 36.7872V16.8349C12.2182 13.4584 14.9683 10.6958 18.3296 10.6958H42.0622C43.5901 10.6958 45.0161 11.2756 46.0686 12.1964C44.9482 10.9004 43.3185 10.0818 41.485 10.0818H17.7185C14.3572 10.0818 11.6071 12.8445 11.6071 16.221V36.1732C11.6071 38.015 12.4219 39.6521 13.7121 40.7776C12.7954 39.7203 12.2182 38.322 12.2182 36.7872Z" fill="#8D8D8D"/>
<g opacity="0.32">
<path d="M29.398 51.0778H21.1137C19.484 51.0778 18.1598 49.7476 18.1598 48.1105C18.1598 46.4734 19.484 45.1432 21.1137 45.1432H29.3641C30.9938 45.1432 32.3179 46.4734 32.3179 48.1105C32.3519 49.7476 31.0278 51.0778 29.398 51.0778Z" fill="#565656"/>
<path d="M37.3089 51.2483C39.034 51.2483 40.4325 49.8435 40.4325 48.1105C40.4325 46.3776 39.034 44.9727 37.3089 44.9727C35.5838 44.9727 34.1853 46.3776 34.1853 48.1105C34.1853 49.8435 35.5838 51.2483 37.3089 51.2483Z" fill="#565656"/>
</g>
<path d="M18.5333 6.36421C15.0702 6.22779 11.675 7.62615 9.43412 10.3888C7.39699 12.9126 5.97099 16.9713 6.71794 20.2114C6.8877 20.9277 7.94022 20.8935 8.14394 20.2114C8.99274 17.3806 8.89088 14.5156 10.6904 11.9918C12.5238 9.43379 15.5455 8.27417 18.5673 7.899C19.5179 7.79668 19.5858 6.39832 18.5333 6.36421Z" fill="#EAEAEA"/>
<path d="M6.98954 22.7012C7.0235 23.5539 6.92164 24.4747 7.19326 25.2933C7.46487 26.0095 8.38159 25.839 8.48344 25.1228C8.31368 25.3274 8.17787 25.532 8.00811 25.7708C8.31368 25.7367 8.44949 25.3956 8.48344 25.1228C8.5853 24.2701 8.31368 23.3833 8.14392 22.5648C8.04206 21.8827 6.98954 22.0532 6.98954 22.7012Z" fill="#EAEAEA"/>
<path d="M29.7036 51.3165H21.4532C19.8235 51.3165 18.4994 49.9864 18.4994 48.3493C18.4994 46.7122 19.8235 45.382 21.4532 45.382H29.7036C31.3333 45.382 32.6574 46.7122 32.6574 48.3493C32.6574 49.9864 31.3333 51.3165 29.7036 51.3165Z" fill="#3675AD"/>
<path d="M40.1047 50.2339C41.1444 48.851 40.8713 46.8833 39.4947 45.8388C38.118 44.7943 36.1592 45.0687 35.1194 46.4516C34.0797 47.8345 34.3528 49.8023 35.7295 50.8467C37.1061 51.8912 39.065 51.6168 40.1047 50.2339Z" fill="#8D8D8D"/>
<path d="M21.5057 29.5657L22.2187 27.9968L23.0675 29.6681L24.0182 26.6667L25.1047 31.2369L25.8856 27.9968L26.293 29.4975H27.6851" stroke="#2D2D2D" stroke-width="0.75" stroke-miterlimit="10" stroke-linecap="round" stroke-linejoin="round"/>
<path opacity="0.1" d="M21.985 22.204L22.809 21.34H24.785L25.561 22.204H21.985ZM21.745 18.276L22.609 19.108V21.068L21.745 21.852V18.276ZM25.817 21.852L24.953 21.028V19.06L25.817 18.276V21.852ZM22.673 18.564C22.4863 18.4147 22.297 18.268 22.105 18.124L22.673 17.7H24.857L25.417 18.124L24.857 18.564H22.673ZM21.977 14.076H25.553L24.761 14.94H22.801L21.977 14.076ZM21.721 17.996V14.42L22.585 15.196V17.18L21.721 17.996ZM25.793 14.42V17.996L24.929 17.22V15.244L25.793 14.42ZM28.3834 22.204L29.2074 21.34H31.1834L31.9594 22.204H28.3834ZM28.1434 18.276L29.0074 19.108V21.068L28.1434 21.852V18.276ZM32.2154 21.852L31.3514 21.028V19.06L32.2154 18.276V21.852ZM29.0714 18.564C28.8848 18.4147 28.6954 18.268 28.5034 18.124L29.0714 17.7H31.2554L31.8154 18.124L31.2554 18.564H29.0714ZM28.3754 14.076H31.9514L31.1594 14.94H29.1994L28.3754 14.076ZM28.1194 17.996V14.42L28.9834 15.196V17.18L28.1194 17.996ZM32.1914 14.42V17.996L31.3274 17.22V15.244L32.1914 14.42ZM34.7819 22.204L35.6059 21.34H37.5819L38.3579 22.204H34.7819ZM34.5419 18.276L35.4059 19.108V21.068L34.5419 21.852V18.276ZM38.6139 21.852L37.7499 21.028V19.06L38.6139 18.276V21.852ZM35.4699 18.564C35.2832 18.4147 35.0939 18.268 34.9019 18.124L35.4699 17.7H37.6539L38.2139 18.124L37.6539 18.564H35.4699ZM34.7739 14.076H38.3499L37.5579 14.94H35.5979L34.7739 14.076ZM34.5179 17.996V14.42L35.3819 15.196V17.18L34.5179 17.996ZM38.5899 14.42V17.996L37.7259 17.22V15.244L38.5899 14.42Z" fill="black"/>
<path d="M25.817 21.852L24.953 21.028V19.06L25.817 18.276V21.852ZM25.793 14.42V17.996L24.929 17.22V15.244L25.793 14.42ZM28.3834 22.204L29.2074 21.34H31.1834L31.9594 22.204H28.3834ZM28.1434 18.276L29.0074 19.108V21.068L28.1434 21.852V18.276ZM29.0714 18.564C28.8848 18.4147 28.6954 18.268 28.5034 18.124L29.0714 17.7H31.2554L31.8154 18.124L31.2554 18.564H29.0714ZM28.3754 14.076H31.9514L31.1594 14.94H29.1994L28.3754 14.076ZM32.1914 14.42V17.996L31.3274 17.22V15.244L32.1914 14.42ZM34.7819 22.204L35.6059 21.34H37.5819L38.3579 22.204H34.7819ZM34.5419 18.276L35.4059 19.108V21.068L34.5419 21.852V18.276ZM38.6139 21.852L37.7499 21.028V19.06L38.6139 18.276V21.852ZM34.7739 14.076H38.3499L37.5579 14.94H35.5979L34.7739 14.076ZM34.5179 17.996V14.42L35.3819 15.196V17.18L34.5179 17.996ZM38.5899 14.42V17.996L37.7259 17.22V15.244L38.5899 14.42Z" fill="black"/>
<path opacity="0.1" d="M29.9092 30.6853L30.3212 30.2533H31.3092L31.6972 30.6853H29.9092ZM29.7892 28.7213L30.2212 29.1373V30.1173L29.7892 30.5093V28.7213ZM31.8252 30.5093L31.3932 30.0973V29.1133L31.8252 28.7213V30.5093ZM30.2532 28.8653C30.1598 28.7906 30.0652 28.7173 29.9692 28.6453L30.2532 28.4333H31.3452L31.6252 28.6453L31.3452 28.8653H30.2532ZM29.9052 26.6213H31.6932L31.2972 27.0533H30.3172L29.9052 26.6213ZM29.7772 28.5813V26.7933L30.2092 27.1813V28.1733L29.7772 28.5813ZM31.8132 26.7933V28.5813L31.3812 28.1933V27.2053L31.8132 26.7933ZM33.1084 30.6853L33.5204 30.2533H34.5084L34.8964 30.6853H33.1084ZM32.9884 28.7213L33.4204 29.1373V30.1173L32.9884 30.5093V28.7213ZM35.0244 30.5093L34.5924 30.0973V29.1133L35.0244 28.7213V30.5093ZM33.4524 28.8653C33.3591 28.7906 33.2644 28.7173 33.1684 28.6453L33.4524 28.4333H34.5444L34.8244 28.6453L34.5444 28.8653H33.4524ZM33.1044 26.6213H34.8924L34.4964 27.0533H33.5164L33.1044 26.6213ZM32.9764 28.5813V26.7933L33.4084 27.1813V28.1733L32.9764 28.5813ZM35.0124 26.7933V28.5813L34.5804 28.1933V27.2053L35.0124 26.7933ZM36.3076 30.6853L36.7196 30.2533H37.7076L38.0956 30.6853H36.3076ZM36.1876 28.7213L36.6196 29.1373V30.1173L36.1876 30.5093V28.7213ZM38.2236 30.5093L37.7916 30.0973V29.1133L38.2236 28.7213V30.5093ZM36.6516 28.8653C36.5583 28.7906 36.4636 28.7173 36.3676 28.6453L36.6516 28.4333H37.7436L38.0236 28.6453L37.7436 28.8653H36.6516ZM36.3036 26.6213H38.0916L37.6956 27.0533H36.7156L36.3036 26.6213ZM36.1756 28.5813V26.7933L36.6076 27.1813V28.1733L36.1756 28.5813ZM38.2116 26.7933V28.5813L37.7796 28.1933V27.2053L38.2116 26.7933Z" fill="black"/>
<path d="M33.1754 30.6853L33.5874 30.2533H34.5754L34.9634 30.6853H33.1754ZM33.0554 28.7213L33.4874 29.1373V30.1173L33.0554 30.5093V28.7213ZM35.0914 30.5093L34.6594 30.0973V29.1133L35.0914 28.7213V30.5093ZM33.5194 28.8653C33.4261 28.7906 33.3314 28.7173 33.2354 28.6453L33.5194 28.4333H34.6114L34.8914 28.6453L34.6114 28.8653H33.5194ZM33.1714 26.6213H34.9594L34.5634 27.0533H33.5834L33.1714 26.6213ZM33.0434 28.5813V26.7933L33.4754 27.1813V28.1733L33.0434 28.5813ZM35.0794 26.7933V28.5813L34.6474 28.1933V27.2053L35.0794 26.7933ZM36.3747 30.6853L36.7867 30.2533H37.7747L38.1627 30.6853H36.3747ZM36.2547 28.7213L36.6867 29.1373V30.1173L36.2547 30.5093V28.7213ZM38.2907 30.5093L37.8587 30.0973V29.1133L38.2907 28.7213V30.5093ZM36.3707 26.6213H38.1587L37.7627 27.0533H36.7827L36.3707 26.6213ZM36.2427 28.5813V26.7933L36.6747 27.1813V28.1733L36.2427 28.5813ZM38.2787 26.7933V28.5813L37.8467 28.1933V27.2053L38.2787 26.7933Z" fill="black"/>
<path opacity="0.1" d="M29.9092 37.352L30.3212 36.92H31.3092L31.6972 37.352H29.9092ZM29.7892 35.388L30.2212 35.804V36.784L29.7892 37.176V35.388ZM31.8252 37.176L31.3932 36.764V35.78L31.8252 35.388V37.176ZM30.2532 35.532C30.1598 35.4573 30.0652 35.384 29.9692 35.312L30.2532 35.1H31.3452L31.6252 35.312L31.3452 35.532H30.2532ZM29.9052 33.288H31.6932L31.2972 33.72H30.3172L29.9052 33.288ZM29.7772 35.248V33.46L30.2092 33.848V34.84L29.7772 35.248ZM31.8132 33.46V35.248L31.3812 34.86V33.872L31.8132 33.46ZM33.1084 37.352L33.5204 36.92H34.5084L34.8964 37.352H33.1084ZM32.9884 35.388L33.4204 35.804V36.784L32.9884 37.176V35.388ZM35.0244 37.176L34.5924 36.764V35.78L35.0244 35.388V37.176ZM33.4524 35.532C33.3591 35.4573 33.2644 35.384 33.1684 35.312L33.4524 35.1H34.5444L34.8244 35.312L34.5444 35.532H33.4524ZM33.1044 33.288H34.8924L34.4964 33.72H33.5164L33.1044 33.288ZM32.9764 35.248V33.46L33.4084 33.848V34.84L32.9764 35.248ZM35.0124 33.46V35.248L34.5804 34.86V33.872L35.0124 33.46ZM36.3076 37.352L36.7196 36.92H37.7076L38.0956 37.352H36.3076ZM36.1876 35.388L36.6196 35.804V36.784L36.1876 37.176V35.388ZM38.2236 37.176L37.7916 36.764V35.78L38.2236 35.388V37.176ZM36.6516 35.532C36.5583 35.4573 36.4636 35.384 36.3676 35.312L36.6516 35.1H37.7436L38.0236 35.312L37.7436 35.532H36.6516ZM36.3036 33.288H38.0916L37.6956 33.72H36.7156L36.3036 33.288ZM36.1756 35.248V33.46L36.6076 33.848V34.84L36.1756 35.248ZM38.2116 33.46V35.248L37.7796 34.86V33.872L38.2116 33.46Z" fill="black"/>
<path d="M35.1074 37.176L34.6794 36.764V35.78L35.1074 35.388V37.176ZM33.1874 33.288H34.9794L34.5874 33.72H33.5994L33.1874 33.288ZM35.0954 33.46V35.248L34.6674 34.86V33.872L35.0954 33.46ZM36.3747 37.352L36.7867 36.92H37.7747L38.1627 37.352H36.3747ZM36.2547 35.388L36.6867 35.804V36.784L36.2547 37.176V35.388ZM38.2907 37.176L37.8587 36.764V35.78L38.2907 35.388V37.176ZM36.3707 33.288H38.1587L37.7627 33.72H36.7827L36.3707 33.288ZM36.2427 35.248V33.46L36.6747 33.848V34.84L36.2427 35.248ZM38.2787 33.46V35.248L37.8467 34.86V33.872L38.2787 33.46Z" fill="black"/>
<path d="M26.4134 35.0338C26.3886 35.0941 26.3375 35.2064 26.2397 35.3617C26.2148 35.4012 26.187 35.4435 26.1561 35.4886C25.9365 35.8068 25.552 36.2561 24.8968 36.781L24 37.5L23.1025 36.781C22.5044 36.3019 22.1328 35.8859 21.9056 35.5753C21.8725 35.5302 21.8431 35.4879 21.816 35.4484C21.6821 35.248 21.6152 35.1052 21.5866 35.0338C21.3225 34.382 21.6829 33.6561 22.3901 33.4127C22.9934 33.2061 23.6539 33.4162 23.9993 33.8863C24.3446 33.4162 25.0059 33.2061 25.6085 33.4127C26.3171 33.6554 26.6775 34.3813 26.4134 35.0338Z" fill="#2D2D2D"/>
</g>
<defs>
<filter id="filter0_d_547_922" x="1" y="1" width="57.1924" height="58" filterUnits="userSpaceOnUse" color-interpolation-filters="sRGB">
<feFlood flood-opacity="0" result="BackgroundImageFix"/>
<feColorMatrix in="SourceAlpha" type="matrix" values="0 0 0 0 0 0 0 0 0 0 0 0 0 0 0 0 0 0 127 0" result="hardAlpha"/>
<feOffset/>
<feGaussianBlur stdDeviation="2"/>
<feComposite in2="hardAlpha" operator="out"/>
<feColorMatrix type="matrix" values="0 0 0 0 0 0 0 0 0 0 0 0 0 0 0 0 0 0 0.5 0"/>
<feBlend mode="normal" in2="BackgroundImageFix" result="effect1_dropShadow_547_922"/>
<feBlend mode="normal" in="SourceGraphic" in2="effect1_dropShadow_547_922" result="shape"/>
</filter>
<linearGradient id="paint0_linear_547_922" x1="29.5953" y1="39.4266" x2="29.5953" y2="6.56517" gradientUnits="userSpaceOnUse">
<stop stop-color="#A4E0F7"/>
<stop offset="1" stop-color="#21ABD6"/>
</linearGradient>
</defs>
</svg>
