<svg width="60" height="60" viewBox="0 0 60 60" fill="none" xmlns="http://www.w3.org/2000/svg">
<rect width="60" height="60" fill="white"/>
<g filter="url(#filter0_d_547_1032)">
<path d="M38.1238 55H21.4193C13.3047 55 6.61607 48.6221 6.1747 40.4707L5.02032 18.3697C4.61289 11.105 10.3848 5 17.6506 5H41.5529C48.7169 5 54.4548 10.9686 54.1832 18.1651L53.3683 40.1978C53.0967 48.4516 46.3402 55 38.1238 55Z" fill="white"/>
<path opacity="0.2" d="M41.5529 5H38.9386C42.3338 5.81855 45.797 7.28513 48.0378 9.809C52.5874 14.925 55.0999 42.7217 42.4697 43.4379C29.8394 44.1542 20.6723 42.2783 16.2585 45.1432C13.746 46.7803 13.033 49.9864 12.8972 52.4079C15.3418 54.045 18.2617 55 21.4193 55H38.1238C46.3402 55 53.0628 48.4857 53.3683 40.2319L54.1832 18.1992C54.4548 10.9686 48.7169 5 41.5529 5Z" fill="#C3C7C5"/>
<path d="M41.4511 42.3124H17.7185C14.3572 42.3124 11.6071 39.5498 11.6071 36.1733V16.221C11.6071 12.8445 14.3572 10.0818 17.7185 10.0818H41.4511C44.8124 10.0818 47.5625 12.8445 47.5625 16.221V36.1733C47.5625 39.5839 44.8463 42.3124 41.4511 42.3124Z" fill="#C6C6C6"/>
<path d="M39.9572 40.3001H19.2124C16.2585 40.3001 13.8819 37.9127 13.8819 34.9454V17.4829C13.8819 14.5157 16.2585 12.1282 19.2124 12.1282H39.9572C42.911 12.1282 45.2877 14.5157 45.2877 17.4829V34.9454C45.3216 37.8786 42.911 40.3001 39.9572 40.3001Z" fill="url(#paint0_linear_547_1032)"/>
<path d="M12.2182 36.7872V16.8349C12.2182 13.4584 14.9683 10.6958 18.3296 10.6958H42.0622C43.5901 10.6958 45.0161 11.2756 46.0686 12.1964C44.9482 10.9004 43.3185 10.0818 41.485 10.0818H17.7185C14.3572 10.0818 11.6071 12.8445 11.6071 16.221V36.1732C11.6071 38.015 12.4219 39.6521 13.7121 40.7776C12.7954 39.7203 12.2182 38.322 12.2182 36.7872Z" fill="#8D8D8D"/>
<g opacity="0.32">
<path d="M29.398 51.0778H21.1137C19.484 51.0778 18.1598 49.7476 18.1598 48.1105C18.1598 46.4734 19.484 45.1432 21.1137 45.1432H29.3641C30.9938 45.1432 32.3179 46.4734 32.3179 48.1105C32.3519 49.7476 31.0278 51.0778 29.398 51.0778Z" fill="#565656"/>
<path d="M37.3089 51.2483C39.034 51.2483 40.4325 49.8435 40.4325 48.1105C40.4325 46.3776 39.034 44.9727 37.3089 44.9727C35.5838 44.9727 34.1853 46.3776 34.1853 48.1105C34.1853 49.8435 35.5838 51.2483 37.3089 51.2483Z" fill="#565656"/>
</g>
<path d="M18.5333 6.36421C15.0702 6.22779 11.675 7.62615 9.43412 10.3888C7.39699 12.9126 5.97099 16.9713 6.71794 20.2114C6.8877 20.9277 7.94022 20.8935 8.14393 20.2114C8.99274 17.3806 8.89088 14.5156 10.6904 11.9918C12.5238 9.43379 15.5455 8.27417 18.5673 7.899C19.5179 7.79668 19.5858 6.39832 18.5333 6.36421Z" fill="#EAEAEA"/>
<path d="M6.98954 22.7012C7.02349 23.5539 6.92164 24.4747 7.19326 25.2933C7.46487 26.0095 8.38159 25.839 8.48344 25.1228C8.31368 25.3274 8.17787 25.532 8.00811 25.7708C8.31368 25.7367 8.44949 25.3956 8.48344 25.1228C8.5853 24.2701 8.31368 23.3833 8.14392 22.5648C8.04206 21.8827 6.98954 22.0532 6.98954 22.7012Z" fill="#EAEAEA"/>
<path d="M29.7036 51.3165H21.4532C19.8235 51.3165 18.4994 49.9864 18.4994 48.3493C18.4994 46.7122 19.8235 45.382 21.4532 45.382H29.7036C31.3333 45.382 32.6574 46.7122 32.6574 48.3493C32.6574 49.9864 31.3333 51.3165 29.7036 51.3165Z" fill="#3675AD"/>
<path d="M40.1047 50.2339C41.1444 48.851 40.8713 46.8833 39.4947 45.8388C38.118 44.7943 36.1592 45.0687 35.1194 46.4516C34.0797 47.8345 34.3528 49.8023 35.7295 50.8467C37.1061 51.8912 39.065 51.6168 40.1047 50.2339Z" fill="#8D8D8D"/>
</g>
<path d="M25.5508 21.7676C25.5508 21.6152 25.5273 21.4785 25.4805 21.3574C25.4375 21.2324 25.3555 21.1191 25.2344 21.0176C25.1133 20.9121 24.9434 20.8086 24.7246 20.707C24.5059 20.6055 24.2227 20.5 23.875 20.3906C23.4883 20.2656 23.1211 20.125 22.7734 19.9688C22.4297 19.8125 22.125 19.6309 21.8594 19.4238C21.5977 19.2129 21.3906 18.9688 21.2383 18.6914C21.0898 18.4141 21.0156 18.0918 21.0156 17.7246C21.0156 17.3691 21.0938 17.0469 21.25 16.7578C21.4062 16.4648 21.625 16.2148 21.9062 16.0078C22.1875 15.7969 22.5195 15.6348 22.9023 15.5215C23.2891 15.4082 23.7129 15.3516 24.1738 15.3516C24.8027 15.3516 25.3516 15.4648 25.8203 15.6914C26.2891 15.918 26.6523 16.2285 26.9102 16.623C27.1719 17.0176 27.3027 17.4688 27.3027 17.9766H25.5566C25.5566 17.7266 25.5039 17.5078 25.3984 17.3203C25.2969 17.1289 25.1406 16.9785 24.9297 16.8691C24.7227 16.7598 24.4609 16.7051 24.1445 16.7051C23.8398 16.7051 23.5859 16.752 23.3828 16.8457C23.1797 16.9355 23.0273 17.0586 22.9258 17.2148C22.8242 17.3672 22.7734 17.5391 22.7734 17.7305C22.7734 17.875 22.8086 18.0059 22.8789 18.123C22.9531 18.2402 23.0625 18.3496 23.207 18.4512C23.3516 18.5527 23.5293 18.6484 23.7402 18.7383C23.9512 18.8281 24.1953 18.916 24.4727 19.002C24.9375 19.1426 25.3457 19.3008 25.6973 19.4766C26.0527 19.6523 26.3496 19.8496 26.5879 20.0684C26.8262 20.2871 27.0059 20.5352 27.127 20.8125C27.248 21.0898 27.3086 21.4043 27.3086 21.7559C27.3086 22.127 27.2363 22.459 27.0918 22.752C26.9473 23.0449 26.7383 23.293 26.4648 23.4961C26.1914 23.6992 25.8652 23.8535 25.4863 23.959C25.1074 24.0645 24.6836 24.1172 24.2148 24.1172C23.793 24.1172 23.377 24.0625 22.9668 23.9531C22.5566 23.8398 22.1836 23.6699 21.8477 23.4434C21.5156 23.2168 21.25 22.9277 21.0508 22.5762C20.8516 22.2246 20.752 21.8086 20.752 21.3281H22.5156C22.5156 21.5938 22.5566 21.8184 22.6387 22.002C22.7207 22.1855 22.8359 22.334 22.9844 22.4473C23.1367 22.5605 23.3164 22.6426 23.5234 22.6934C23.7344 22.7441 23.9648 22.7695 24.2148 22.7695C24.5195 22.7695 24.7695 22.7266 24.9648 22.6406C25.1641 22.5547 25.3105 22.4355 25.4043 22.2832C25.502 22.1309 25.5508 21.959 25.5508 21.7676ZM30.373 15.4688V24H28.6211V15.4688H30.373ZM36.4609 21.7676C36.4609 21.6152 36.4375 21.4785 36.3906 21.3574C36.3477 21.2324 36.2656 21.1191 36.1445 21.0176C36.0234 20.9121 35.8535 20.8086 35.6348 20.707C35.416 20.6055 35.1328 20.5 34.7852 20.3906C34.3984 20.2656 34.0312 20.125 33.6836 19.9688C33.3398 19.8125 33.0352 19.6309 32.7695 19.4238C32.5078 19.2129 32.3008 18.9688 32.1484 18.6914C32 18.4141 31.9258 18.0918 31.9258 17.7246C31.9258 17.3691 32.0039 17.0469 32.1602 16.7578C32.3164 16.4648 32.5352 16.2148 32.8164 16.0078C33.0977 15.7969 33.4297 15.6348 33.8125 15.5215C34.1992 15.4082 34.623 15.3516 35.084 15.3516C35.7129 15.3516 36.2617 15.4648 36.7305 15.6914C37.1992 15.918 37.5625 16.2285 37.8203 16.623C38.082 17.0176 38.2129 17.4688 38.2129 17.9766H36.4668C36.4668 17.7266 36.4141 17.5078 36.3086 17.3203C36.207 17.1289 36.0508 16.9785 35.8398 16.8691C35.6328 16.7598 35.3711 16.7051 35.0547 16.7051C34.75 16.7051 34.4961 16.752 34.293 16.8457C34.0898 16.9355 33.9375 17.0586 33.8359 17.2148C33.7344 17.3672 33.6836 17.5391 33.6836 17.7305C33.6836 17.875 33.7188 18.0059 33.7891 18.123C33.8633 18.2402 33.9727 18.3496 34.1172 18.4512C34.2617 18.5527 34.4395 18.6484 34.6504 18.7383C34.8613 18.8281 35.1055 18.916 35.3828 19.002C35.8477 19.1426 36.2559 19.3008 36.6074 19.4766C36.9629 19.6523 37.2598 19.8496 37.498 20.0684C37.7363 20.2871 37.916 20.5352 38.0371 20.8125C38.1582 21.0898 38.2188 21.4043 38.2188 21.7559C38.2188 22.127 38.1465 22.459 38.002 22.752C37.8574 23.0449 37.6484 23.293 37.375 23.4961C37.1016 23.6992 36.7754 23.8535 36.3965 23.959C36.0176 24.0645 35.5938 24.1172 35.125 24.1172C34.7031 24.1172 34.2871 24.0625 33.877 23.9531C33.4668 23.8398 33.0938 23.6699 32.7578 23.4434C32.4258 23.2168 32.1602 22.9277 31.9609 22.5762C31.7617 22.2246 31.6621 21.8086 31.6621 21.3281H33.4258C33.4258 21.5938 33.4668 21.8184 33.5488 22.002C33.6309 22.1855 33.7461 22.334 33.8945 22.4473C34.0469 22.5605 34.2266 22.6426 34.4336 22.6934C34.6445 22.7441 34.875 22.7695 35.125 22.7695C35.4297 22.7695 35.6797 22.7266 35.875 22.6406C36.0742 22.5547 36.2207 22.4355 36.3145 22.2832C36.4121 22.1309 36.4609 21.959 36.4609 21.7676Z" fill="#4E4E4E"/>
<path d="M23.6367 38H21.7793L21.791 36.6289H23.6367C24.0977 36.6289 24.4863 36.5254 24.8027 36.3184C25.1191 36.1074 25.3574 35.8008 25.5176 35.3984C25.6816 34.9961 25.7637 34.5098 25.7637 33.9395V33.5234C25.7637 33.0859 25.7168 32.7012 25.623 32.3691C25.5332 32.0371 25.3984 31.7578 25.2188 31.5312C25.0391 31.3047 24.8184 31.1348 24.5566 31.0215C24.2949 30.9043 23.9941 30.8457 23.6543 30.8457H21.7441V29.4688H23.6543C24.2246 29.4688 24.7461 29.5664 25.2188 29.7617C25.6953 29.9531 26.1074 30.2285 26.4551 30.5879C26.8027 30.9473 27.0703 31.377 27.2578 31.877C27.4492 32.373 27.5449 32.9258 27.5449 33.5352V33.9395C27.5449 34.5449 27.4492 35.0977 27.2578 35.5977C27.0703 36.0977 26.8027 36.5273 26.4551 36.8867C26.1113 37.2422 25.6992 37.5176 25.2188 37.7129C24.7422 37.9043 24.2148 38 23.6367 38ZM22.7754 29.4688V38H21.0176V29.4688H22.7754ZM30.6914 29.4688V38H28.9395V29.4688H30.6914ZM35.9121 30.9277L33.5918 38H31.7227L34.8926 29.4688H36.082L35.9121 30.9277ZM37.8398 38L35.5137 30.9277L35.3262 29.4688H36.5273L39.7148 38H37.8398ZM37.7344 34.8242V36.2012H33.2285V34.8242H37.7344Z" fill="#4E4E4E"/>
<rect x="15" y="26" width="29" height="1" rx="0.5" fill="#4E4E4E"/>
<defs>
<filter id="filter0_d_547_1032" x="1" y="1" width="57.1924" height="58" filterUnits="userSpaceOnUse" color-interpolation-filters="sRGB">
<feFlood flood-opacity="0" result="BackgroundImageFix"/>
<feColorMatrix in="SourceAlpha" type="matrix" values="0 0 0 0 0 0 0 0 0 0 0 0 0 0 0 0 0 0 127 0" result="hardAlpha"/>
<feOffset/>
<feGaussianBlur stdDeviation="2"/>
<feComposite in2="hardAlpha" operator="out"/>
<feColorMatrix type="matrix" values="0 0 0 0 0 0 0 0 0 0 0 0 0 0 0 0 0 0 0.5 0"/>
<feBlend mode="normal" in2="BackgroundImageFix" result="effect1_dropShadow_547_1032"/>
<feBlend mode="normal" in="SourceGraphic" in2="effect1_dropShadow_547_1032" result="shape"/>
</filter>
<linearGradient id="paint0_linear_547_1032" x1="29.5953" y1="39.4266" x2="29.5953" y2="6.56517" gradientUnits="userSpaceOnUse">
<stop stop-color="#A4E0F7"/>
<stop offset="1" stop-color="#21ABD6"/>
</linearGradient>
</defs>
</svg>
