<svg width="60" height="60" viewBox="0 0 60 60" fill="none" xmlns="http://www.w3.org/2000/svg">
<g clip-path="url(#clip0_552_1303)">
<rect width="60" height="60" fill="white"/>
<path d="M34.1488 27.0434L35.3574 27.01C35.6589 27.0016 35.9089 27.2388 35.9166 27.5405L35.9181 27.5997C35.9259 27.9014 35.6884 28.152 35.387 28.1604L34.1783 28.1938C33.8769 28.2021 33.6269 27.9649 33.6191 27.6633L33.6176 27.6041C33.6099 27.3024 33.8473 27.0517 34.1488 27.0434Z" fill="#9C9C9C"/>
<path d="M36.5761 25.7132L35.6746 25.7381C35.3592 25.7468 35.1101 26.0098 35.1182 26.3255L35.1831 28.8587C35.1912 29.1743 35.4535 29.4232 35.7689 29.4144L36.6704 29.3895C36.9858 29.3808 37.235 29.1178 37.2269 28.8021L37.1619 26.269C37.1538 25.9533 36.8915 25.7045 36.5761 25.7132Z" fill="#E8E8E8"/>
<path d="M36.9305 26.284C36.8255 26.127 35.8498 26.1911 35.6665 26.2059C35.1555 26.2468 35.3186 26.3141 35.2854 26.2936C35.4041 26.3677 35.4871 26.3137 36.0932 26.3485C36.4729 26.3693 37.0478 26.4614 36.9305 26.284Z" fill="#9C9C9C"/>
<path d="M37.0053 26.8935C36.8532 26.6981 33.9332 26.9421 36.1752 27.0149C36.4464 27.0241 37.1654 27.0978 37.0053 26.8935Z" fill="#9C9C9C"/>
<path d="M36.9081 27.527C36.7858 27.4558 35.0766 27.5147 35.3398 27.5828C35.8645 27.7161 37.3454 27.7809 36.9081 27.527Z" fill="#9C9C9C"/>
<path d="M37.0817 28.1834C36.9372 28 34.4795 28.1879 35.8891 28.2815C36.2592 28.3064 37.2538 28.4008 37.0817 28.1834Z" fill="#9C9C9C"/>
<path d="M37.1024 28.8767C36.9538 28.767 35.8508 28.8295 35.5681 28.9569C35.4095 29.0282 37.4209 29.1138 37.1024 28.8767Z" fill="#9C9C9C"/>
<path opacity="0.2" d="M37.0216 28.8523C37.0819 28.7049 37.0988 27.618 37.0988 27.6024C37.1104 26.7778 37.2493 25.9079 36.5955 25.8847C36.5359 25.8831 34.0471 25.9826 36.5008 26.0057C37.1263 26.0117 36.9146 26.4246 36.819 28.312C36.8102 28.4834 36.7763 28.6745 36.828 28.8411C36.8582 28.936 36.9806 28.95 37.0208 28.8535L37.0216 28.8523Z" fill="white"/>
<path opacity="0.2" d="M36.5882 26.5939C36.2197 26.3721 35.3672 26.6488 35.5473 26.6388C35.677 26.6316 36.8979 26.7817 36.5882 26.5939Z" fill="white"/>
<path opacity="0.2" d="M36.4328 27.2548C36.2378 27.1314 35.3726 27.1443 35.875 27.2592C35.9458 27.2752 36.6539 27.3937 36.4328 27.2548Z" fill="white"/>
<path opacity="0.2" d="M36.287 27.7742C36.1504 27.6204 35.5215 27.7442 35.6802 27.8311C35.769 27.8799 36.4567 27.964 36.287 27.7742Z" fill="white"/>
<path opacity="0.2" d="M36.2235 28.5363C35.9386 28.332 35.52 28.5772 35.6052 28.5715C35.989 28.5447 36.3826 28.6512 36.2235 28.5363Z" fill="white"/>
<path opacity="0.2" d="M36.4969 29.1081C36.1753 29.0809 35.4712 29.2135 35.8653 29.2179C36.6144 29.2283 36.5498 29.1121 36.4969 29.1081Z" fill="white"/>
<path opacity="0.1" d="M34.3506 27.2051C34.3045 27.2143 34.7572 27.3881 34.8869 27.3392C35.0619 27.2719 34.8433 27.1086 34.3506 27.2051Z" fill="white"/>
<path opacity="0.1" d="M34.8905 27.9309C34.7391 27.7811 34.3842 28.0114 34.5605 28.051C34.6301 28.1027 34.9955 28.0358 34.8905 27.9309Z" fill="white"/>
<path d="M32.4285 49.0523C33.3164 46.9813 33.6151 45.2585 33.585 43.8511C35.1072 37.473 34.7191 29.3192 34.5435 25.6502C34.5041 24.8357 34.4736 24.1922 34.4822 23.9304L32.8332 23.8813C32.8234 24.2096 32.8514 24.8162 32.8957 25.7334C33.0387 28.7189 33.3267 34.773 32.5884 40.2265C32.4241 39.9532 32.2541 39.7195 32.0943 39.5231C30.5617 37.639 27.9975 36.7992 25.4037 37.3317C22.1994 37.9883 19.6634 40.5331 18.6173 44.1405C18.4427 44.7416 18.3361 45.3272 18.2933 45.8913C18.0036 43.8075 18.3962 40.9009 20.313 36.8996L18.8254 36.1878C15.3548 43.4317 16.51 47.6253 18.0906 49.8682C18.6322 50.6369 19.3142 51.2912 20.0968 51.8139C21.7703 52.9319 23.9057 53.4516 26.1226 53.2152C29.0451 52.9039 31.4605 51.3102 32.427 49.0546L32.4285 49.0523ZM20.2017 44.5949C21.0732 41.5887 23.1399 39.4785 25.7311 38.9474C27.2273 38.6413 28.6981 38.914 29.8233 39.6657C30.1958 39.9146 30.5299 40.2162 30.8148 40.5651C31.5093 41.4184 31.8806 42.4946 31.9302 43.7389C31.4429 45.6866 30.7604 47.419 29.8123 48.7209C28.0812 51.1017 24.6161 51.4046 22.3995 50.3196C20.2521 49.2696 19.4515 47.1825 20.2024 44.5938L20.2017 44.5949Z" fill="#3D4F61"/>
<path opacity="0.05" d="M27.6875 51.9233C22.3492 53.6566 13.6295 50.073 19.1206 37.1027C19.1369 37.0639 19.1963 37.0828 19.1833 37.1237C18.0652 40.7359 16.5323 45.0193 18.7258 48.556C21.98 53.8025 30.5337 52.3267 32.0552 47.2539C36.2968 33.1221 17.5997 38.0011 19.6397 46.5585C19.7133 46.8671 19.2305 46.9628 19.1581 46.6549C17.1846 38.3999 32.738 33.5675 33.1678 43.0469C33.365 47.3967 31.8452 50.5739 27.6875 51.9233Z" fill="white"/>
<path opacity="0.05" d="M33.9098 39.7154C34.6715 36.8712 33.6583 22.0551 33.4924 24.1582C33.165 28.3001 33.7757 34.1966 33.6853 37.2922C33.6044 40.0672 33.0526 40.0222 32.9713 41.0653C32.944 41.4171 33.503 41.2314 33.9087 39.7146L33.9098 39.7154Z" fill="white"/>
<path d="M23.8845 54.4122C22.6556 53.5912 21.7041 52.5108 21.1055 51.2473C20.9807 50.985 20.8736 50.7171 20.7821 50.444C20.4178 50.0912 20.0636 49.7207 19.7214 49.3323C17.7046 47.0432 15.2047 43.1178 14.7434 37.4178L16.5276 37.27C16.9005 41.8979 18.7408 45.2402 20.4358 47.3907C20.4824 46.8589 20.5807 46.3198 20.7314 45.7776C21.5859 42.7151 23.8048 40.59 26.8188 39.9483C29.8837 39.2954 33.1825 40.3609 35.0265 42.6023C36.8534 44.8201 37.0969 47.8377 35.7154 51.0973C35.5743 51.4305 35.4104 51.7433 35.2262 52.032C35.6487 51.6748 36.0564 51.2695 36.4474 50.8113C42.1086 44.1795 45.9107 35.0877 47.2654 30.7624L48.9731 31.295C47.5776 35.7512 43.6559 45.121 37.8073 51.9734C33.8161 56.6504 28.1985 56.7588 24.6691 54.8807C24.3981 54.7361 24.1363 54.5804 23.8869 54.4138L23.8845 54.4122ZM22.3689 49.4727C24.3595 51.2872 26.6736 52.5186 28.8042 52.8593C30.2795 53.0959 32.9261 53.0898 34.0685 50.3985C35.4902 47.0476 34.6235 44.9291 33.6446 43.7418C32.213 42.0017 29.6172 41.1817 27.1872 41.6992C25.8125 41.992 23.3685 42.9745 22.4543 46.2561C22.1195 47.4555 22.1275 48.5312 22.3689 49.4727Z" fill="#4A6075"/>
<path opacity="0.05" d="M47.0073 34.3624C38.0609 51.8092 35.8591 55.0508 28.3112 54.5109C26.8845 54.4093 25.3971 54.2011 24.1292 53.4983C19.4759 50.9198 21.0201 42.742 25.6763 41.0357C29.8621 39.5017 36.2967 43.0008 35.7124 47.8442C35.0708 53.1654 28.6313 55.1609 24.1162 51.0726C23.8198 50.8051 23.3412 51.21 23.64 51.4843C27.4464 54.9827 33.3987 54.3681 35.5166 50.0192C37.9651 44.9911 33.264 40.6465 28.4076 40.2695C22.6067 39.8192 19.6606 46.4124 21.403 50.9526C23.2421 55.745 31.9143 56.1359 35.8526 52.9839C40.8915 48.9529 48.1636 32.1096 47.0073 34.3624Z" fill="white"/>
<path opacity="0.05" d="M20.0469 47.9598C19.7708 46.8806 17.2712 45.5427 15.8099 38.8063C15.5993 37.8367 15.426 41.8495 18.2942 46.2747C18.6852 46.8782 19.1712 47.8405 19.8553 48.1273C19.9553 48.1697 20.0723 48.062 20.0457 47.959L20.0469 47.9598Z" fill="white"/>
<g style="mix-blend-mode:multiply" opacity="0.2">
<path d="M34.7508 52.0793C31.4279 54.1724 26.7796 53.8161 24.9912 52.8126C23.8348 52.1635 23.4038 50.9164 22.6963 49.8808C22.5674 49.6922 22.3009 49.9016 22.379 50.0911C23.5584 52.9536 25.4578 53.6196 28.3558 53.8161C33.031 54.1346 35.0364 51.8983 34.7508 52.0793Z" fill="#4A6075"/>
</g>
<g style="mix-blend-mode:multiply" opacity="0.2">
<path d="M20.3857 49.4876C20.0693 47.7471 20.3277 48.0223 20.1878 47.5465C20.1281 47.3451 19.8324 47.5437 19.9934 48.5201C20.103 49.1841 20.4048 49.5837 20.3869 49.4884L20.3857 49.4876Z" fill="#4A6075"/>
</g>
<g style="mix-blend-mode:multiply" opacity="0.2">
<path d="M47.662 33.917C47.5249 33.8133 46.8262 33.6159 46.5884 33.676C46.1336 33.7909 47.228 34.2579 47.5993 34.2314C47.7614 34.2198 47.7695 33.9975 47.6628 33.9158L47.662 33.917Z" fill="#4A6075"/>
</g>
<path d="M33.8384 8.7683L32.6065 8.80236C32.2283 8.81281 31.9296 9.12809 31.9393 9.50654L31.9991 11.8361C32.0088 12.2145 32.3232 12.5129 32.7014 12.5024L33.9333 12.4683C34.3115 12.4579 34.6101 12.1426 34.6004 11.7642L34.5407 9.43462C34.531 9.05616 34.2165 8.75784 33.8384 8.7683Z" fill="#7A7A7A"/>
<path d="M34.2094 23.2919L32.9775 23.3259C32.5994 23.3364 32.3007 23.6516 32.3104 24.0301L32.3701 26.3596C32.3798 26.7381 32.6943 27.0364 33.0724 27.026L34.3043 26.9919C34.6825 26.9815 34.9812 26.6662 34.9715 26.2877L34.9117 23.9582C34.902 23.5797 34.5876 23.2814 34.2094 23.2919Z" fill="#7A7A7A"/>
<path d="M33.5946 25.1899C36.3101 25.1149 38.4275 21.7845 38.3241 17.7514C38.2206 13.7182 35.9354 10.5096 33.22 10.5846C30.5045 10.6597 28.3871 13.9901 28.4905 18.0232C28.594 22.0564 30.8792 25.265 33.5946 25.1899Z" fill="#9C9C9C"/>
<path d="M33.5954 25.1867C31.636 25.2408 29.9002 23.586 29.0481 21.1453C29.9809 23.0757 31.5151 24.3202 33.2185 24.2738C35.934 24.1977 38.0524 20.868 37.9477 16.8355C37.919 15.7101 37.7203 14.6501 37.3898 13.7067C37.9455 14.8526 38.2876 16.2432 38.3259 17.7492C38.4297 21.783 36.3122 25.1114 33.5967 25.1875L33.5954 25.1867Z" fill="#7A7A7A"/>
<path opacity="0.1" d="M31.7631 23.3815C29.0763 20.5327 29.7004 15.2923 31.305 13.085C32.1787 11.8828 32.9773 12.042 33.6524 11.7463C34.5348 11.36 32.8457 9.76607 30.8614 11.8297C28.5329 14.2499 27.7171 21.31 31.742 23.4046C31.757 23.4128 31.7768 23.3943 31.7631 23.3815Z" fill="white"/>
<path opacity="0.05" d="M33.886 9.09626C33.5882 8.96065 32.5873 8.96799 32.4039 9.11736C32.0534 9.40278 32.2428 10.5963 32.3389 10.3886C32.6222 9.7697 32.4401 9.45255 32.8279 9.39502C33.2007 9.3405 33.5318 9.504 33.9031 9.3572C34.0292 9.30741 33.9862 9.14089 33.886 9.09626Z" fill="white"/>
<path opacity="0.05" d="M34.2542 25.1573C34.0823 25.1337 32.9741 25.1904 32.7325 25.2432C32.6279 25.2664 32.9693 25.4256 33.5302 25.426C34.508 25.4255 34.3781 25.1749 34.2546 25.1595L34.2542 25.1573Z" fill="white"/>
<path opacity="0.05" d="M34.4012 26.317C33.8829 26.0136 33.2314 26.299 33.1047 26.1772C33.0251 26.1016 32.8355 25.448 32.8149 25.6931C32.669 27.5192 35.0784 26.7135 34.3999 26.3162L34.4012 26.317Z" fill="white"/>
<path d="M53.7178 27.9609L43.426 27.8976L45.4928 21.3374L51.7482 21.3781L53.7178 27.9609Z" fill="#303E4D"/>
<path d="M53.2296 25.8346L43.9454 25.7762C43.388 25.7727 42.9328 26.2226 42.9287 26.7811L42.8902 32.0377C42.8861 32.5962 43.3347 33.0517 43.8921 33.0552L53.1763 33.1136C53.7337 33.1171 54.1889 32.6673 54.193 32.1088L54.2315 26.8521C54.2356 26.2937 53.787 25.8381 53.2296 25.8346Z" fill="#3D4F61"/>
<path d="M52.7311 23.2935C57.0909 21.0374 58.8034 15.6696 56.5561 11.3042C54.3088 6.93882 48.9526 5.22887 44.5928 7.48495C40.233 9.74103 38.5205 15.1088 40.7679 19.4742C43.0152 23.8396 48.3713 25.5496 52.7311 23.2935Z" fill="#3D4F61"/>
<path d="M52.3744 21.8372C55.9291 19.7799 57.1491 15.2269 55.0993 11.6678C53.0494 8.10875 48.5061 6.89135 44.9514 8.94869C41.3966 11.006 40.1767 15.559 42.2265 19.1181C44.2763 22.6772 48.8197 23.8945 52.3744 21.8372Z" fill="white"/>
<path d="M48.6098 22.8368C45.6224 22.8163 43.0613 21.0381 41.9012 18.4844C43.2394 20.3555 45.42 21.5827 47.8967 21.5987C52.0004 21.6253 55.3521 18.3141 55.3808 14.2024C55.3886 13.0818 55.1516 12.021 54.7129 11.062C55.5923 12.2951 56.1044 13.8078 56.0922 15.4376C56.0614 19.5488 52.7112 22.8628 48.6082 22.834L48.6098 22.8368Z" fill="#D3EBED"/>
<path d="M50.1901 9.07005L49.8904 10.3558C48.4032 9.87695 46.721 10.0289 45.2837 10.9129C42.7079 12.4987 41.8762 15.8493 43.3869 18.4497L43.0413 18.6479C41.2873 15.6088 42.263 11.7035 45.2684 9.85235C46.8018 8.90898 48.5688 8.67815 50.1901 9.07005Z" fill="#019FAC"/>
<path d="M54.181 11.9642L52.9159 12.7337C52.1951 11.5597 51.1061 10.748 49.8898 10.3583L50.1895 9.07251C51.791 9.45911 53.2461 10.454 54.1826 11.967L54.181 11.9642Z" fill="#EF5736"/>
<g filter="url(#filter0_d_552_1303)">
<path d="M48.5386 17.7505L47.1519 17.2135L50.7514 9.96747L48.5386 17.7505Z" fill="#3D4F61"/>
<path d="M49.6402 15.7437C49.4319 16.2835 48.8243 16.5532 48.2857 16.3451C47.7471 16.137 47.4786 15.5285 47.6869 14.9887C47.8952 14.449 48.5028 14.1793 49.0414 14.3874C49.5799 14.5955 49.8485 15.204 49.6402 15.7437Z" fill="#3D4F61"/>
<path d="M49.1038 15.5362C49.01 15.7805 48.7349 15.9006 48.4912 15.8069C48.2474 15.7132 48.1278 15.4377 48.2216 15.1934C48.3153 14.9491 48.5904 14.829 48.8342 14.9227C49.078 15.0164 49.1975 15.2919 49.1038 15.5362Z" fill="white"/>
</g>
<path opacity="0.05" d="M52.3198 8.03143C51.1869 6.84632 48.0162 6.84993 46.4021 7.28481C39.3432 9.18666 38.1498 18.7366 43.5559 21.9293C44.0833 22.2408 38.151 17.1652 41.8594 11.2648C45.3653 5.68821 51.6308 8.34077 52.1727 8.38672C52.3593 8.4036 52.4338 8.15178 52.3198 8.03143Z" fill="white"/>
<path opacity="0.05" d="M56.8821 14.2502C56.5605 17.149 56.9519 20.6525 50.3802 23.3679C50.0111 23.5219 53.1277 23.4471 55.5525 20.4004C58.5321 16.6563 57.0354 12.8685 56.8821 14.2502Z" fill="white"/>
<path opacity="0.05" d="M53.4788 26.5027C52.1332 26.1469 50.4946 26.3649 49.1055 26.3472C45.1797 26.2997 43.761 25.6619 43.5924 27.8667C43.4933 29.1519 43.3382 30.734 43.825 31.954C44.0216 32.4439 44.1387 28.9963 44.1397 28.9753C44.1839 28.2734 44.0053 27.162 44.924 26.9284C45.4203 26.8014 52.274 27.241 53.4808 26.9618C53.7122 26.9079 53.7011 26.5623 53.4805 26.5055L53.4788 26.5027Z" fill="white"/>
<path opacity="0.05" d="M53.5139 30.7991C53.464 30.5541 53.0841 30.5634 53.0297 30.8017C52.8509 31.5834 53.016 31.8829 52.5691 31.834C52.0361 32.0103 50.5537 31.6982 47.5186 32.3928C47.3777 32.4259 47.6364 32.3582 52.4957 32.4076C53.4273 32.4161 53.6884 31.6707 53.5117 30.7985L53.5139 30.7991Z" fill="white"/>
<path opacity="0.05" d="M50.7434 27.8303C49.6664 28.2673 49.2985 29.1211 46.3459 30.2822C46.0032 30.4172 47.4559 30.2676 48.8288 29.624C51.1139 28.5511 51.148 27.6669 50.7434 27.8303Z" fill="white"/>
<path opacity="0.05" d="M51.3634 28.9846C50.9548 29.1895 50.5943 29.5136 50.1904 29.7362C49.8276 29.9368 49.406 30.0933 49.0891 30.3605C48.9186 30.5039 50.7793 30.5133 51.5769 29.2002C51.6617 29.0598 51.4988 28.9193 51.3634 28.9846Z" fill="white"/>
<path opacity="0.05" d="M51.2439 25.0646C50.4699 24.8903 44.2499 24.559 45.5496 24.7868C45.9574 24.8582 50.3339 25.4329 51.2018 25.389C51.381 25.3803 51.4333 25.1059 51.2445 25.0624L51.2439 25.0646Z" fill="white"/>
<path opacity="0.05" d="M49.5929 12.7602C49.6269 12.5803 48.9954 14.0395 48.9879 14.0587C48.9255 14.2122 49.2857 14.3465 49.5929 12.7602Z" fill="white"/>
<path opacity="0.05" d="M47.9018 16.8708C48.7952 15.2619 47.252 16.9637 47.5889 17.132C47.8991 17.286 48.1552 17.4303 48.2947 17.2266C48.3758 17.1088 48.3384 16.905 47.9018 16.8708Z" fill="white"/>
<path d="M26.9481 38.359L9.65074 38.8388C6.90807 38.9148 4.62712 36.7515 4.55654 34.0067L4.20161 20.1831C4.13102 17.4384 6.29708 15.1513 9.03975 15.0753L26.3374 14.5971C26.7311 14.5862 27.0584 14.8966 27.0685 15.2907L27.6431 37.625C27.6532 38.0191 27.3424 38.3472 26.9487 38.3581L26.9481 38.359Z" fill="#D1D1D1"/>
<path d="M27.6431 37.625L27.6263 36.9687L9.75594 37.4638C7.55807 37.5245 5.72972 35.7903 5.67239 33.5902L5.33805 20.5361C5.28165 18.3365 7.01799 16.5033 9.21648 16.4416L27.0863 15.9475L27.0695 15.2913C27.0594 14.8972 26.7321 14.5868 26.3383 14.5977L9.04008 15.0769C6.29741 15.1529 4.13135 17.4399 4.20194 20.1847L4.55749 34.0073C4.62808 36.7521 6.90902 38.9154 9.65169 38.8394L26.949 38.3597C27.3428 38.3487 27.6535 38.0206 27.6434 37.6265L27.6431 37.625Z" fill="#ADADAD"/>
<path opacity="0.05" d="M26.3724 15.1455C25.4033 14.8909 11.7164 15.2212 11.6484 15.2243C5.09774 15.5337 4.73127 19.4831 4.92978 19.0327C6.99008 14.358 12.7955 15.525 23.4317 15.5886C24.3854 15.5941 25.4203 15.7241 26.3519 15.4786C26.5055 15.4382 26.5507 15.1931 26.3733 15.1462L26.3724 15.1455Z" fill="white"/>
<path opacity="0.05" d="M30.6256 36.7311C27.8681 36.1297 10.7594 37.2691 8.86252 37.1106C4.21508 36.7219 3.28622 33.627 3.29975 33.6691C5.04052 39.2785 13.1809 37.156 23.6239 37.2789C29.346 37.3463 29.6989 37.3423 30.5992 37.1652C30.8065 37.1248 30.854 36.7812 30.6268 36.7319L30.6256 36.7311Z" fill="white"/>
<path opacity="0.05" d="M4.73686 36.8538C5.79229 38.4403 6.7886 40.1799 8.08192 41.5858C11.0117 44.7704 -5.09934 22.0841 4.73686 36.8538Z" fill="white"/>
</g>
<defs>
<filter id="filter0_d_552_1303" x="47.1519" y="9.96753" width="7.13955" height="9.55296" filterUnits="userSpaceOnUse" color-interpolation-filters="sRGB">
<feFlood flood-opacity="0" result="BackgroundImageFix"/>
<feColorMatrix in="SourceAlpha" type="matrix" values="0 0 0 0 0 0 0 0 0 0 0 0 0 0 0 0 0 0 127 0" result="hardAlpha"/>
<feOffset dx="3.54" dy="1.77"/>
<feColorMatrix type="matrix" values="0 0 0 0 0.870588 0 0 0 0 0.905882 0 0 0 0 0.933333 0 0 0 0.75 0"/>
<feBlend mode="normal" in2="BackgroundImageFix" result="effect1_dropShadow_552_1303"/>
<feBlend mode="normal" in="SourceGraphic" in2="effect1_dropShadow_552_1303" result="shape"/>
</filter>
<clipPath id="clip0_552_1303">
<rect width="60" height="60" fill="white"/>
</clipPath>
</defs>
</svg>
