<svg width="60" height="60" viewBox="0 0 60 60" fill="none" xmlns="http://www.w3.org/2000/svg">
<rect width="60" height="60" fill="white"/>
<path d="M29.6759 8C20.6364 17.0395 15 30.2113 15 38.3241C15 46.4369 21.5631 53 29.6759 53C37.7887 53 44.3518 46.4369 44.3518 38.3241C44.3518 30.2113 38.7306 17.0547 29.6759 8Z" fill="#F06060"/>
<g style="mix-blend-mode:multiply" opacity="0.5">
<path d="M33.5803 42.8514C25.4828 42.8514 18.9045 36.2882 18.9045 28.1755C18.9045 26.2764 19.2235 24.0887 19.816 21.7339C16.7471 27.7653 15 33.8119 15 38.2936C15 46.3912 21.5631 52.9695 29.6759 52.9695C37.7887 52.9695 44.3518 46.4064 44.3518 38.2936C44.3518 38.2329 44.3518 38.1721 44.3518 38.1113C41.6779 41.0131 37.8494 42.8362 33.5803 42.8362V42.8514Z" fill="#F06060"/>
</g>
<path opacity="0.2" d="M37.3481 21.8554C35.1908 17.799 32.1219 15.2011 30.4963 16.0519C28.8707 16.9026 29.2961 20.9134 31.4534 24.9698C33.6108 29.0414 36.6796 31.6241 38.29 30.7733C39.9156 29.9074 39.4902 25.9118 37.3329 21.8554H37.3481Z" fill="white"/>
<path opacity="0.2" d="M30.9825 30.044C30.9825 31.1378 30.1013 32.019 29.0075 32.019C27.9136 32.019 27.0324 31.1378 27.0324 30.044C27.0324 28.9501 27.9136 28.069 29.0075 28.069C30.1013 28.069 30.9825 28.9501 30.9825 30.044Z" fill="white"/>
<path opacity="0.2" d="M35.5858 33.3559C35.5858 34.0092 35.054 34.5409 34.4008 34.5409C33.7475 34.5409 33.2158 34.0092 33.2158 33.3559C33.2158 32.7026 33.7475 32.1709 34.4008 32.1709C35.054 32.1709 35.5858 32.7026 35.5858 33.3559Z" fill="white"/>
<circle cx="41.5" cy="43.5" r="9.5" fill="#FF6464" stroke="white" stroke-width="2"/>
<path d="M41.1328 45.7188C41.6875 45.7188 41.9922 45.4141 42.1094 44.8906C42.2109 44.2344 42.4453 43.8984 43.4844 43.2969C44.5859 42.6484 45.1562 41.8438 45.1562 40.6641C45.1562 38.8438 43.6641 37.625 41.4453 37.625C39.7656 37.625 38.5156 38.2891 38.0156 39.3203C37.8594 39.6172 37.7812 39.9141 37.7812 40.25C37.7812 40.8438 38.1641 41.2266 38.7812 41.2266C39.2578 41.2266 39.6094 41.0078 39.8047 40.5078C40.0547 39.8125 40.5703 39.4375 41.3359 39.4375C42.1953 39.4375 42.7891 39.9688 42.7891 40.7344C42.7891 41.4531 42.4844 41.8438 41.4766 42.4453C40.5547 42.9844 40.0781 43.5938 40.0781 44.5156V44.625C40.0781 45.2656 40.4688 45.7188 41.1328 45.7188ZM41.1484 49.1953C41.8594 49.1953 42.4297 48.6562 42.4297 47.9688C42.4297 47.2812 41.8594 46.7422 41.1484 46.7422C40.4453 46.7422 39.875 47.2812 39.875 47.9688C39.875 48.6562 40.4453 49.1953 41.1484 49.1953Z" fill="white"/>
</svg>
