<svg width="60" height="60" viewBox="0 0 60 60" fill="none" xmlns="http://www.w3.org/2000/svg">
<rect width="60" height="60" fill="white"/>
<path d="M18.9249 28.3079C18.9249 28.3079 23.6767 28.1693 26.0735 33.4363C28.4702 38.7032 26.9023 45.5281 26.9023 45.5281H25.6826C25.6826 45.5281 25.3581 38.5657 24.346 37.0302C23.3338 35.4947 21.31 34.9767 19.9962 34.5303C18.6824 34.084 18.9249 28.3074 18.9249 28.3074V28.3079Z" fill="#FF757F"/>
<path d="M20.0205 27.1962C20.0205 27.1962 22.5394 28.2093 24.2189 27.9561C25.8984 27.703 28.753 27.2806 29.173 27.8717C29.593 28.4629 30.1808 29.5609 29.2569 29.7296C28.333 29.8984 26.4018 29.6453 25.4784 29.6453C24.555 29.6453 19.6849 30.2364 19.6849 30.2364L20.021 27.1962H20.0205Z" fill="#FF757F"/>
<path d="M19.02 30.2457C19.02 30.2457 21.4696 29.7813 22.3755 29.835C23.2805 29.8887 24.346 29.9067 25.4998 30.1564C26.6535 30.4062 27.3815 30.6028 27.8965 30.6208C28.4116 30.6384 29.4766 30.853 29.2457 31.5851C29.0149 32.3173 28.8548 32.567 27.9319 32.4246C27.0085 32.2817 26.2098 31.8354 25.0027 31.8354C23.7955 31.8354 21.6296 31.7105 20.2804 31.7636C18.9312 31.8173 19.02 30.2462 19.02 30.2462V30.2457Z" fill="#FF757F"/>
<path d="M20.7756 27.703C20.7756 27.703 26.3174 25.7607 25.2262 20.4401C24.1345 15.1195 20.1039 8.78581 8.93625 16.8087C-2.23184 24.8315 2.21881 42.1439 7.50848 47.3802C12.7986 52.6164 18.5927 50.2517 20.6078 47.0426C22.6233 43.8336 22.5389 37.5838 20.6078 35.6415C20.6078 35.6415 21.6994 28.7166 20.7756 27.703Z" fill="#FF757F"/>
<path d="M41.0756 28.308C41.0756 28.308 36.3233 28.1695 33.927 33.4364C31.5302 38.7033 33.0987 45.5282 33.0987 45.5282H34.3184C34.3184 45.5282 34.6428 38.5658 35.6545 37.0303C36.6667 35.4948 38.69 34.9768 40.0038 34.5305C41.3176 34.0842 41.0751 28.3075 41.0751 28.3075L41.0756 28.308Z" fill="#FF757F"/>
<path d="M39.9796 27.1963C39.9796 27.1963 37.4606 28.2094 35.7811 27.9562C34.1016 27.7031 31.2465 27.2807 30.827 27.8719C30.4075 28.463 29.8192 29.561 30.7431 29.7298C31.6665 29.8985 33.5982 29.6454 34.5221 29.6454C35.446 29.6454 40.3161 30.2366 40.3161 30.2366L39.98 27.1963H39.9796Z" fill="#FF757F"/>
<path d="M40.9805 30.2458C40.9805 30.2458 38.5304 29.7815 37.625 29.8351C36.7195 29.8888 35.6545 29.9068 34.5007 30.1566C33.347 30.4063 32.619 30.6029 32.104 30.6209C31.5889 30.6385 30.5239 30.8531 30.7548 31.5852C30.9856 32.3174 31.1452 32.5671 32.0686 32.4247C32.9915 32.2818 33.7907 31.8355 34.9978 31.8355C36.205 31.8355 38.3709 31.7106 39.7201 31.7638C41.0693 31.8174 40.9805 30.2463 40.9805 30.2463V30.2458Z" fill="#FF757F"/>
<path d="M39.2244 27.703C39.2244 27.703 33.6826 25.7607 34.7738 20.4401C35.8655 15.1195 39.8961 8.78581 51.0637 16.8087C62.2318 24.8315 57.7812 42.1444 52.4915 47.3806C47.2014 52.6169 41.4073 50.2522 39.3922 47.0431C37.3767 43.8341 37.4611 37.5843 39.3922 35.642C39.3922 35.642 38.3006 28.7171 39.2244 27.7035V27.703Z" fill="#FF757F"/>
</svg>
