<svg width="60" height="60" viewBox="0 0 60 60" fill="none" xmlns="http://www.w3.org/2000/svg">
<path d="M56.0651 25.9972C55.797 26.7066 55.2445 28.0275 54.1882 29.8539C53.9201 30.3187 53.6195 30.8161 53.2864 31.3461C50.9139 35.0886 46.762 40.3722 39.6851 46.5446L30.0001 55L20.307 46.5446C13.8476 40.9104 9.83383 36.0182 7.38008 32.3653C7.02258 31.8353 6.7057 31.3379 6.4132 30.8732C4.96695 28.5167 4.24383 26.8371 3.93508 25.9972C1.0832 18.3327 4.97508 9.7958 12.6126 6.93385C19.1288 4.50404 26.2626 6.97462 29.992 12.5028C33.7213 6.97462 40.8632 4.50404 47.3713 6.93385C55.0251 9.78765 58.917 18.3246 56.0651 25.9972Z" fill="#FF6464"/>
<path fill-rule="evenodd" clip-rule="evenodd" d="M21.0181 17.4449L15.3034 23.1944C14.8183 23.6824 14.0633 23.7778 13.4721 23.4258L4.16258 17.8828C3.68804 17.6002 3.5324 16.9865 3.81494 16.512C4.09749 16.0374 4.71122 15.8818 5.18576 16.1643L14.16 21.5076L21.3009 14.3233C22.4486 13.1686 24.3557 14.4128 23.7612 15.9285L21.0181 17.4449ZM21.0181 17.4449L16.2792 29.5268C15.6805 31.0532 17.6143 32.2959 18.754 31.1172L24.7276 24.9392L23.4082 28.7464C22.9386 30.1012 24.4554 31.2794 25.6519 30.4893L26.7438 29.7684L38.2998 36.148L35.9296 36.9498C35.4064 37.1268 35.1258 37.6944 35.3027 38.2176C35.4797 38.7407 36.0473 39.0214 36.5704 38.8444L41.4006 37.2104C41.6547 37.1244 41.8636 36.94 41.9804 36.6985C42.0972 36.457 42.112 36.1787 42.0216 35.9261L40.1376 30.663C39.9515 30.143 39.3791 29.8724 38.8591 30.0585C38.3392 30.2446 38.0685 30.817 38.2547 31.337L39.3706 34.4547L27.4456 27.8714C26.9573 27.6018 26.3596 27.6254 25.8942 27.9328L25.7809 28.0076L27.3582 23.4562C27.8842 21.9385 25.9791 20.7676 24.8626 21.9223L19.054 27.9297L23.7612 15.9285" fill="white"/>
</svg>
