<svg width="60" height="60" viewBox="0 0 60 60" fill="none" xmlns="http://www.w3.org/2000/svg">
    <path
        d="M56.0651 25.9972C55.797 26.7066 55.2445 28.0275 54.1882 29.8539C53.9201 30.3187 53.6195 30.8161 53.2864 31.3461C50.9139 35.0886 46.762 40.3722 39.6851 46.5446L30.0001 55L20.307 46.5446C13.8476 40.9104 9.83383 36.0181 7.38008 32.3653C7.02258 31.8353 6.7057 31.3379 6.4132 30.8732C4.96695 28.5167 4.24383 26.8371 3.93508 25.9972C1.0832 18.3327 4.97508 9.7958 12.6126 6.93385C19.1288 4.50404 26.2626 6.97462 29.992 12.5028C33.7213 6.97462 40.8632 4.50404 47.3713 6.93385C55.0251 9.78765 58.917 18.3246 56.0651 25.9972Z"
        fill="#FF6464" />
    <path fill-rule="evenodd" clip-rule="evenodd"
        d="M21.5369 24.0564L23.6587 31.8802C23.8388 32.5443 23.5439 33.2458 22.9435 33.5818L13.4883 38.8726C13.0064 39.1423 12.397 38.9702 12.1274 38.4883C11.8577 38.0063 12.0297 37.397 12.5117 37.1273L21.6263 32.0271L18.9749 22.2507C18.5488 20.6794 20.5798 19.6499 21.5952 20.9226L29.6349 30.9997L27.3367 22.9657C26.8949 21.4213 28.8615 20.3569 29.9129 21.5713L33.0658 25.213L33.0577 25.0775C33.0243 24.5207 33.3026 23.9914 33.7802 23.7032L45.4835 16.6437C45.9564 16.3584 46.571 16.5105 46.8563 16.9834C47.1416 17.4564 46.9894 18.071 46.5165 18.3562L35.0722 25.2596L35.1506 26.5656C35.2365 27.9968 33.4578 28.7213 32.5193 27.6373L29.8819 24.591L32.2454 32.8533C32.6963 34.4296 30.6533 35.483 29.6307 34.2013L21.5369 24.0564Z"
        fill="white" />
    <path fill-rule="evenodd" clip-rule="evenodd"
        d="M39.5161 16.3212C39.6149 15.7778 40.1355 15.4174 40.6789 15.5162L46.1789 16.5162C46.4428 16.5642 46.6764 16.7162 46.8271 16.9381C46.9779 17.16 47.0332 17.4331 46.9806 17.6962L45.9806 22.6962C45.8723 23.2377 45.3454 23.5889 44.8039 23.4806C44.2623 23.3723 43.9111 22.8455 44.0194 22.3039L44.8198 18.3019L40.3211 17.4839C39.7777 17.3851 39.4173 16.8645 39.5161 16.3212Z"
        fill="white" />
</svg>
