<svg width="60" height="60" viewBox="0 0 60 60" fill="none" xmlns="http://www.w3.org/2000/svg">
<rect width="60" height="60" fill="white"/>
<path d="M29.0835 57V50.1931C28.4326 50.2335 25.6814 50.3975 22.871 50.3975C16.325 50.3975 15.8355 49.5369 15.6741 49.2545C15.1363 48.3106 13.9207 43.9968 12.8799 38.6475C12.4334 38.6771 12.0085 38.6933 11.6185 38.6933C10.1555 38.6933 9.32716 38.4889 9.08242 38.0693C8.8081 37.5987 9.24647 35.2589 9.98337 31.4776C10.5428 28.608 11.121 25.6389 11.1291 24.2404V24.1248C11.1237 24.071 11.121 24.0172 11.121 23.9634C11.121 12.9557 20.0767 4 31.0844 4C42.0921 4 51.0478 12.9557 51.0478 23.9634C51.0478 28.2853 50.1253 32.4942 49.3131 36.2056C48.6677 39.1585 48.1083 41.7081 48.1083 43.7924V56.9946H29.0835V57Z" fill="url(#paint0_linear_553_1687)"/>
<path d="M46.2795 15.5241C46.8658 15.8549 47.3472 16.3579 47.6511 16.9764C48.1029 17.8962 48.1083 18.9746 47.6699 19.8998C47.3284 20.6179 46.7502 21.188 46.0429 21.5107C46.2311 21.9088 46.3467 22.3418 46.3736 22.7936C46.4463 23.9043 45.9944 24.9854 45.1473 25.7116C44.3028 26.4377 43.1679 26.7282 42.0814 26.4888C41.3498 26.3301 40.699 25.9483 40.2095 25.4077C39.9325 25.76 39.5802 26.0558 39.1661 26.2737C38.2167 26.7685 37.106 26.7578 36.1835 26.2844C35.5381 27.1074 34.5457 27.6318 33.4403 27.6614C32.3646 27.691 31.3695 27.2392 30.6837 26.4861C29.9199 27.6748 28.5026 28.3122 27.0745 28.0567C26.1305 27.8873 25.3237 27.3521 24.7993 26.6098C23.745 26.903 22.6074 26.5507 21.9055 25.6981C21.5424 25.2571 21.3326 24.73 21.2842 24.1867C20.663 24.1168 20.0686 23.864 19.5792 23.4552C18.9122 22.8985 18.4953 22.0943 18.4254 21.2284C18.3904 20.7846 18.4442 20.3435 18.5868 19.9294C17.2232 19.0715 16.4864 17.4282 16.844 15.7796C17.1802 14.2332 18.3904 13.0929 19.8562 12.781C19.8185 11.6514 20.2972 10.5407 21.1928 9.78765C22.0588 9.05882 23.183 8.77375 24.2587 8.95931C24.3663 8.23049 24.6971 7.53931 25.2161 6.99067C26.0176 6.1462 27.1713 5.73741 28.3278 5.88802C29.4815 6.03863 30.4901 6.73249 31.0468 7.75715C31.1758 7.99382 31.2754 8.24124 31.3507 8.49674C31.8912 7.88624 32.6954 7.53662 33.5506 7.5931C34.1772 7.63344 34.7447 7.88624 35.1857 8.28427C36.2588 7.38332 37.7918 7.18162 39.0881 7.84321C40.2257 8.42412 40.9303 9.54829 41.0164 10.7585C42.31 10.5998 43.6412 10.9844 44.6632 11.8692C45.7363 12.7998 46.3091 14.1445 46.2795 15.5188V15.5241Z" fill="url(#paint1_linear_553_1687)"/>
<path d="M43.2136 25.3646C42.4821 25.206 41.8312 24.8241 41.3418 24.2835C41.0648 24.6358 40.7125 24.9316 40.2983 25.1495C39.3489 25.6443 38.2382 25.6336 37.3157 25.1602C36.6703 25.9832 35.6779 26.5076 34.5726 26.5372C33.4968 26.5668 32.5017 26.115 31.8159 25.3619C31.0521 26.5507 29.6348 27.188 28.2068 26.9325C27.2628 26.7631 26.456 26.2279 25.9315 25.4857C24.8773 25.7788 23.7397 25.4265 23.0377 24.5739C22.6747 24.1329 22.4649 23.6058 22.4165 23.0625C21.7952 22.9926 21.2009 22.7398 20.7114 22.331C20.0444 21.7743 19.6276 20.9701 19.5576 20.1042C19.52 19.6604 19.5765 19.2194 19.719 18.8052C18.3555 17.9473 17.6186 16.304 17.9763 14.6554C18.0812 14.1767 18.2694 13.7357 18.5222 13.3457C17.6939 13.889 17.07 14.7442 16.844 15.785C16.4837 17.4336 17.2206 19.0768 18.5868 19.9347C18.4442 20.3489 18.3904 20.79 18.4254 21.2337C18.4953 22.0997 18.9095 22.9038 19.5792 23.4605C20.0659 23.8666 20.6603 24.1194 21.2842 24.1921C21.3353 24.7353 21.5424 25.2624 21.9055 25.7035C22.6074 26.5587 23.745 26.911 24.7993 26.6152C25.3264 27.3575 26.1305 27.8927 27.0745 28.0621C28.4999 28.3176 29.9172 27.6775 30.6837 26.4915C31.3695 27.2445 32.3646 27.6937 33.4403 27.6668C34.5457 27.6372 35.5381 27.1127 36.1835 26.2898C37.106 26.7631 38.2167 26.7739 39.1661 26.279C39.5802 26.0612 39.9325 25.7653 40.2095 25.413C40.6963 25.9536 41.3498 26.3355 42.0814 26.4942C43.1706 26.7308 44.3055 26.4431 45.1473 25.7169C45.4216 25.4803 45.6556 25.206 45.8411 24.9047C45.0639 25.3915 44.1199 25.5636 43.2109 25.3646H43.2136Z" fill="#FFC8AF" fill-opacity="0.17"/>
<path d="M30.525 26.5748C30.447 26.5748 30.369 26.5399 30.3152 26.4753C29.9414 26.0047 29.6859 25.4668 29.5595 24.8778C29.5299 24.7326 29.6214 24.5901 29.7666 24.5605C29.9118 24.5309 30.0544 24.6223 30.0839 24.7676C30.1915 25.2759 30.4121 25.7384 30.7348 26.1445C30.8262 26.2602 30.8074 26.4296 30.6918 26.5211C30.6433 26.5614 30.5842 26.5802 30.525 26.5802V26.5748Z" fill="#FFC8AF" fill-opacity="0.17"/>
<path d="M40.3413 25.5071C40.2902 25.5071 40.2364 25.4909 40.1907 25.4614C40.0697 25.378 40.0374 25.2112 40.1208 25.0902C40.5296 24.4932 40.7071 23.7724 40.6183 23.057C40.5995 22.9091 40.7044 22.7773 40.8523 22.7585C40.9975 22.7424 41.132 22.8446 41.1508 22.9925C41.253 23.837 41.0433 24.6895 40.5619 25.3941C40.5108 25.4694 40.4274 25.5098 40.3413 25.5098V25.5071Z" fill="#FFC8AF" fill-opacity="0.17"/>
<path d="M35.9038 26.3974C35.8554 26.3974 35.8043 26.3839 35.7586 26.3543C35.608 26.2575 35.4654 26.1473 35.331 26.0289C35.2207 25.9294 35.2126 25.76 35.3095 25.6497C35.409 25.5395 35.5784 25.5314 35.6887 25.6282C35.8016 25.7304 35.9226 25.8218 36.049 25.9052C36.1728 25.9859 36.2077 26.15 36.1297 26.2764C36.0786 26.3543 35.9926 26.4001 35.9038 26.4001V26.3974Z" fill="#FFC8AF" fill-opacity="0.17"/>
<path d="M45.9783 21.6532C45.8815 21.6532 45.7873 21.5994 45.7416 21.508C45.4861 21.0158 45.1016 20.5909 44.6363 20.2843C44.5126 20.2036 44.4776 20.0369 44.5583 19.9132C44.639 19.7895 44.8057 19.7545 44.9294 19.8352C45.4727 20.1929 45.9164 20.685 46.2177 21.2579C46.2849 21.3897 46.2338 21.551 46.1047 21.6183C46.0644 21.6398 46.024 21.6478 45.981 21.6478L45.9783 21.6532Z" fill="#FFC8AF" fill-opacity="0.17"/>
<path d="M42.5063 16.1076C42.4283 16.1076 42.3503 16.0727 42.2992 16.0081C42.2051 15.8925 42.2239 15.7257 42.3369 15.6316C42.6811 15.3519 43.0684 15.1394 43.4906 15.005C44.1092 14.8006 44.7735 14.7656 45.4082 14.9082C45.6179 14.9539 45.8277 15.0211 46.0267 15.1045C46.1639 15.161 46.2284 15.3196 46.1693 15.4541C46.1128 15.5913 45.9541 15.6558 45.8196 15.5966C45.6502 15.5267 45.4727 15.4702 45.2925 15.4299C44.7493 15.3089 44.1845 15.3385 43.6573 15.5133C43.297 15.6289 42.9689 15.8091 42.6757 16.0485C42.6273 16.0888 42.5655 16.1076 42.5063 16.1076Z" fill="#FFC8AF" fill-opacity="0.17"/>
<path d="M40.8093 19.55C40.8093 19.55 40.7851 19.55 40.7743 19.55C39.7147 19.4129 38.8003 18.7136 38.3888 17.7239C38.335 17.5922 38.292 17.4711 38.2624 17.3528C38.0204 16.4599 38.2086 15.4837 38.7707 14.7441C39.4162 13.8942 40.4758 13.4451 41.5381 13.5769C42.5009 13.6952 43.3534 14.2788 43.8133 15.1341C43.8833 15.2631 43.8348 15.4272 43.7031 15.4971C43.5713 15.567 43.4099 15.5186 43.34 15.3869C42.9608 14.6822 42.2642 14.2062 41.4709 14.1067C40.5968 13.9991 39.7254 14.3676 39.1956 15.0668C38.7331 15.6746 38.5771 16.4761 38.7788 17.213C38.8057 17.3098 38.8379 17.4093 38.8837 17.5169C39.2225 18.3291 39.9756 18.9019 40.8442 19.0175C40.9921 19.0364 41.0943 19.1708 41.0755 19.3188C41.0567 19.4532 40.9437 19.5527 40.8093 19.5527V19.55Z" fill="#FFC8AF" fill-opacity="0.17"/>
<path d="M24.6003 26.5667C24.5061 26.5667 24.4147 26.5183 24.3663 26.4296C24.0839 25.9267 23.9252 25.378 23.8903 24.7998C23.8822 24.6519 23.9925 24.5255 24.1404 24.5174C24.2883 24.5067 24.4147 24.6223 24.4228 24.7675C24.4524 25.2651 24.5895 25.7357 24.8316 26.1687C24.9042 26.2978 24.8585 26.4619 24.7294 26.5318C24.689 26.556 24.6433 26.5667 24.6003 26.5667Z" fill="#FFC8AF" fill-opacity="0.17"/>
<path d="M18.697 19.9266C18.6621 19.9266 18.6244 19.9185 18.5895 19.9051C18.455 19.8459 18.3931 19.6872 18.4523 19.5528C18.5921 19.2381 18.7777 18.945 19.0036 18.6787C19.1273 18.5362 19.2591 18.4071 19.3936 18.2941C19.9691 17.8047 20.6764 17.5196 21.4348 17.4712C21.5828 17.4604 21.7092 17.5734 21.7199 17.7213C21.728 17.8692 21.6177 17.9956 21.4698 18.0064C20.827 18.0467 20.2273 18.2887 19.7405 18.7029C19.6249 18.7997 19.5119 18.91 19.407 19.0283C19.2161 19.2515 19.0574 19.5017 18.9391 19.7679C18.896 19.8674 18.7965 19.9266 18.6943 19.9266H18.697Z" fill="#FFC8AF" fill-opacity="0.17"/>
<path d="M22.6343 20.0019C22.118 20.0019 21.6016 19.9158 21.1094 19.7491C20.9696 19.7007 20.8943 19.55 20.9427 19.4075C20.9911 19.2677 21.1444 19.1924 21.2815 19.2408C21.9727 19.4774 22.715 19.5285 23.4304 19.3887C23.7128 19.3349 23.9925 19.2461 24.2641 19.1332C25.1919 18.7352 25.945 18.0117 26.3806 17.1C26.6577 16.5164 26.7975 15.8683 26.7814 15.2228C26.7787 15.0749 26.8943 14.9512 27.0422 14.9485H27.0476C27.1928 14.9485 27.3112 15.0641 27.3139 15.2094C27.33 15.9382 27.174 16.6697 26.8594 17.3286C26.3672 18.3613 25.52 19.1762 24.4685 19.6254C24.1619 19.7544 23.8472 19.854 23.5272 19.9158C23.2287 19.975 22.9275 20.0046 22.6262 20.0046L22.6343 20.0019Z" fill="#FFC8AF" fill-opacity="0.17"/>
<path d="M26.8916 17.4954C26.7948 17.4954 26.698 17.49 26.6012 17.482C26.4533 17.4685 26.3457 17.3367 26.3618 17.1888C26.3753 17.0409 26.507 16.9333 26.655 16.9468C27.4591 17.0248 28.2498 16.7047 28.7742 16.0915C29.417 15.3358 29.5488 14.2762 29.1077 13.386C28.6666 12.4985 27.7415 11.966 26.7491 12.0225C25.7594 12.0817 24.9042 12.7217 24.5707 13.655C24.5196 13.7948 24.3663 13.8674 24.2291 13.8163C24.0893 13.7652 24.0167 13.6119 24.0678 13.4748C24.4739 12.3398 25.5147 11.5599 26.7195 11.4873C27.9217 11.4147 29.0512 12.0682 29.5891 13.1467C30.127 14.2278 29.9656 15.5187 29.183 16.4358C28.6102 17.1081 27.7711 17.49 26.897 17.49L26.8916 17.4954Z" fill="#FFC8AF" fill-opacity="0.17"/>
<path d="M20.0444 14.1174C19.9315 14.1174 19.8266 14.0448 19.7889 13.9319C19.6948 13.6468 19.6356 13.3537 19.606 13.0605C19.5926 12.9126 19.7002 12.7835 19.8481 12.7674C19.996 12.7539 20.1251 12.8615 20.1385 13.0094C20.1628 13.2649 20.2165 13.5177 20.2972 13.7651C20.3429 13.905 20.2649 14.0583 20.1251 14.1013C20.0982 14.1094 20.0686 14.1148 20.0417 14.1148L20.0444 14.1174Z" fill="#FFC8AF" fill-opacity="0.17"/>
<path d="M24.2829 10.4304C24.1565 10.4304 24.0435 10.3416 24.0193 10.2125C23.9414 9.7903 23.9333 9.36 23.9951 8.93507C24.0167 8.78984 24.1511 8.68765 24.299 8.70916C24.4443 8.73068 24.5465 8.86784 24.525 9.01306C24.4712 9.37882 24.4792 9.74996 24.5465 10.113C24.5734 10.2583 24.4765 10.3981 24.3313 10.425C24.3152 10.4277 24.299 10.4304 24.2829 10.4304Z" fill="#FFC8AF" fill-opacity="0.17"/>
<path d="M30.7859 9.79041C30.7617 9.79041 30.7348 9.78772 30.7106 9.77965C30.5681 9.73662 30.4874 9.5887 30.5304 9.44616C30.6541 9.02662 30.8639 8.6501 31.1543 8.32737C31.1785 8.30048 31.2027 8.27358 31.2296 8.24669C31.3318 8.13912 31.5013 8.13643 31.6088 8.23862C31.7164 8.34082 31.7191 8.51025 31.6169 8.61783C31.5954 8.63934 31.5766 8.66086 31.5551 8.68506C31.3184 8.95131 31.1463 9.2606 31.0441 9.60215C31.0091 9.71779 30.9042 9.7931 30.7886 9.7931L30.7859 9.79041Z" fill="#FFC8AF" fill-opacity="0.17"/>
<path d="M40.8469 12.4016C40.82 12.4016 40.7905 12.3962 40.7636 12.3882C40.6237 12.3424 40.5457 12.1891 40.5941 12.0493C40.7232 11.662 40.777 11.2586 40.7555 10.8552C40.7474 10.7073 40.8604 10.5809 41.0083 10.5728C41.1562 10.5674 41.2826 10.6777 41.2907 10.8256C41.3149 11.2963 41.2503 11.7642 41.1024 12.216C41.0648 12.329 40.9599 12.3989 40.8469 12.3989V12.4016Z" fill="#FFC8AF" fill-opacity="0.17"/>
<path d="M34.586 9.20128C34.5322 9.20128 34.4757 9.18515 34.43 9.15018C34.3117 9.06412 34.2848 8.89469 34.3708 8.77636C34.543 8.53969 34.7393 8.32454 34.9544 8.13897C35.0674 8.04215 35.2341 8.05291 35.331 8.16586C35.4278 8.27613 35.417 8.44556 35.3041 8.54238C35.1212 8.70106 34.9517 8.88662 34.8011 9.09102C34.75 9.16363 34.6667 9.20128 34.5833 9.20128H34.586Z" fill="#FFC8AF" fill-opacity="0.17"/>
<path d="M36.1916 21.3654C36.1324 21.3654 36.0706 21.3465 36.0221 21.3035C35.6887 21.0292 35.4305 20.6715 35.2745 20.2681C35.1615 19.9749 35.1024 19.6683 35.1024 19.3564C35.1024 18.598 35.4385 17.888 36.0221 17.4066C36.6084 16.9252 37.3668 16.7342 38.1091 16.8794C38.2839 16.9144 38.4534 16.9655 38.6201 17.0354C38.7573 17.0919 38.8218 17.2506 38.7626 17.385C38.7062 17.5222 38.5502 17.5867 38.413 17.5276C38.2812 17.4711 38.1441 17.4308 38.0069 17.4039C37.4233 17.2882 36.8236 17.4415 36.3637 17.8207C35.9038 18.1999 35.6376 18.7593 35.6376 19.3564C35.6376 19.6011 35.6833 19.8432 35.772 20.0771C35.8931 20.3945 36.0975 20.6769 36.361 20.892C36.474 20.9861 36.4928 21.1556 36.3987 21.2685C36.3449 21.3331 36.2696 21.3654 36.1916 21.3654Z" fill="#FFC8AF" fill-opacity="0.17"/>
<path d="M34.1772 20.8115C34.1369 20.8115 34.0938 20.8115 34.0535 20.8115C33.1821 20.7765 32.3807 20.357 31.8563 19.6604C31.3291 18.9639 31.1436 18.0764 31.348 17.2319C31.4152 16.9468 31.5255 16.6806 31.6707 16.4332C31.9585 15.9383 32.3861 15.5457 32.8998 15.2928C33.0342 15.2283 33.1929 15.2821 33.2574 15.4166C33.322 15.5483 33.2682 15.7097 33.1337 15.7743C32.7142 15.9786 32.3673 16.3014 32.1306 16.7048C32.0123 16.9038 31.9235 17.1243 31.867 17.3556C31.7003 18.0468 31.8509 18.7676 32.2812 19.3377C32.7088 19.9052 33.3623 20.2494 34.075 20.2763C34.5376 20.2978 34.9921 20.1822 35.3875 19.9455C35.5139 19.8702 35.6779 19.9105 35.7559 20.0369C35.8312 20.1634 35.7909 20.3274 35.6645 20.4027C35.2153 20.6716 34.7043 20.8115 34.1799 20.8115H34.1772Z" fill="#FFC8AF" fill-opacity="0.17"/>
<path d="M31.8993 16.8338C31.8052 16.8338 31.7164 16.7854 31.6653 16.6994C31.469 16.3551 31.3614 15.9625 31.356 15.5671C31.3453 14.841 31.6626 14.1579 32.2274 13.698C32.7922 13.2381 33.5237 13.0633 34.2337 13.222C34.9437 13.378 35.5327 13.8432 35.8527 14.4994C35.9173 14.6312 35.8608 14.7926 35.729 14.8571C35.5972 14.9217 35.4359 14.8652 35.3713 14.7334C35.1266 14.2251 34.6694 13.8674 34.1207 13.7464C33.5694 13.6254 33.0046 13.7598 32.569 14.1148C32.1306 14.4725 31.8858 14.9997 31.8939 15.5617C31.8966 15.8683 31.98 16.1695 32.1306 16.4358C32.2032 16.5649 32.1602 16.7289 32.0311 16.8016C31.988 16.8258 31.9423 16.8365 31.8993 16.8365V16.8338Z" fill="#FFC8AF" fill-opacity="0.17"/>
<path d="M25.7217 21.7635C25.5227 21.7635 25.3237 21.7393 25.1274 21.6936C24.1592 21.4623 23.4115 20.6823 23.2233 19.7034C23.1964 19.5582 23.2905 19.4183 23.4357 19.3887C23.581 19.3618 23.7208 19.456 23.7504 19.6012C23.901 20.3731 24.49 20.9889 25.2538 21.1718C25.7513 21.2901 26.2731 21.2175 26.7195 20.962C27.1202 20.7334 27.4349 20.3677 27.6016 19.9347C27.6554 19.7975 27.8087 19.7276 27.9486 19.7814C28.0857 19.8352 28.1556 19.9885 28.1019 20.1283C27.8921 20.677 27.4941 21.1395 26.9858 21.43C26.5985 21.6505 26.1628 21.7635 25.7244 21.7635H25.7217Z" fill="#FFC8AF" fill-opacity="0.17"/>
<path d="M28.8119 22.4142C27.9728 22.4142 27.166 22.0297 26.6388 21.36C26.5474 21.2443 26.5662 21.0749 26.6846 20.9835C26.8002 20.892 26.9696 20.9109 27.0611 21.0292C27.5532 21.6531 28.3493 21.9705 29.1373 21.8548C30.1781 21.7015 30.9607 20.8651 31.0414 19.819C31.0521 19.671 31.1839 19.5635 31.3291 19.5742C31.4771 19.585 31.5873 19.7141 31.5739 19.862C31.4717 21.1583 30.5008 22.1964 29.2126 22.3873C29.0781 22.4062 28.9463 22.4169 28.8119 22.4169V22.4142Z" fill="#FFC8AF" fill-opacity="0.17"/>
<path d="M32.7142 23.8934C31.9961 23.8934 31.313 23.5088 30.9472 22.8499C30.8746 22.7208 30.923 22.5568 31.0521 22.4869C31.1812 22.4143 31.3453 22.4627 31.4152 22.5918C31.7675 23.2265 32.5205 23.5142 33.2063 23.2749C33.8921 23.0355 34.3036 22.3443 34.188 21.6263C34.1638 21.481 34.2633 21.3439 34.4085 21.3197C34.5537 21.2955 34.6909 21.395 34.7151 21.5402C34.8738 22.5138 34.3117 23.4551 33.3811 23.7805C33.1606 23.8585 32.9347 23.8934 32.7142 23.8934Z" fill="#FFC8AF" fill-opacity="0.17"/>
<path d="M35.054 12.4018C35.054 12.4018 35.0405 12.4018 35.0351 12.4018C34.8872 12.391 34.7769 12.2646 34.7877 12.1167C34.8576 11.1108 35.6349 10.2933 36.6353 10.1696C37.6331 10.0458 38.5851 10.651 38.8971 11.6084C38.9428 11.7482 38.8675 11.9015 38.725 11.9472C38.5851 11.993 38.4345 11.9177 38.3861 11.7751C38.1521 11.0597 37.4421 10.6106 36.6972 10.7021C35.9495 10.7935 35.3713 11.404 35.3202 12.1543C35.3094 12.2969 35.1938 12.4044 35.054 12.4044V12.4018Z" fill="#FFC8AF" fill-opacity="0.17"/>
<path d="M24.1431 16.5568C23.1023 16.5568 22.1664 15.9786 21.7038 15.0427C21.2385 14.1094 21.3434 13.0122 21.9754 12.1785C22.0642 12.0601 22.2336 12.0386 22.3492 12.1274C22.4676 12.2161 22.4891 12.3855 22.4003 12.5012C21.892 13.1708 21.8087 14.053 22.1825 14.8033C22.5536 15.5537 23.3067 16.0189 24.1431 16.0189C24.1431 16.0189 24.1431 16.0189 24.1484 16.0189C24.2964 16.0189 24.4147 16.1373 24.4174 16.2852C24.4174 16.4331 24.2991 16.5541 24.1511 16.5541H24.1458L24.1431 16.5568Z" fill="#FFC8AF" fill-opacity="0.17"/>
<path d="M37.2377 23.2023C37.0871 23.2023 36.9365 23.1862 36.7859 23.1512C36.6407 23.1189 36.5519 22.9737 36.5842 22.8312C36.6165 22.6859 36.7617 22.5972 36.9043 22.6295C37.5524 22.7801 38.2274 22.4762 38.5475 21.8926C38.5744 21.8415 38.5986 21.7904 38.6201 21.742C38.8514 21.1799 38.7223 20.5371 38.2866 20.1095C38.1817 20.0046 38.179 19.8352 38.2839 19.7303C38.3888 19.6254 38.5582 19.6227 38.6631 19.7276C39.2548 20.3112 39.4323 21.1826 39.1149 21.949C39.0854 22.019 39.0531 22.0862 39.0181 22.1507C38.6578 22.807 37.9639 23.2023 37.2351 23.2023H37.2377Z" fill="#FFC8AF" fill-opacity="0.17"/>
<path d="M39.244 22.1373C39.1096 22.1373 38.9724 22.1293 38.8379 22.1131C38.69 22.097 38.5851 21.9625 38.604 21.8173C38.6201 21.6694 38.7546 21.5645 38.8998 21.5833C39.7066 21.6774 40.5323 21.4381 41.1643 20.9244C42.1405 20.131 42.5278 18.7971 42.1298 17.6057C42.084 17.4659 42.1594 17.3126 42.2992 17.2668C42.4391 17.2184 42.5923 17.2964 42.6381 17.4363C43.1087 18.8401 42.6515 20.4081 41.5031 21.3413C40.8658 21.8576 40.0616 22.14 39.2467 22.14L39.244 22.1373Z" fill="#FFC8AF" fill-opacity="0.17"/>
<path d="M24.2103 12.5604C24.1565 12.5604 24.1027 12.5443 24.0543 12.5093C23.9333 12.4232 23.9064 12.2565 23.9925 12.1355C24.6756 11.1861 25.7352 10.5945 26.9024 10.5111C28.0696 10.4277 29.2018 10.8634 30.0113 11.7052C30.1135 11.8127 30.1109 11.9822 30.0033 12.0844C29.8957 12.1866 29.7263 12.1839 29.6241 12.0763C28.9248 11.3502 27.9459 10.9737 26.9374 11.0436C25.9315 11.1162 25.0144 11.6272 24.4255 12.4448C24.3744 12.5174 24.291 12.555 24.2076 12.555L24.2103 12.5604Z" fill="#1D262D" fill-opacity="0.13"/>
<path d="M34.5618 19.7841C34.43 19.7841 34.3144 19.6846 34.2956 19.5501C34.11 18.0844 34.9894 16.6671 36.3879 16.1857C36.5278 16.1373 36.6811 16.2126 36.7295 16.3524C36.7779 16.4923 36.7026 16.6456 36.5627 16.694C35.4036 17.0947 34.6721 18.27 34.8254 19.4856C34.8442 19.6335 34.7393 19.7653 34.5941 19.7841C34.5833 19.7841 34.5726 19.7841 34.5591 19.7841H34.5618Z" fill="#1D262D" fill-opacity="0.13"/>
<path d="M37.582 15.5429C37.582 15.5429 37.5632 15.5429 37.5551 15.5429C37.4072 15.5295 37.2996 15.3977 37.3158 15.2498C37.3991 14.408 37.8375 13.6388 38.5179 13.1359C39.1983 12.633 40.0616 12.4394 40.8927 12.6034C41.0379 12.633 41.132 12.7728 41.1024 12.9181C41.0728 13.0633 40.933 13.1574 40.7878 13.1279C40.1074 12.9934 39.3947 13.1521 38.838 13.5635C38.2786 13.9777 37.9209 14.6097 37.8509 15.3009C37.8375 15.438 37.7219 15.5429 37.5847 15.5429H37.582Z" fill="#1D262D" fill-opacity="0.13"/>
<path d="M33.9782 12.8481C33.9782 12.8481 33.9701 12.8481 33.9674 12.8481C33.8195 12.8428 33.7039 12.7164 33.7119 12.5684C33.7792 10.9387 35.0029 9.60203 36.6219 9.38688C36.7698 9.36805 36.9043 9.47025 36.9231 9.61817C36.9419 9.76608 36.8397 9.90055 36.6918 9.91938C35.3336 10.0996 34.3036 11.2237 34.2471 12.5926C34.2418 12.7352 34.1234 12.8481 33.9809 12.8481H33.9782Z" fill="#1D262D" fill-opacity="0.13"/>
<path d="M25.3802 22.7882H25.3748C24.1269 22.7586 23.0592 21.9357 22.7123 20.7362C22.672 20.5937 22.7527 20.4457 22.8952 20.4054C23.0377 20.3651 23.1856 20.4457 23.226 20.5883C23.5057 21.5591 24.3744 22.2288 25.3856 22.253C25.5335 22.2557 25.6518 22.3794 25.6464 22.5273C25.6438 22.6726 25.5227 22.7882 25.3802 22.7882Z" fill="#1D262D" fill-opacity="0.13"/>
<path d="M22.4407 18.9368C22.395 18.9368 22.3519 18.9368 22.3062 18.9368C22.1583 18.9314 22.0426 18.8077 22.048 18.6598C22.0534 18.5119 22.1798 18.3909 22.325 18.4016C23.9844 18.4554 25.4313 17.3232 25.7809 15.7068C25.8132 15.5616 25.9557 15.4702 26.0983 15.5025C26.2435 15.5347 26.3349 15.6773 26.3027 15.8198C25.9073 17.6459 24.2964 18.9368 22.438 18.9368H22.4407Z" fill="#1D262D" fill-opacity="0.13"/>
<path d="M33.2951 24.9048C33.1714 24.9048 33.0584 24.816 33.0342 24.6896C33.0046 24.5444 33.0988 24.4045 33.244 24.3749C34.43 24.1356 35.2718 23.084 35.2476 21.8738C35.2449 21.7259 35.3632 21.6049 35.5112 21.5995C35.6564 21.5995 35.7801 21.7151 35.7828 21.863C35.8124 23.3315 34.7877 24.6089 33.3489 24.8994C33.3301 24.9021 33.3139 24.9048 33.2951 24.9048Z" fill="#1D262D" fill-opacity="0.13"/>
<path d="M40.898 18.6868C40.8631 18.6868 40.8254 18.6788 40.7905 18.6626C40.1289 18.3695 39.6932 17.7133 39.677 16.9898C39.6609 16.2664 40.0724 15.594 40.7205 15.274C40.8523 15.2094 41.0137 15.2632 41.0782 15.395C41.1428 15.5268 41.089 15.6882 40.9572 15.7527C40.4946 15.9813 40.2015 16.4627 40.2122 16.9791C40.223 17.4954 40.535 17.9634 41.0056 18.1732C41.1401 18.2323 41.2019 18.391 41.1428 18.5255C41.0997 18.625 41.0002 18.6841 40.898 18.6841V18.6868Z" fill="#1D262D" fill-opacity="0.13"/>
<path d="M42.2885 22.062C42.2266 22.062 42.1621 22.0405 42.111 21.9947C42.0007 21.8979 41.9872 21.7285 42.0868 21.6155C43.1168 20.4403 43.4826 18.8374 43.063 17.3313C43.0227 17.1888 43.106 17.0409 43.2486 17.0005C43.3911 16.9602 43.539 17.0436 43.5794 17.1861C44.0473 18.867 43.6385 20.6554 42.4902 21.9678C42.4364 22.027 42.3638 22.0593 42.2885 22.0593V22.062Z" fill="#1D262D" fill-opacity="0.13"/>
<path d="M30.1888 8.55861C30.0813 8.55861 29.9791 8.49407 29.9387 8.38649C29.7155 7.79751 29.2449 7.34301 28.6532 7.13323C28.0588 6.92615 27.408 6.988 26.8674 7.30804C26.741 7.38335 26.577 7.34032 26.5017 7.21391C26.4264 7.08751 26.4694 6.92346 26.5958 6.84816C27.2735 6.44744 28.0884 6.36944 28.8307 6.63032C29.573 6.89119 30.1593 7.46134 30.439 8.19823C30.4927 8.33539 30.4228 8.49138 30.283 8.54248C30.2507 8.55324 30.2184 8.5613 30.1888 8.5613V8.55861Z" fill="#1D262D" fill-opacity="0.13"/>
<path d="M28.5537 21.4945C28.4273 21.4945 28.3117 21.4031 28.2901 21.274C28.2659 21.1288 28.3628 20.9889 28.508 20.9647C28.9974 20.8787 29.4062 20.5559 29.5972 20.0961C29.7908 19.6389 29.737 19.1198 29.4573 18.711C29.374 18.59 29.4062 18.4233 29.5273 18.3399C29.6483 18.2565 29.815 18.2888 29.8984 18.4098C30.283 18.9719 30.3529 19.6792 30.0893 20.3058C29.8258 20.9325 29.2664 21.3762 28.5967 21.4919C28.5806 21.4945 28.5645 21.4945 28.551 21.4945H28.5537Z" fill="#1D262D" fill-opacity="0.13"/>
<path d="M39.0854 25.4103C39.0101 25.4103 38.9348 25.378 38.881 25.3162C38.7842 25.2032 38.8003 25.0338 38.9132 24.9397C39.5695 24.383 39.8895 23.5089 39.747 22.6564C39.7228 22.5111 39.8196 22.3713 39.9675 22.3471C40.1127 22.3229 40.2526 22.4197 40.2768 22.5676C40.4516 23.603 40.0643 24.668 39.2629 25.3485C39.2118 25.3915 39.1499 25.413 39.0907 25.413L39.0854 25.4103Z" fill="#1D262D" fill-opacity="0.13"/>
<path d="M46.0402 20.5129C45.9783 20.5129 45.9165 20.4914 45.8654 20.4484C45.7524 20.3516 45.7416 20.1821 45.8385 20.0719C46.5027 19.3027 46.6534 18.2081 46.2257 17.2857C46.1639 17.1512 46.2204 16.9925 46.3548 16.9307C46.4893 16.8688 46.648 16.9253 46.7098 17.0598C47.2262 18.1732 47.0433 19.491 46.2419 20.4215C46.1881 20.4834 46.1155 20.5156 46.0402 20.5156V20.5129Z" fill="#1D262D" fill-opacity="0.13"/>
<defs>
<linearGradient id="paint0_linear_553_1687" x1="18.4415" y1="8.21698" x2="46.9814" y2="57.6508" gradientUnits="userSpaceOnUse">
<stop stop-color="#DCE8EF"/>
<stop offset="1" stop-color="#C3D3DD"/>
</linearGradient>
<linearGradient id="paint1_linear_553_1687" x1="32.3753" y1="5.86381" x2="32.3753" y2="28.1213" gradientUnits="userSpaceOnUse">
<stop stop-color="#FF8578"/>
<stop offset="0.29" stop-color="#FF7D75"/>
<stop offset="0.71" stop-color="#FF6A6D"/>
<stop offset="1" stop-color="#FF5866"/>
</linearGradient>
</defs>
</svg>
