<svg width="60" height="60" viewBox="0 0 60 60" fill="none" xmlns="http://www.w3.org/2000/svg">
<path d="M56.0651 25.9972C55.797 26.7066 55.2445 28.0275 54.1882 29.8539C53.9201 30.3187 53.6195 30.8161 53.2864 31.3461C50.9139 35.0886 46.762 40.3722 39.6851 46.5446L30.0001 55L20.307 46.5446C13.8476 40.9104 9.83383 36.0181 7.38008 32.3653C7.02258 31.8353 6.7057 31.3379 6.4132 30.8732C4.96695 28.5167 4.24383 26.8371 3.93508 25.9972C1.0832 18.3327 4.97508 9.7958 12.6126 6.93385C19.1288 4.50404 26.2626 6.97462 29.992 12.5028C33.7213 6.97462 40.8632 4.50404 47.3713 6.93385C55.0251 9.78765 58.917 18.3246 56.0651 25.9972Z" fill="#FF6464"/>
<circle cx="28.5" cy="28.5" r="7.5" stroke="white" stroke-width="2"/>
<rect x="33" y="34.4142" width="2" height="8.36854" rx="1" transform="rotate(-45 33 34.4142)" fill="white"/>
<circle cx="27" cy="24" r="1" fill="white"/>
<path d="M25 26C24.5 26.3333 23.6 27.4 24 29" stroke="white" stroke-width="2" stroke-linecap="round" stroke-linejoin="round"/>
</svg>
