<svg width="60" height="60" viewBox="0 0 60 60" fill="none" xmlns="http://www.w3.org/2000/svg">
    <path fill-rule="evenodd" clip-rule="evenodd"
        d="M54.1882 29.8539C55.2445 28.0275 55.797 26.7066 56.0651 25.9972C58.917 18.3246 55.0251 9.78765 47.3713 6.93385C40.8632 4.50404 33.7213 6.97462 29.992 12.5028C26.2626 6.97462 19.1288 4.50404 12.6126 6.93385C5.28643 9.67913 1.40674 17.6461 3.61972 25.056C3.73695 25.0077 3.86537 24.9811 4 24.9811H27.6205L30.18 18.2268C30.7095 16.8295 32.7333 16.981 33.0488 18.4415L34.9776 27.3671L37.0465 21.5862C37.5403 20.2066 39.516 20.2808 39.905 21.6935L40.8193 25.0145L40.9616 24.8156C41.2433 24.4221 41.6975 24.1887 42.1814 24.1887H52.5C53.0523 24.1887 53.5 24.6364 53.5 25.1887C53.5 25.741 53.0523 26.1887 52.5 26.1887H42.4384L41.8352 27.0313C41.1007 28.0575 39.5043 27.7731 39.1693 26.5563L38.3966 23.7494L36.2708 29.689C35.7624 31.1095 33.711 30.975 33.3924 29.5004L31.4511 20.5166L29.3684 26.0127C29.1475 26.5956 28.5891 26.9811 27.9657 26.9811H4.33568C4.74547 27.9112 5.40289 29.227 6.4132 30.8732C6.7057 31.3379 7.02258 31.8353 7.38008 32.3653C9.83383 36.0181 13.8476 40.9104 20.307 46.5446L30.0001 55L39.6851 46.5446C46.762 40.3722 50.9139 35.0886 53.2864 31.3461C53.6195 30.8161 53.9201 30.3187 54.1882 29.8539Z"
        fill="#FF6464" />
    <circle cx="42.5" cy="44.5" r="9.5" fill="#FF6464" stroke="white" stroke-width="2" />
    <path
        d="M42.5 40.5859C43.1875 40.5859 43.7188 40.0625 43.7188 39.4062C43.7188 38.7422 43.1875 38.2266 42.5 38.2266C41.8125 38.2266 41.2812 38.7422 41.2812 39.4062C41.2812 40.0625 41.8125 40.5859 42.5 40.5859ZM42.5 50.1641C43.2031 50.1641 43.6406 49.7188 43.6406 48.9766V42.6484C43.6406 41.9062 43.2031 41.4531 42.5 41.4531C41.7891 41.4531 41.3594 41.9062 41.3594 42.6484V48.9766C41.3594 49.7188 41.7891 50.1641 42.5 50.1641Z"
        fill="white" />
</svg>
