<svg width="60" height="60" viewBox="0 0 60 60" fill="none" xmlns="http://www.w3.org/2000/svg">
<rect width="60" height="60" fill="white"/>
<path d="M35.4679 9.36027C34.5978 8.80588 33.4619 9.45775 33.4619 10.4995V16.7806C31.9031 15.5743 30.9726 13.7162 30.9726 11.7241V3H29.0331V11.718C29.0331 13.7162 28.1027 15.5743 26.5438 16.7745V10.4995C26.5438 9.46384 25.4079 8.80588 24.5379 9.36027C16.7377 14.362 15.9764 25.9677 16.0005 30.683C16.0005 31.6517 17.0096 32.2853 17.8796 31.871L22.7253 29.5682C25.0575 28.4594 26.5438 26.0956 26.5438 23.5003V19.1687L27.3353 18.6265C28.4712 17.8528 29.3775 16.8232 29.9999 15.6353C30.6222 16.8171 31.5285 17.8467 32.6644 18.6265L33.4559 19.1687V23.5003C33.4559 26.0956 34.9422 28.4594 37.2744 29.5682L42.1201 31.871C42.9902 32.2853 43.9931 31.6517 43.9992 30.683C44.0294 25.9677 43.2621 14.362 35.4618 9.36027H35.4679Z" fill="#FF757F"/>
<path d="M26.8622 30.0244C23.8474 29.7655 17.2354 31.5895 16.2419 34.3573C15.2484 37.125 17.4867 42.1944 19.8277 40.7444C21.7805 39.536 21.4436 36.9754 25.7088 33.6668C28.4952 31.5032 28.5638 30.174 26.8622 30.0244Z" fill="#FF757F"/>
<path d="M31.7198 21V29.4324C31.7198 31.4957 30.5693 33.387 28.7314 34.3364L24.9884 36.2576C23.1505 37.1995 22 39.0909 22 41.1616V47H23.8976V44.107C23.8976 42.1932 25.4815 40.6308 27.3941 40.7131C30.5095 40.8401 34.8876 40.3991 37.0392 37.3042C39.6317 33.5739 36.3668 31.3985 34.4318 30.494C33.6698 30.1426 33.1916 29.3726 33.1916 28.5279V21H31.7198Z" fill="#FF757F"/>
<path d="M24.0728 45.1H38.9213C40.0658 45.1 41 44.4087 41 43.5522C41 42.6913 40.0716 42 38.9213 42H26.0114C25.5209 42 25.1238 42.2957 25.1238 42.6609C25.1238 43.0261 25.5209 43.3217 26.0114 43.3217H38.536C38.7111 43.3217 38.8454 43.4261 38.8454 43.5522C38.8454 43.6783 38.7053 43.7826 38.536 43.7826H24.0787C22.9342 43.7826 22 44.4739 22 45.3304C22 46.187 22.9284 46.8783 24.0787 46.8783H38.536C38.7111 46.8783 38.8454 46.9826 38.8454 47.1087C38.8454 47.2348 38.7053 47.3391 38.536 47.3391H24.1955C23.0685 47.3391 22.0642 47.9652 22.0058 48.8043C21.9416 49.6957 22.8934 50.4348 24.0787 50.4348H38.536C38.7111 50.4348 38.8454 50.5391 38.8454 50.6652C38.8454 50.7913 38.7053 50.8957 38.536 50.8957H24.0787C22.9342 50.8957 22 51.587 22 52.4435C22 53.3043 22.9284 53.9957 24.0787 53.9957H29.8067C30.6417 53.9957 31.3248 54.5 31.3248 55.1261V58.4C31.3248 58.7304 31.6868 59 32.1306 59C32.5744 59 32.9364 58.7304 32.9364 58.4V55.1522C32.9364 53.787 31.4474 52.6783 29.614 52.6783H24.0728C23.8977 52.6783 23.7634 52.5739 23.7634 52.4478C23.7634 52.3217 23.9035 52.2174 24.0728 52.2174H38.9213C40.0658 52.2174 41 51.5261 41 50.6696C41 49.813 40.0716 49.1217 38.9213 49.1217H24.0728C23.8977 49.1217 23.7634 49.0174 23.7634 48.8913C23.7634 48.7652 23.9035 48.6609 24.0728 48.6609H38.7987C39.9256 48.6609 40.9299 48.0348 40.9883 47.1957C41.0525 46.3043 40.1008 45.5652 38.9155 45.5652H24.0728C23.8977 45.5652 23.7634 45.4609 23.7634 45.3348C23.7634 45.2087 23.9035 45.1043 24.0728 45.1043V45.1Z" fill="#FF404A"/>
<path d="M33.9575 17.5269C31.3147 15.8296 29.5828 18.7631 29.5 18.9101C29.4172 18.7631 27.6784 15.8296 25.0425 17.5269C21.9651 19.5048 26.3811 25.1981 29.4931 26C29.4931 26 29.4931 26 29.5 26C29.5 26 29.5 26 29.5069 26C32.6189 25.1914 37.0349 19.4982 33.9575 17.5202V17.5269Z" fill="#FF404A"/>
</svg>
