<svg width="36" height="36" viewBox="0 0 36 36" fill="none" xmlns="http://www.w3.org/2000/svg">
<g clip-path="url(#clip0_1791_1990)">
<circle cx="18" cy="18" r="18" fill="#008EFF"/>
<path d="M7.16469 15.3354L26.127 8.64287C26.3186 8.57513 26.5254 8.563 26.7236 8.60788C26.9217 8.65277 27.1031 8.75284 27.2468 8.89651C27.3905 9.04019 27.4906 9.2216 27.5354 9.41977C27.5803 9.61794 27.5682 9.82476 27.5005 10.0163L20.8079 28.9786C20.7394 29.1731 20.6165 29.3438 20.4537 29.4704C20.291 29.5971 20.0953 29.6743 19.8899 29.6929C19.6846 29.7115 19.4782 29.6707 19.2953 29.5754C19.1125 29.48 18.9609 29.3342 18.8585 29.1552L15.4371 23.167C15.3951 23.0937 15.3757 23.0096 15.3812 22.9252C15.3867 22.8409 15.417 22.76 15.4681 22.6928L20.8396 15.6325C20.8619 15.6028 20.8761 15.5679 20.8809 15.5311C20.8857 15.4943 20.8809 15.4569 20.867 15.4225L20.8402 15.3738C20.811 15.335 20.7695 15.3072 20.7226 15.2949C20.6756 15.2827 20.6259 15.2866 20.5814 15.3062L20.5388 15.3305L13.4846 20.6959C13.4174 20.7468 13.3366 20.7769 13.2524 20.7823C13.1682 20.7877 13.0842 20.7683 13.011 20.7263L6.98875 17.2854C6.80954 17.1832 6.66349 17.0316 6.568 16.8487C6.47251 16.6658 6.4316 16.4594 6.45014 16.2539C6.46868 16.0484 6.54589 15.8526 6.67257 15.6897C6.79926 15.5269 6.97008 15.4039 7.16469 15.3354Z" fill="white"/>
</g>
<defs>
<clipPath id="clip0_1791_1990">
<rect width="36" height="36" fill="white"/>
</clipPath>
</defs>
</svg>
