<svg width="40" height="40" viewBox="0 0 40 40" fill="none" xmlns="http://www.w3.org/2000/svg">
<path d="M8 13.052C8 10.6712 8 9.4796 8.7908 8.7404C9.5816 8 10.8548 8 13.4 8C15.9452 8 17.2184 8 18.0092 8.7404C18.8 9.4796 18.8 10.6712 18.8 13.052V26.948C18.8 29.3288 18.8 30.5204 18.0092 31.2596C17.2184 32 15.9452 32 13.4 32C10.8548 32 9.5816 32 8.7908 31.2596C8 30.5204 8 29.3288 8 26.948V13.052ZM21.2 24.08C21.2 21.5912 21.2 20.3468 21.9908 19.5728C22.7816 18.8 24.0548 18.8 26.6 18.8C29.1452 18.8 30.4184 18.8 31.2092 19.5728C32 20.348 32 21.5912 32 24.08V26.72C32 29.2088 32 30.4532 31.2092 31.2272C30.4184 32 29.1452 32 26.6 32C24.0548 32 22.7816 32 21.9908 31.2272C21.2 30.452 21.2 29.2088 21.2 26.72V24.08ZM21.2 12.2C21.2 10.8956 21.2 10.244 21.4052 9.728C21.6725 9.04946 22.1982 8.50476 22.8668 8.2136C23.3624 8 23.9924 8 25.25 8H27.95C29.2076 8 29.8376 8 30.3332 8.2136C30.9944 8.4968 31.5212 9.0416 31.7948 9.728C32 10.244 32 10.8956 32 12.2C32 13.5044 32 14.156 31.7948 14.672C31.5275 15.3505 31.0018 15.8952 30.3332 16.1864C29.8376 16.4 29.2076 16.4 27.95 16.4H25.25C23.9924 16.4 23.3624 16.4 22.8668 16.1864C22.1982 15.8952 21.6725 15.3505 21.4052 14.672C21.2 14.156 21.2 13.5044 21.2 12.2Z" fill="black"/>
</svg>
