<svg width="55" height="67" viewBox="0 0 55 67" fill="none" xmlns="http://www.w3.org/2000/svg">
<path fill-rule="evenodd" clip-rule="evenodd" d="M40.2415 40.6572C47.9016 47.0633 48.9719 50.8254 47.5821 52.3431C45.034 55.1228 34.2108 50.4101 40.2415 40.6572Z" fill="white"/>
<path fill-rule="evenodd" clip-rule="evenodd" d="M14.6893 40.6572C7.17292 46.8955 5.95881 50.6258 7.20488 52.2073C9.56122 55.2026 20.7598 50.5139 14.6893 40.6572Z" fill="white"/>
<path fill-rule="evenodd" clip-rule="evenodd" d="M40.9126 57.3988C47.071 60.6658 45.8569 66.9999 40.2097 66.9999H33.4841C31.5271 66.9999 30.9281 65.5302 30.9281 64.1963C30.9281 62.8624 36.8149 56.8397 40.9126 57.3988Z" fill="white"/>
<path fill-rule="evenodd" clip-rule="evenodd" d="M14.0183 57.3988C7.86781 60.6658 9.08193 66.9999 14.7212 66.9999H21.4467C23.4117 66.9999 24.0028 65.5302 24.0028 64.1963C24.0028 62.8624 18.1159 56.8397 14.0183 57.3988Z" fill="white"/>
<path fill-rule="evenodd" clip-rule="evenodd" d="M43.1331 52.5424C43.1331 51.2404 42.8854 49.9783 42.4222 48.7962L35.0097 28.939C32.877 22.9084 22.0698 22.9084 19.9291 28.939L12.5166 48.7962C12.0533 49.9783 11.7977 51.2324 11.7977 52.5424C11.7977 68.9968 43.1331 68.9968 43.1331 52.5424Z" fill="white"/>
<path d="M4.1855 17.333H50.7532C53.0616 17.333 54.9387 19.2101 54.9387 21.5185V26.7025C54.9387 29.0109 53.0616 30.888 50.7532 30.888H4.17752C1.8691 30.888 0 29.0109 0 26.7104V21.5265C0 19.2181 1.87709 17.341 4.1855 17.341V17.333Z" fill="#BFE1FF"/>
<path fill-rule="evenodd" clip-rule="evenodd" d="M16.3826 2.85156H38.5642C45.2578 2.85156 50.7293 8.32307 50.7293 15.0167V30.0813C50.7293 36.7749 45.2578 42.2464 38.5642 42.2464H16.3826C9.68899 42.2464 4.21748 36.7749 4.21748 30.0813V15.0167C4.21748 8.32307 9.68899 2.85156 16.3826 2.85156Z" fill="white"/>
<path d="M16.8059 14.2656H38.1328C41.879 14.2656 44.9223 17.3089 44.9223 21.0551V29.466C44.9223 33.2122 41.879 36.2555 38.1328 36.2555H16.8059C13.0598 36.2555 10.0165 33.2122 10.0165 29.466V21.0551C10.0165 17.3089 13.0598 14.2656 16.8059 14.2656Z" fill="#12006C"/>
<path d="M24.2662 0.5H30.6723C32.2725 0.5 33.567 1.80101 33.567 3.39473V7.59621C33.567 9.19639 32.266 10.4909 30.6723 10.4909H24.2662C22.6653 10.4909 21.3715 9.19715 21.3715 7.59621V3.39473C21.3715 1.79379 22.6653 0.5 24.2662 0.5Z" fill="white" stroke="#FFD2D2"/>
<path d="M20.7677 20.584C22.469 20.584 23.8429 21.9658 23.8429 23.6592V26.8702C23.8429 28.5716 22.4611 29.9455 20.7677 29.9455C19.0663 29.9455 17.6925 28.5636 17.6925 26.8702V23.6592C17.6925 21.9579 19.0743 20.584 20.7677 20.584Z" fill="#59B2FF"/>
<path fill-rule="evenodd" clip-rule="evenodd" d="M34.171 20.584C35.8643 20.584 37.2462 21.9658 37.2462 23.6592V26.8702C37.2462 28.5636 35.8643 29.9455 34.171 29.9455C32.4776 29.9455 31.0957 28.5636 31.0957 26.8702V23.6592C31.0957 21.9658 32.4776 20.584 34.171 20.584Z" fill="#59B2FF"/>
<path d="M38.5562 42.5901H16.3826C15.2723 42.5901 14.17 42.4463 13.1077 42.1508C12.924 42.1029 12.8201 41.9112 12.8681 41.7275C12.916 41.5437 13.1077 41.4399 13.2914 41.4878C14.2978 41.7594 15.3362 41.9032 16.3906 41.9032H38.5722C41.272 41.9032 43.9159 40.9606 46.0166 39.2433C46.1684 39.1315 46.376 39.1475 46.4959 39.2912C46.6157 39.435 46.5917 39.6507 46.4479 39.7705C44.2194 41.5837 41.4237 42.5821 38.5722 42.5821L38.5562 42.5901Z" fill="#BFE1FF"/>
<path d="M27.4694 65.2188C24.0986 65.2188 20.7838 64.452 18.1319 63.0622C16.2148 62.0557 14.6812 60.7618 13.555 59.2042C13.4991 59.1243 13.4751 59.0205 13.4991 58.9246L15.6477 49.7229C16.143 47.6062 18.2756 45.8809 20.3924 45.8809H34.5384C36.6551 45.8809 38.7878 47.6062 39.283 49.7229L41.4317 58.9246C41.4557 59.0205 41.4317 59.1243 41.3758 59.2042C38.652 62.9663 33.4521 65.2188 27.4614 65.2188H27.4694ZM14.202 58.9326C15.2563 60.3464 16.6861 61.5286 18.4514 62.4631C21.0074 63.805 24.2024 64.5399 27.4694 64.5399C33.0847 64.5399 38.1488 62.3912 40.7368 58.9326L38.6201 49.8826C38.1887 48.0535 36.3596 46.5678 34.5384 46.5678H20.3924C18.5712 46.5678 16.742 48.0535 16.3107 49.8826L14.194 58.9326H14.202Z" fill="#BFE1FF"/>
<path fill-rule="evenodd" clip-rule="evenodd" d="M27.4693 60.5943C30.6643 60.5943 33.2683 57.9903 33.2683 54.7873C33.2683 51.5842 30.6643 48.9883 27.4693 48.9883C24.2742 48.9883 21.6703 51.5922 21.6703 54.7873C21.6703 57.9823 24.2742 60.5943 27.4693 60.5943Z" fill="#59B2FF"/>
<path fill-rule="evenodd" clip-rule="evenodd" d="M27.4693 59.1084C29.8497 59.1084 31.7906 57.1674 31.7906 54.7871C31.7906 52.4068 29.8497 50.4658 27.4693 50.4658C25.089 50.4658 23.1481 52.4068 23.1481 54.7871C23.1481 57.1674 25.089 59.1084 27.4693 59.1084Z" fill="#12006C"/>
<path fill-rule="evenodd" clip-rule="evenodd" d="M27.4693 57.1992C28.7952 57.1992 29.8735 56.1208 29.8735 54.7949C29.8735 53.469 28.7952 52.3906 27.4693 52.3906C26.1433 52.3906 25.065 53.469 25.065 54.7949C25.065 56.1208 26.1433 57.1992 27.4693 57.1992Z" fill="#FF75CA"/>
<path fill-rule="evenodd" clip-rule="evenodd" d="M26.1674 54.907C26.9342 54.907 27.5652 54.276 27.5652 53.5092C27.5652 52.7423 26.9422 52.1113 26.1674 52.1113C25.3926 52.1113 24.7696 52.7423 24.7696 53.5092C24.7696 54.276 25.4006 54.907 26.1674 54.907Z" fill="white"/>
<rect x="26.359" y="1.59766" width="2.39628" height="7.9876" rx="1" fill="#FF5C5C"/>
<rect x="31.5509" y="4.39355" width="2.39628" height="7.9876" rx="1" transform="rotate(90 31.5509 4.39355)" fill="#FF5C5C"/>
</svg>
