<svg width="331" height="252" viewBox="0 0 331 252" fill="none" xmlns="http://www.w3.org/2000/svg">
<path d="M34.5449 209.484C34.5449 209.484 13.6864 114.576 40.5935 91.1433C62.49 72.0704 86.0891 109.483 109.813 92.8458C130.92 78.0359 108.719 37.4815 136.72 30.9624C168.111 23.6543 204.07 103.794 235.143 92.306C272.847 78.368 310.342 106.659 277.94 209.678L34.5449 209.484Z" fill="#ADC8F7"/>
<path d="M27.929 199.699C27.2785 197.803 26.628 195.837 26.0051 193.872L27.5415 193.443C28.1643 195.408 28.801 197.36 29.4515 199.242L27.929 199.699ZM302.287 197.249L300.695 197.069C300.958 195.048 301.207 193.027 301.442 191.034L303.034 191.2C302.799 193.194 302.55 195.228 302.287 197.249ZM24.2335 187.989C23.6798 186.038 23.1262 184.045 22.6141 182.079L24.1643 181.719C24.6764 183.685 25.2162 185.65 25.7698 187.602L24.2335 187.989ZM303.685 185.124L302.093 184.986C302.3 182.965 302.48 180.93 302.646 178.937L304.238 179.062C304.086 181.055 303.892 183.09 303.685 185.124ZM21.1607 176.128C20.704 174.134 20.2611 172.127 19.8597 170.148L21.4237 169.858C21.8251 171.823 22.268 173.83 22.7248 175.795L21.1607 176.128ZM304.709 172.972L303.117 172.875C303.255 170.854 303.366 168.806 303.463 166.812L305.055 166.882C304.958 168.889 304.847 170.937 304.709 172.972ZM18.697 164.127C18.3372 162.107 18.005 160.086 17.7143 158.093L19.2922 157.885C19.5829 159.864 19.9151 161.885 20.2611 163.878L18.697 164.127ZM305.304 160.778L303.698 160.736C303.768 158.702 303.809 156.667 303.823 154.66L305.428 154.674C305.415 156.695 305.373 158.743 305.304 160.778ZM16.9254 152.03C16.6901 149.996 16.4825 147.947 16.3025 145.954L17.8943 145.829C18.0604 147.823 18.268 149.843 18.5033 151.864L16.9254 152.03ZM303.837 148.598C303.823 146.563 303.781 144.528 303.712 142.521L305.318 142.48C305.373 144.487 305.415 146.535 305.442 148.584L303.837 148.598ZM15.8873 139.85C15.7766 137.802 15.7074 135.753 15.6797 133.746L17.2852 133.719C17.3129 135.712 17.3821 137.746 17.4929 139.781L15.8873 139.85ZM303.463 136.459C303.352 134.424 303.214 132.39 303.062 130.397L304.653 130.286C304.806 132.279 304.944 134.341 305.055 136.376L303.463 136.459ZM17.2852 127.656L15.6797 127.628C15.7212 125.58 15.8043 123.518 15.9288 121.525L17.5205 121.608C17.4237 123.587 17.3406 125.635 17.2852 127.656ZM302.508 124.362C302.3 122.327 302.051 120.307 301.788 118.341L303.38 118.147C303.643 120.127 303.892 122.175 304.1 124.21L302.508 124.362ZM18.0465 115.573L16.4548 115.421C16.6762 113.372 16.9392 111.338 17.2437 109.344L18.8216 109.566C18.5309 111.531 18.268 113.552 18.0465 115.573ZM300.889 112.334C300.556 110.313 300.197 108.306 299.809 106.355L301.387 106.078C301.774 108.043 302.148 110.064 302.48 112.099L300.889 112.334ZM111.654 112.113C109.425 111.78 107.82 110.825 105.591 109.178L106.602 108.002C108.553 109.441 109.965 110.313 111.82 110.604L111.654 112.113ZM117.218 108.528L115.792 107.836C116.526 106.479 117.176 104.597 117.716 102.244L119.28 102.562C118.699 105.081 118.021 107.033 117.218 108.528ZM100.899 104.846C99.6257 103.503 98.2555 101.967 96.7329 100.126L97.9925 99.1851C99.5012 100.998 100.844 102.507 102.089 103.822L100.899 104.846ZM19.9012 103.6L18.3372 103.31C18.7524 101.289 19.223 99.2819 19.7351 97.3304L21.2715 97.7041C20.7732 99.628 20.3026 101.607 19.9012 103.6ZM298.508 100.417C298.037 98.4238 297.525 96.4445 296.985 94.5345L298.536 94.1469C299.075 96.0708 299.588 98.0778 300.072 100.085L298.508 100.417ZM120.346 96.4861L118.754 96.2923C119.003 94.4929 119.225 92.5137 119.432 90.2576L121.024 90.3821C120.816 92.6659 120.595 94.659 120.346 96.4861ZM92.8159 95.2542C91.5149 93.5933 90.1723 91.8355 89.0096 90.3268L90.3107 89.4409C91.4733 90.9496 92.8159 92.7074 94.117 94.3545L92.8159 95.2542ZM209.967 95.1296C208.721 95.1296 207.503 94.7836 206.326 94.0777L207.185 92.8043C208.929 93.8424 210.659 93.8562 212.513 93.0119L213.205 94.3822C212.098 94.8805 211.019 95.1296 209.967 95.1296ZM22.9739 91.877L21.4376 91.4341C22.0743 89.4686 22.7663 87.517 23.5137 85.6208L25.0086 86.1468C24.2888 88.0153 23.5968 89.9392 22.9739 91.877ZM218.437 90.4375L217.261 89.4133C218.479 88.1676 219.78 86.6451 221.233 84.735L222.534 85.6208C221.026 87.5724 219.697 89.1503 218.437 90.4375ZM201.787 89.3856C200.749 87.8769 199.724 86.1053 198.645 83.946L200.084 83.2955C201.122 85.3855 202.119 87.1018 203.115 88.5551L201.787 89.3856ZM295.228 88.7212C294.577 86.7558 293.899 84.8319 293.179 82.991L294.688 82.4789C295.408 84.3474 296.1 86.299 296.75 88.2783L295.228 88.7212ZM85.2172 85.3994C83.75 83.5031 82.532 81.9529 81.3832 80.5135L82.6566 79.6C83.8192 81.0533 85.0373 82.6035 86.5182 84.4997L85.2172 85.3994ZM121.508 84.2782L119.917 84.1813C120.041 82.4097 120.166 80.4166 120.29 78.0913L121.882 78.1743C121.758 80.4996 121.633 82.4927 121.508 84.2782ZM27.4169 80.555L25.9498 79.946C26.8217 78.0636 27.7629 76.2227 28.7595 74.4096L30.1851 75.1016C29.2024 76.8871 28.2889 78.7003 27.4169 80.555ZM226.202 80.555L224.86 79.7245C225.995 78.0913 227.171 76.3611 228.361 74.6172L229.704 75.4338C228.514 77.1778 227.337 78.9079 226.202 80.555ZM196.07 78.3127C195.351 76.5965 194.603 74.7279 193.786 72.5825L195.295 72.0704C196.112 74.1881 196.845 76.0566 197.565 77.7591L196.07 78.3127ZM290.826 77.3715C289.968 75.4753 289.055 73.6345 288.127 71.9043L289.553 71.2123C290.508 72.9701 291.421 74.8386 292.307 76.7625L290.826 77.3715ZM77.4247 75.7245C75.9714 74.022 74.6149 72.4995 73.3 71.0877L74.4904 70.0911C75.8329 71.5306 77.2032 73.0531 78.6704 74.7833L77.4247 75.7245ZM122.228 72.0704L120.636 72.0012C120.747 69.9804 120.858 67.9596 120.969 65.9111L122.56 65.9942C122.436 68.0288 122.325 70.0496 122.228 72.0704ZM233.22 70.3264L231.891 69.496C233.234 67.5859 234.424 65.925 235.545 64.444L236.846 65.316C235.725 66.7831 234.535 68.4302 233.22 70.3264ZM33.3547 69.8974L32.0121 69.0807C33.2717 67.226 34.5727 65.5374 35.86 64.0841L37.078 65.053C35.8323 66.4648 34.5727 68.0842 33.3547 69.8974ZM191.641 66.8247C190.908 64.79 190.188 62.7554 189.579 61.0391L191.101 60.5546C191.71 62.2709 192.43 64.3056 193.164 66.3264L191.641 66.8247ZM68.8986 66.7139C67.2653 65.2052 65.6598 63.8765 64.1234 62.7692L65.0923 61.565C66.684 62.7139 68.3311 64.0841 70.0059 65.6343L68.8986 66.7139ZM285.013 66.6447C283.864 64.8731 282.66 63.1983 281.442 61.6758L282.715 60.7623C283.975 62.3263 285.207 64.0426 286.383 65.8558L285.013 66.6447ZM41.5763 60.9422L40.6074 59.738C42.5175 58.3539 44.5106 57.3712 46.5176 56.7899L46.9882 58.2293C45.1473 58.7691 43.3341 59.6827 41.5763 60.9422ZM240.694 60.4854L239.448 59.5304C240.943 57.7864 242.369 56.2778 243.794 54.9352L244.929 56.0009C243.545 57.3158 242.161 58.783 240.694 60.4854ZM122.906 59.8903L121.315 59.8072C121.453 57.6065 121.591 55.6134 121.73 53.7033L123.322 53.814C123.183 55.7103 123.045 57.7034 122.906 59.8903ZM58.8223 59.5719C56.8292 58.6307 54.8637 58.0356 52.9813 57.7864L53.2028 56.2916C55.2513 56.5546 57.3828 57.2051 59.542 58.2155L58.8223 59.5719ZM277.331 57.1359C275.795 55.6411 274.189 54.3262 272.598 53.2189L273.539 52.0009C275.213 53.1497 276.874 54.5338 278.48 56.084L277.331 57.1359ZM187.544 55.2535C186.741 52.9974 186.091 51.1704 185.482 49.4818L186.991 48.9974C187.6 50.686 188.264 52.5268 189.053 54.7829L187.544 55.2535ZM249.718 52.1393L248.805 50.9074C250.77 49.6064 252.763 48.6375 254.715 48.0423L255.213 49.4818C253.4 50.0354 251.559 50.9213 249.718 52.1393ZM267.172 50.2846C265.193 49.4956 263.186 49.0112 261.206 48.8313L261.359 47.3226C263.49 47.5164 265.663 48.0423 267.795 48.8866L267.172 50.2846ZM123.848 47.7378L122.256 47.5994C122.45 45.4817 122.671 43.4333 122.906 41.5093L124.498 41.6754C124.263 43.5993 124.041 45.634 123.848 47.7378ZM183.35 43.7239C182.575 41.6893 181.855 39.8207 181.122 38.0214L182.617 37.4816C183.35 39.2809 184.084 41.1633 184.859 43.2118L183.35 43.7239ZM125.301 35.6546L123.723 35.4331C124.041 33.3154 124.401 31.2808 124.775 29.3846L126.353 29.6614C125.965 31.5438 125.619 33.5646 125.301 35.6546ZM178.741 32.3881C177.883 30.4365 177.011 28.568 176.167 26.8378L177.62 26.2011C178.478 27.9589 179.35 29.8413 180.222 31.8068L178.741 32.3881ZM127.709 23.7513L126.159 23.3914C126.713 21.2737 127.336 19.2944 127.986 17.4813L129.495 17.9657C128.858 19.7374 128.249 21.6889 127.709 23.7513ZM173.329 21.3983C172.277 19.5297 171.198 17.7719 170.132 16.1664L171.489 15.3636C172.582 16.9968 173.675 18.7823 174.741 20.6924L173.329 21.3983ZM131.889 12.4293L130.45 11.7649C131.502 9.75795 132.664 7.97245 133.91 6.47762L135.17 7.41881C134.007 8.81676 132.9 10.5054 131.889 12.4293ZM166.464 11.2666C165.066 9.6057 163.627 8.13855 162.173 6.90669L163.253 5.78556C164.762 7.07278 166.27 8.60914 167.724 10.3254L166.464 11.2666ZM139.64 3.48795L138.782 2.21457C140.678 1.06576 142.768 0.318344 144.983 0L145.232 1.49484C143.225 1.7855 141.357 2.46371 139.64 3.48795ZM157.122 3.48795C155.253 2.53292 153.315 1.89623 151.35 1.56404L151.627 0.0692053C153.758 0.429073 155.862 1.13497 157.883 2.15921L157.122 3.48795Z" fill="#B3D2FF"/>
<path d="M312.432 172.224C299.159 170.01 301.318 190.065 282.397 190.065C265.096 190.065 259.559 113.635 246.964 135.49C182.423 247.492 219.905 87.863 168.568 85.8284C145.357 84.9149 129.896 112.846 124.194 162.3C115.931 207.007 96.7468 128.196 77.0233 135.532C64.4833 140.182 65.9228 190.065 48.6214 190.065C29.7007 190.065 31.8599 169.996 18.5863 172.224C4.28849 174.619 0.260742 210.135 0.260742 210.135H330.688C330.661 210.135 326.716 174.619 312.432 172.224Z" fill="#B8D5FF"/>
<path d="M300.667 193.955C288.445 193 290.439 201.581 273.04 201.581C257.123 201.581 257.552 182.37 246.908 178.301C227.296 170.785 211.115 208.82 203.517 189.733C189.067 139.075 146.934 113.663 127.502 189.733C119.889 208.82 102.103 174.757 84.1098 178.301C73.0231 180.487 73.8951 201.581 57.9779 201.581C40.5658 201.581 42.5589 193.014 30.3511 193.955C17.2021 194.979 13.2712 210.149 13.2712 210.149H317.775C317.747 210.135 313.816 194.965 300.667 193.955Z" fill="#CAE5FF"/>
<path d="M0.246967 210.135C0.246967 210.135 -2.07833 219.685 7.54121 222.08C20.7041 225.346 97.9372 233.955 79.1826 240.488C68.5941 244.184 84.5944 249.181 136.18 251.035C187.78 252.876 276.307 245.651 246.535 234.966C216.763 224.267 338.066 232.378 330.675 210.149H0.246967V210.135Z" fill="#ADC8F7"/>
<path d="M274.826 213.775H231.587C223.254 213.775 215.42 210.536 209.538 204.64C203.642 198.744 200.403 190.924 200.403 182.591V161.138C200.403 129.608 174.741 103.946 143.211 103.946H85.5772C76.4837 103.946 67.9437 100.403 61.5215 93.9808C55.0992 87.5586 51.5559 79.0048 51.5559 69.925V43.9869C51.5559 43.2256 52.1788 42.6028 52.94 42.6028C53.7013 42.6028 54.3241 43.2256 54.3241 43.9869V69.9112C54.3241 87.1433 68.3451 101.164 85.5772 101.164H143.211C151.308 101.164 159.156 102.756 166.547 105.87C173.689 108.888 180.098 113.22 185.607 118.715C191.115 124.224 195.434 130.632 198.451 137.774C201.579 145.165 203.157 153.013 203.157 161.11V182.564C203.157 198.232 215.905 210.979 231.573 210.979H274.812C275.574 210.979 276.196 211.602 276.196 212.363C276.196 213.125 275.601 213.775 274.826 213.775Z" fill="#1D3F70"/>
<path d="M254.826 102.991C254.328 117.801 242.064 130.383 231.614 140.127C213.815 158.037 188.001 183.934 170.16 201.9C152.236 184.072 126.256 158.231 108.374 140.459C97.8682 130.784 85.5635 118.203 84.9822 103.42C81.4804 78.7695 103.654 54.3954 128.194 55.2535C144.983 54.2708 158.977 66.6447 169.842 78.6726C169.883 78.5895 180.209 68.2918 180.596 67.8627C208.444 38.6996 259.698 63.1568 254.826 102.991Z" fill="#EB5648"/>
<path d="M254.826 102.991C254.327 117.801 242.064 130.383 231.614 140.127C213.815 158.037 188.001 183.934 170.16 201.9L169.828 78.6588C169.869 78.5757 180.195 68.278 180.582 67.8489C208.444 38.6996 259.698 63.1568 254.826 102.991Z" fill="#CE3932"/>
<path d="M174.492 171.117C173.025 171.117 171.71 170.19 171.212 168.806L144.872 94.6313L126.962 130.051C126.367 131.227 125.163 131.961 123.862 131.961H68.6911C66.7672 131.961 65.217 130.397 65.217 128.487C65.217 126.563 66.7811 125.012 68.6911 125.012H121.73L142.339 84.2505C142.962 83.0048 144.277 82.2573 145.661 82.3542C147.045 82.4373 148.25 83.3508 148.72 84.6657L174.465 157.165L194.894 98.5344C195.365 97.178 196.624 96.2507 198.064 96.2091C199.489 96.1676 200.818 96.9981 201.385 98.3268L212.707 125.012H262.3C264.224 125.012 265.774 126.576 265.774 128.487C265.774 130.41 264.21 131.961 262.3 131.961H210.41C209.012 131.961 207.752 131.13 207.213 129.843L198.506 109.33L177.786 168.792C177.302 170.176 175.987 171.117 174.492 171.117C174.506 171.117 174.506 171.117 174.492 171.117Z" fill="white"/>
<path d="M72.515 60.6776C83.2984 49.8942 83.2984 32.4108 72.515 21.6274C61.7316 10.844 44.2482 10.844 33.4648 21.6274C22.6814 32.4108 22.6814 49.8941 33.4648 60.6776C44.2482 71.461 61.7316 71.461 72.515 60.6776Z" fill="#1D3F70"/>
<path d="M67.7683 55.9309C75.9302 47.769 75.9302 34.536 67.7683 26.3741C59.6064 18.2122 46.3734 18.2122 38.2115 26.3741C30.0496 34.536 30.0496 47.769 38.2115 55.9309C46.3734 64.0927 59.6064 64.0927 67.7683 55.9309Z" fill="#BEDCED"/>
<path d="M48.483 41.1357L32.0952 41.0665C32.1229 33.5785 36.0953 27.0179 42.0331 23.35L48.483 41.1357Z" fill="#2FAC66"/>
<path d="M73.8954 41.2465L57.5076 41.1773L64.1098 23.4469C70.0199 27.1701 73.9369 33.7447 73.8954 41.2465Z" fill="#EB5648"/>
<path d="M56.4141 52.0564C56.4003 53.9803 54.8362 55.5305 52.9123 55.5305C50.9884 55.5166 49.4382 53.9526 49.4382 52.0287C49.4521 50.1048 51.0161 48.5546 52.94 48.5546C54.8778 48.5684 56.428 50.1324 56.4141 52.0564Z" fill="#103663"/>
<path d="M64.1097 23.4469L57.5075 41.1773L48.4693 41.1358L42.0332 23.3638C45.2443 21.3846 49.0368 20.2357 53.0922 20.2634C57.1338 20.2634 60.9124 21.4399 64.1097 23.4469Z" fill="#F9B233"/>
<path d="M51.3897 50.6583L63.6114 35.5577L54.9746 52.956C54.4486 54.0217 53.1614 54.4508 52.0956 53.9248C51.0299 53.3989 50.6008 52.1117 51.1267 51.0459C51.2098 50.9213 51.2928 50.7829 51.3897 50.6583Z" fill="#103663"/>
<path d="M235.864 213.166C235.102 213.166 234.479 212.543 234.479 211.782L234.466 200.183C234.466 199.422 235.088 198.799 235.85 198.799C236.611 198.799 237.234 199.422 237.234 200.183L237.248 211.782C237.248 212.543 236.625 213.166 235.864 213.166Z" fill="#1D3F70"/>
<path d="M229.939 201.927C228.984 201.927 228.209 201.152 228.209 200.197C228.209 199.242 228.984 198.467 229.939 198.467L241.746 198.453C242.701 198.453 243.476 199.228 243.476 200.183C243.476 201.138 242.701 201.913 241.746 201.913L229.939 201.927Z" fill="#1D3F70"/>
<path d="M243.531 217.208L233.635 217.222C230.632 217.222 228.196 214.799 228.196 211.796C228.196 208.792 230.618 206.356 233.621 206.356L243.518 206.343L243.531 217.208Z" fill="#1D3F70"/>
<path d="M296.113 217.166H300.017C303.02 217.166 305.442 214.73 305.442 211.727C305.442 208.723 303.006 206.301 300.003 206.301H296.1L296.113 217.166Z" fill="#1D3F70"/>
<path d="M300.778 211.727C300.792 220.377 287.061 227.409 270.12 227.423C256.57 227.436 245.068 222.952 240.998 216.737C239.988 215.187 239.434 213.512 239.434 211.782C239.42 203.131 253.151 196.1 270.092 196.086C280.376 196.073 289.497 198.661 295.062 202.619C298.66 205.18 300.778 208.322 300.778 211.727Z" fill="#23659B"/>
<path d="M296.626 207.574C296.639 216.225 282.909 223.256 265.968 223.27C255.684 223.284 246.562 220.696 240.998 216.737C239.988 215.187 239.434 213.512 239.434 211.782C239.42 203.131 253.151 196.1 270.092 196.086C280.376 196.073 289.497 198.661 295.062 202.619C296.072 204.17 296.626 205.844 296.626 207.574Z" fill="#3A72AA"/>
<path d="M36.4828 239.852C37.8254 238.08 36.1921 229.969 36.2475 227.893H42.3514C42.4206 229.955 40.8842 238.094 42.1715 239.852C42.5313 240.475 36.1091 240.475 36.4828 239.852Z" fill="#F99370"/>
<path d="M66.3796 242.288H55.6943C55.0577 242.288 54.5594 241.748 54.6286 241.111C54.7255 240.004 54.9746 238.482 54.8916 237.789C54.9331 237.139 54.0057 228.751 53.9365 227.879H60.6633L59.5837 236.544C59.4591 237.568 60.0681 238.537 61.037 238.855C62.3519 239.284 63.8606 239.478 64.8571 239.741C65.8122 239.976 66.6841 240.322 67.1132 241.056C67.4177 241.61 67.0163 242.288 66.3796 242.288Z" fill="#F99370"/>
<path d="M54.2548 241.167C54.3379 241.817 54.8777 242.288 55.5144 242.288H66.2827C66.9056 242.288 67.3485 241.693 67.1685 241.098C66.6011 239.326 64.8156 238.232 59.7774 237.79C59.7774 237.79 57.9227 238.343 54.8777 237.79C54.8777 237.79 54.0611 239.561 54.2548 241.167Z" fill="#395B96"/>
<path d="M36.9812 242.288H41.6733C42.3377 242.288 42.8637 241.748 42.836 241.084C42.6284 236.668 35.9846 236.627 35.8047 241.084C35.7909 241.748 36.3168 242.288 36.9812 242.288Z" fill="#395B96"/>
<path d="M63.7637 240.765C63.8606 240.765 63.9436 240.71 63.9851 240.613C64.4142 239.547 65.2031 239.215 65.2308 239.201C65.5215 239.091 65.3415 238.634 65.0509 238.758C65.0094 238.772 64.0543 239.16 63.5422 240.433C63.473 240.585 63.5976 240.765 63.7637 240.765Z" fill="#E8C0A6"/>
<path d="M61.8952 240.544C61.9921 240.544 62.089 240.475 62.1305 240.378C62.5181 239.146 63.5977 238.565 63.5977 238.565C63.8745 238.426 63.6531 237.997 63.3762 238.136C63.3209 238.163 62.1029 238.814 61.6738 240.239C61.6184 240.378 61.743 240.544 61.8952 240.544Z" fill="#E8C0A6"/>
<path d="M59.7774 240.281C59.8743 240.281 59.9711 240.226 59.9988 240.115C60.4417 238.828 61.4798 238.136 61.4937 238.122C61.7566 237.956 61.4798 237.54 61.2307 237.72C61.1892 237.748 60.0542 238.509 59.5559 239.949C59.5005 240.115 59.6113 240.281 59.7774 240.281Z" fill="#E8C0A6"/>
<path d="M37.6041 239.229C39.4312 238.191 41.0644 239.547 41.3274 239.091C41.5488 238.606 39.1543 237.873 37.4934 238.786C37.272 238.897 37.3688 239.229 37.6041 239.229Z" fill="#E8C0A6"/>
<path d="M67.1961 241.167H54.2686V241.181C54.3516 241.817 54.8914 242.302 55.5281 242.302H66.4072C66.9885 242.302 67.3899 241.734 67.1961 241.194C67.1961 241.181 67.1961 241.167 67.1961 241.167Z" fill="#4867AA"/>
<path d="M36.8844 242.288H41.7703C42.3793 242.288 42.8638 241.79 42.8499 241.181V241.167H35.8048C35.8048 241.181 35.8048 241.181 35.8048 241.194C35.7771 241.79 36.2754 242.288 36.8844 242.288Z" fill="#4867AA"/>
<path d="M52.8846 131.919C52.8846 131.919 53.4936 128.445 50.4486 127.324L48.5247 128.763L52.8846 131.919Z" fill="#8C4225"/>
<path d="M58.1441 157.83C66.684 164.266 80.0683 162.342 85.0096 152.971L83.7639 150.369C69.4245 156.529 63.7774 144.459 52.1509 143.767L54.49 146.757C54.49 146.757 57.9503 157.622 58.1441 157.83Z" fill="#E9F4FF"/>
<path d="M35.5139 236.142C35.5139 236.142 40.6489 237.388 43.3064 236.046C44.6905 227.409 48.5106 203.339 49.8394 186.854C49.8947 187.809 52.6906 226.592 53.2166 236.046C55.0436 236.655 58.7253 237.402 60.7738 235.907C61.7012 225.955 64.6631 193.18 60.1925 166.411C60.1925 166.411 47.9431 167.768 38.379 164.889C35.7492 173.387 35.0571 225.955 35.5139 236.142Z" fill="#EB5648"/>
<path d="M50.8222 143.546C50.9053 140.902 51.2375 135.67 49.0921 134.964C47.5557 134.424 45.7287 135.739 46.1993 137.469C46.3377 137.386 46.7806 142.328 46.4761 143.698C42.4207 144.916 54.6285 148.93 50.8222 143.546Z" fill="#F99370"/>
<path d="M46.1577 137.248C46.1715 137.317 46.1853 137.4 46.1992 137.469C46.2961 137.4 46.5867 140.127 46.5867 142.106C48.4414 142.951 50.4761 142.618 50.8498 142.549C50.9467 139.822 51.1266 135.725 49.092 134.964C47.6387 134.341 45.9085 135.67 46.1577 137.248Z" fill="#E57D61"/>
<path d="M43.2373 135.421C43.5556 137.359 44.2061 139.546 45.7286 140.833C47.9571 142.522 51.2235 142.342 53.5073 140.473C55.2651 138.84 55.8188 136.625 54.8914 134.937C54.2824 133.94 53.1751 133.054 52.8706 131.919C50.2823 124.321 42.13 128.57 43.2373 135.421Z" fill="#F99370"/>
<path d="M50.6285 134.231C50.8085 133.899 50.2687 133.622 50.1026 133.968C49.9365 134.3 50.4624 134.577 50.6285 134.231Z" fill="#C16256"/>
<path d="M53.1061 133.815C53.2861 133.483 52.7463 133.206 52.5802 133.552C52.4002 133.885 52.9262 134.161 53.1061 133.815Z" fill="#C16256"/>
<path d="M43.2373 135.421C43.5557 137.359 44.2062 139.546 45.7287 140.833C45.8533 140.944 45.9363 140.985 46.0747 141.082C44.9121 139.919 44.2754 137.497 44.2754 137.497L44.5522 135.393C46.4346 133.483 45.618 131.338 45.618 131.338C48.7599 132.224 49.8257 130.286 49.8257 130.286C50.8222 130.411 51.8603 129.912 51.8603 129.912C48.1509 124.805 42.13 130.217 43.2373 135.421Z" fill="#E57D61"/>
<path d="M44.2062 130.369C45.5488 130.895 46.0194 134.009 42.8497 136.127C42.8497 136.127 41.3134 131.02 44.2062 130.369Z" fill="#8C4225"/>
<path d="M82.5598 150.868C82.02 153.497 84.3453 154.106 84.3453 154.106C84.7882 153.442 85.0097 152.971 85.0097 152.971L83.764 150.369C83.764 150.369 83.2103 150.563 82.5598 150.868Z" fill="#D1E0F2"/>
<path d="M52.1647 136.362C52.7045 136.362 53.5349 135.989 52.8567 135.518C52.3031 135.213 51.9017 134.065 51.8878 134.051C51.8463 133.912 51.6249 133.982 51.6802 134.12C51.6941 134.175 52.1231 135.366 52.746 135.698C53.175 135.961 52.2754 136.224 51.9017 136.085C51.8463 136.072 51.7771 136.099 51.7633 136.155C51.7356 136.376 52.0262 136.348 52.1647 136.362Z" fill="#C16256"/>
<path d="M37.161 176.903C37.7561 177.941 60.3724 179.892 61.978 177.941C65.1199 170.19 59.3205 149.511 52.1508 143.781C52.0816 143.767 51.2788 143.56 50.8221 143.56C50.8498 143.684 51.6526 147.034 46.476 143.726C46.4483 143.767 45.2165 143.781 44.8843 144.002C45.258 149.387 34.7388 170.979 37.161 176.903Z" fill="#E8C0A6"/>
<path d="M58.49 148.404L61.7011 159.906C66.7116 162.674 75.2792 162.107 79.2654 158.992C65.023 164.515 63.8603 153.608 58.6838 148.39H58.49V148.404Z" fill="#D1E0F2"/>
<path d="M44.6906 127.324L44.7183 127.393C45.7702 126.147 47.6664 125.538 48.1094 124.279C48.1094 124.279 48.7599 125.497 48.6768 126.84C49.189 126.272 49.6457 125.649 50.0194 124.985C50.5315 125.497 50.8084 126.092 50.8914 126.701C52.5247 126.341 53.9503 127.006 53.9503 127.006C53.106 129.372 51.1544 129.898 49.618 129.912C48.3446 131.13 46.31 131.684 44.3446 130.48L42.4484 132.93C39.7632 128.251 44.6906 127.324 44.6906 127.324Z" fill="#8C4225"/>
<path d="M53.2166 236.046C53.2581 235.215 49.8394 186.854 49.8394 186.854C49.8394 186.854 51.4588 187.713 51.8463 192.848C52.1785 197.318 54.1716 226.98 54.6976 234.661C58.2132 235.45 60.9537 234.177 60.9537 234.177C60.843 235.298 60.7876 235.907 60.7876 235.907C59.099 237.125 56.3447 236.848 54.3931 236.378C53.9225 236.267 53.5488 236.156 53.3688 236.087C53.2996 236.073 53.2581 236.059 53.2166 236.046Z" fill="#CE3932"/>
<path d="M35.514 236.142C35.514 236.142 40.649 237.388 43.3065 236.046C43.3065 236.046 43.4172 235.381 43.611 234.177C43.611 234.177 39.9846 235.16 35.4586 234.135C35.4309 235.312 35.5278 236.046 35.514 236.142Z" fill="#CE3932"/>
<path d="M32.2476 211.658C37.1473 213.042 41.3273 212.973 43.4311 212.793C44.3585 212.71 44.8845 212.613 44.8845 212.613C44.8845 212.613 46.5315 178.633 47.0298 171.449C47.8326 164.044 48.4278 146.909 44.8845 143.975L43.5696 144.39C34.9743 155.075 33.0365 206.44 32.2476 211.658Z" fill="#E9F4FF"/>
<path d="M60.6492 212.889C60.6492 212.889 61.1198 212.959 61.8119 212.986C63.196 213.042 65.4936 212.903 66.767 211.658C66.9331 208.917 69.1615 147.297 53.701 143.906C53.2027 143.795 52.6768 143.753 52.137 143.767C62.2409 153.262 61.6458 204.917 60.6492 212.889Z" fill="#E9F4FF"/>
<path d="M45.8811 139.241C45.8811 139.241 51.2514 142.452 53.5075 140.473C55.4868 138.729 55.8051 136.639 54.8916 134.937C54.8916 134.937 52.3587 135.822 46.6424 135.573C46.6562 135.573 47.0438 138.148 45.8811 139.241Z" fill="#E9F4FF"/>
<path d="M46.656 135.684C46.7805 135.684 46.8082 135.49 46.6837 135.463L44.3168 134.826C43.5417 135.075 46.6698 135.615 46.656 135.684Z" fill="#C16256"/>
<path d="M45.8808 139.352C45.9915 139.352 46.033 139.2 45.9361 139.144C45.8669 139.172 43.6247 137.456 43.6108 137.732C43.4586 137.912 45.8116 139.296 45.8808 139.352Z" fill="#C16256"/>
<path d="M42.0054 136.404C42.476 138.604 45.175 138.037 44.7183 135.836C44.2339 133.622 41.5487 134.203 42.0054 136.404Z" fill="#F99370"/>
<path d="M42.6977 136.86C42.7669 136.86 42.8222 136.791 42.8084 136.722C42.3932 135.546 42.9053 135.061 43.6942 135.379C44.4693 135.117 41.715 134.397 42.5869 136.777C42.6146 136.833 42.6562 136.86 42.6977 136.86Z" fill="#C16256"/>
<path d="M43.7356 136.708C44.0678 136.667 43.4311 135.629 42.5868 135.559C42.4484 135.546 42.4346 135.767 42.573 135.781C43.4311 135.864 43.5418 136.681 43.7356 136.708Z" fill="#C16256"/>
<path d="M44.6767 150.48C45.2304 154.812 41.1611 161.788 47.528 163.74L42.7252 164.889L41.3826 159.698L44.6767 150.48Z" fill="#D1E0F2"/>
<path d="M60.6493 212.889C60.6493 212.889 61.1199 212.959 61.8119 212.986C62.7531 204.017 62.4902 192.515 62.2825 186.854C62.0611 181.013 61.3552 168.944 59.3898 158.314C57.4243 147.684 53.7149 143.919 53.7149 143.919C53.2166 143.809 52.6907 143.767 52.1509 143.781C62.241 153.262 61.6458 204.917 60.6493 212.889Z" fill="#D1E0F2"/>
<path d="M36.2752 169.761L36.1921 170.577C39.9707 172.446 47.0297 171.463 47.0297 171.463C47.0989 170.37 47.1681 169.318 47.2373 168.307L37.2579 165.373C36.9396 167.131 36.5243 167.947 36.2752 169.761Z" fill="#D1E0F2"/>
<path d="M43.4312 212.793C44.3585 212.71 44.8845 212.613 44.8845 212.613C44.8845 212.613 46.5316 178.633 47.0298 171.449C47.8326 164.044 48.4278 146.909 44.8845 143.975L43.5696 144.39C44.7599 145.096 46.4208 150.065 46.3793 157.276C46.3239 166.937 45.3412 178.674 44.8429 186.827C44.4277 193.844 43.6388 208.71 43.4312 212.793Z" fill="#D1E0F2"/>
<path d="M58.9193 162.383C59.2931 162.854 57.729 163.504 57.4522 163.989C58.4903 164.169 59.5976 164.058 59.6114 164.058C60.8709 163.684 62.1166 163.255 63.3346 162.757C63.7222 162.591 64.0129 163.186 63.6391 163.38C62.518 164.003 61.3692 164.584 60.1927 165.096C60.1927 165.11 60.1927 165.11 60.1927 165.11C61.4938 165.013 62.7948 164.847 64.0682 164.57C64.2205 164.543 64.3866 164.556 64.5388 164.639C65.7568 165.318 60.6218 166.134 60.1927 166.217C60.1927 166.217 60.1927 166.217 60.1927 166.231C61.4246 166.342 62.6703 166.314 63.8883 166.162C64.0682 166.134 64.262 166.176 64.4004 166.3C65.3831 167.089 60.2619 167.463 59.8052 167.421V167.435C60.7464 167.657 61.7291 167.781 62.698 167.837C62.8502 167.851 63.0025 167.906 63.127 168.017C64.0682 168.916 59.6391 168.612 59.21 168.529C58.6979 168.556 57.1477 169.138 54.8224 168.321C54.0888 168.072 53.7705 164.695 54.504 164.529C55.0577 164.404 56.0404 163.837 56.3449 163.671C56.8017 163.311 58.4072 161.857 58.9193 162.383Z" fill="#F99370"/>
<path d="M53.2029 168.889C53.7289 168.709 54.2548 168.529 54.8085 168.321C54.8915 167.851 55.4452 165.636 54.4901 164.529C31.7354 163.532 49.0783 155.892 43.5834 144.404C27.2509 145.484 19.0847 178.467 53.2029 168.889Z" fill="#E9F4FF"/>
<path d="M53.2029 168.889C53.7288 168.709 54.2548 168.529 54.8084 168.321C54.8915 167.851 55.4451 165.636 54.4901 164.529C54.4901 164.529 53.8673 164.46 53.2029 164.46C53.2029 164.473 54.324 166.453 53.2029 168.889Z" fill="#D1E0F2"/>
<path d="M49.2304 133.774C49.2581 133.774 49.2996 133.76 49.3134 133.718C49.701 132.86 50.6284 132.888 50.6284 132.888C50.6699 132.888 50.7252 132.846 50.7252 132.805C50.7252 132.75 50.6837 132.708 50.6422 132.708C50.6284 132.708 49.5903 132.68 49.1612 133.649C49.1474 133.691 49.1612 133.746 49.2027 133.774C49.2027 133.774 49.2166 133.774 49.2304 133.774Z" fill="#C16256"/>
<path d="M52.9263 132.736C52.9539 132.736 52.9816 132.722 52.9955 132.694C53.0232 132.653 53.0232 132.597 52.9816 132.57C52.9539 132.556 52.4695 132.182 51.639 132.473C51.5975 132.487 51.5698 132.542 51.5837 132.584C51.5975 132.625 51.6529 132.653 51.6944 132.639C52.4141 132.39 52.8432 132.694 52.8571 132.708C52.8847 132.736 52.9124 132.736 52.9263 132.736Z" fill="#C16256"/>
<path d="M44.8845 143.989C45.7011 145.151 52.7462 149.539 52.1372 143.767C52.068 143.753 51.2653 143.546 50.8085 143.546C50.8362 143.67 51.3621 146.798 46.4624 143.712C46.4624 143.684 45.2029 143.781 44.8845 143.989Z" fill="#D1A68F"/>
<path d="M86.2692 146.12C86.8229 146.355 85.7432 147.67 85.7156 148.224C86.726 147.906 87.6533 147.283 87.6533 147.283C88.5945 146.369 89.4803 145.4 90.3246 144.39C90.5876 144.058 91.1274 144.445 90.8783 144.805C90.1862 145.885 89.4388 146.937 88.636 147.947C88.6499 147.961 88.636 147.947 88.6499 147.961C89.7572 147.269 90.8229 146.508 91.8195 145.677C91.944 145.58 92.0963 145.511 92.2624 145.511C93.6603 145.539 89.4942 148.653 89.162 148.944C89.162 148.944 89.162 148.944 89.162 148.957C90.297 148.487 91.3904 147.878 92.4008 147.158C92.5531 147.047 92.733 147.006 92.9129 147.034C94.1448 147.269 89.8125 149.996 89.3696 150.162V150.175C90.3108 149.94 91.2243 149.58 92.1101 149.179C92.2485 149.11 92.4146 149.096 92.5669 149.137C93.8126 149.483 89.7572 151.297 89.3419 151.421C88.9129 151.684 87.3073 152.778 84.8713 153.151C84.11 153.262 83.0442 151.407 83.4041 150.466C83.6117 149.94 84.3453 148.75 84.5391 148.459C84.8297 147.933 85.5633 145.899 86.2692 146.12Z" fill="#F99370"/>
</svg>
