<svg width="360" height="164" viewBox="0 0 360 164" fill="none" xmlns="http://www.w3.org/2000/svg">
<path d="M128.22 134.615C115.529 127.307 110.062 114.135 113.54 102.761C115.901 95.0405 121.296 94.6423 126.079 87.1862C138.709 67.503 114.532 49.342 123.019 35.0395C130.857 21.8328 159.022 15.6346 181.122 19.9406C214.274 26.3994 231.266 56.0159 224.239 73.2677C218.677 86.9255 208.695 87.1228 210.853 95.9179C213.264 105.749 235.325 99.8115 237.062 113.438C241.596 149.041 150.117 147.226 128.22 134.615Z" fill="#E1F1FF"/>
<path d="M121.07 60.1742C119.056 55.826 116.947 51.5588 116.369 46.7455C115.738 41.5058 116.536 36.1216 118.755 31.3224C119.283 30.1772 117.564 29.2117 117.032 30.3604C115.064 34.617 114.075 39.2788 114.189 43.9653C114.306 48.7681 115.685 53.2079 117.673 57.5491C119.556 61.6612 121.75 65.7381 122.363 70.273C122.895 74.2019 122.459 78.2083 121.176 81.961C119.737 86.1648 117.188 89.9492 113.795 92.8386C112.827 93.6631 114.26 95.0197 115.217 94.2022C121.36 88.9661 124.792 80.8475 124.554 72.8382C124.42 68.3385 122.945 64.2264 121.07 60.1742Z" fill="#E1F1FF"/>
<path d="M115.025 132.87C110.147 126.651 107.499 118.884 107.46 111.006C107.45 108.754 107.677 106.513 108.105 104.304C108.347 103.06 106.404 102.704 106.163 103.948C104.585 112.077 105.833 120.713 109.626 128.081C110.704 130.171 111.955 132.155 113.409 134.008C114.189 135.002 115.809 133.874 115.022 132.873L115.025 132.87Z" fill="#E1F1FF"/>
<path d="M220.422 33.3087C215.537 26.0852 207.854 20.8843 199.269 19.1119C198.028 18.8546 197.496 20.7468 198.744 21.0076C206.819 22.6778 214.108 27.4876 218.716 34.3024C219.422 35.3454 221.134 34.3658 220.422 33.3122V33.3087Z" fill="#E1F1FF"/>
<path d="M235.218 65.752C235.158 62.711 234.594 59.6842 233.545 56.83C233.113 55.6531 231.202 56.1605 231.638 57.3515C234.963 66.3897 232.939 76.6824 226.274 83.6945C224.58 85.4774 222.648 86.9997 220.517 88.24C219.418 88.8778 220.414 90.5762 221.513 89.9349C230.067 84.963 235.41 75.6147 235.215 65.752H235.218Z" fill="#E1F1FF"/>
<path d="M236.016 101.799C234.949 101.105 233.956 102.803 235.02 103.494C239.798 106.609 242.457 112.638 241.468 118.244C241.248 119.481 243.156 120.013 243.375 118.766C244.524 112.25 241.592 105.432 236.019 101.799H236.016Z" fill="#E1F1FF"/>
<path d="M193.395 17.9006C191.98 17.4355 190.53 17.1536 189.052 17.0056C187.786 16.8822 187.797 18.8449 189.052 18.9718C190.356 19.1022 191.626 19.3876 192.87 19.7963C194.082 20.1945 194.6 18.2952 193.395 17.9006Z" fill="#E1F1FF"/>
<path d="M125.976 21.8826C124.26 22.6579 122.846 23.9123 121.814 25.4768C121.116 26.5374 122.824 27.5205 123.519 26.4669C124.373 25.1738 125.561 24.2153 126.972 23.5775C128.128 23.056 127.124 21.3611 125.976 21.8826Z" fill="#E1F1FF"/>
<path d="M189.881 163.999C231.46 163.999 265.166 160.58 265.166 156.363C265.166 152.146 231.46 148.728 189.881 148.728C148.303 148.728 114.596 152.146 114.596 156.363C114.596 160.58 148.303 163.999 189.881 163.999Z" fill="#D9EDFC"/>
<g style="mix-blend-mode:multiply">
<path d="M185.911 156.68C205.313 156.68 221.042 155.536 221.042 154.125C221.042 152.714 205.313 151.57 185.911 151.57C166.509 151.57 150.78 152.714 150.78 154.125C150.78 155.536 166.509 156.68 185.911 156.68Z" fill="#D9EDFC"/>
</g>
<path d="M140.454 96.4349C139.17 94.5392 138.277 92.3897 137.869 90.1381C137.678 89.0845 137.547 87.9781 137.649 86.8999L137.699 86.9879C137.926 87.1641 139.493 88.3622 141.007 87.8548C142.237 87.4425 142.917 86.0753 143.463 84.983C143.655 84.5989 143.786 84.2606 143.874 84.021C143.385 84.2642 142.641 84.5672 141.701 84.6729C140.957 84.7575 140.641 84.6588 140.149 84.7258C139.514 84.8103 138.67 85.1556 137.735 86.3114C137.937 85.2508 138.454 84.3029 139.025 83.3938C139.592 82.4917 140.22 81.6073 140.624 80.6136C140.932 79.856 141.053 79.0738 140.964 78.281C141.386 78.5946 142.8 79.5354 144.176 79.0738C145.406 78.6615 146.087 77.2943 146.632 76.202C146.824 75.8179 146.955 75.4796 147.044 75.24C146.554 75.4832 145.81 75.7862 144.871 75.8919C144.126 75.9765 143.811 75.8778 143.318 75.9448C142.669 76.0293 141.801 76.3888 140.84 77.6044C140.553 76.4733 140.028 75.3739 139.5 74.3415C139.238 73.8306 138.947 73.3408 138.656 72.851C139.206 73.228 140.475 73.9469 141.712 73.5346C142.942 73.1223 143.623 71.7551 144.169 70.6628C144.36 70.2787 144.491 69.9405 144.58 69.7008C144.091 69.944 143.346 70.247 142.407 70.3527C141.662 70.4373 141.347 70.3386 140.854 70.4056C140.184 70.4937 139.273 70.8777 138.273 72.2026C138.124 71.9489 137.976 71.6952 137.837 71.4345C137.224 70.3104 136.841 69.0842 137.203 67.8192L137.309 67.9989C137.536 68.1751 139.103 69.3731 140.617 68.8657C141.847 68.4535 142.527 67.0863 143.073 65.9939C143.265 65.6099 143.396 65.2716 143.485 65.032C142.995 65.2751 142.251 65.5781 141.311 65.6839C140.567 65.7684 140.251 65.6698 139.759 65.7367C139.142 65.8178 138.323 66.149 137.415 67.2343C137.784 66.3886 138.38 65.6451 139.007 64.958L139.344 65.0108C139.635 64.9474 141.638 64.4858 142.226 62.9389C142.705 61.6845 142.045 60.2398 141.521 59.084C141.336 58.6753 141.152 58.3511 141.01 58.1221C140.886 58.6753 140.638 59.4681 140.106 60.2891C139.684 60.941 139.397 61.1278 139.124 61.5647C138.752 62.1602 138.465 63.1433 138.88 64.8241C138.263 65.5006 137.685 66.223 137.295 67.0546C136.901 67.9002 136.784 68.8023 136.962 69.6973C136.636 69.1194 135.934 68.1434 134.838 67.9637C133.651 67.7699 132.499 68.5944 131.573 69.2533C131.247 69.4859 130.992 69.7044 130.818 69.8629C131.325 69.8735 132.066 69.951 132.881 70.2681C133.527 70.5183 133.743 70.7368 134.172 70.8954C134.774 71.1174 135.717 71.1949 137.178 70.4866V70.4479C137.515 71.3605 138.061 72.1815 138.561 73.0131C138.933 73.6333 139.273 74.2675 139.589 74.9194L139.557 74.8736C139.333 74.7291 137.777 73.7672 136.43 74.3732C135.335 74.8665 134.831 76.1879 134.431 77.245C134.289 77.6185 134.2 77.9392 134.14 78.1682C134.569 77.8969 135.228 77.5551 136.083 77.3683C136.76 77.2239 137.061 77.2838 137.508 77.1816C138.124 77.0371 138.936 76.5931 139.745 75.2506C139.936 75.6629 140.117 76.0787 140.28 76.5015C140.45 76.9349 140.595 77.3683 140.691 77.8088C140.68 77.8229 140.673 77.8335 140.663 77.8476L140.716 77.9392C140.847 78.6122 140.858 79.2923 140.656 79.9935C140.454 80.6912 140.11 81.336 139.73 81.9597L139.571 81.6989C139.358 81.5404 137.883 80.4586 136.49 80.959C135.359 81.3642 134.757 82.6433 134.275 83.6651C134.104 84.0245 133.991 84.3381 133.913 84.5637C134.363 84.3276 135.044 84.0351 135.912 83.9188C136.6 83.8272 136.894 83.9118 137.348 83.8413C137.876 83.7603 138.561 83.4784 139.312 82.6221C139.252 82.7173 139.192 82.8089 139.131 82.904C138.557 83.8026 137.976 84.7187 137.685 85.7511C137.603 86.0366 137.547 86.3255 137.508 86.618C137.508 86.6215 137.504 86.625 137.501 86.6285V86.6356C137.387 87.5694 137.458 88.5278 137.586 89.451C137.937 91.9845 138.88 94.4158 140.315 96.5336C140.383 96.6322 140.535 96.5265 140.468 96.4314L140.454 96.4349Z" fill="#62C0A6"/>
<path d="M141.443 135.283C139.34 136.21 137.054 136.706 134.757 136.717C133.679 136.721 132.559 136.657 131.513 136.368L131.609 136.333C131.825 136.143 133.286 134.818 133.044 133.246C132.85 131.971 131.616 131.065 130.627 130.343C130.279 130.089 129.967 129.902 129.744 129.775C129.9 130.297 130.07 131.079 130.014 132.016C129.967 132.76 129.815 133.052 129.794 133.546C129.765 134.18 129.964 135.068 130.942 136.185C129.925 135.804 129.078 135.131 128.276 134.413C127.479 133.701 126.717 132.929 125.802 132.365C125.104 131.932 124.352 131.678 123.551 131.625C123.934 131.266 125.114 130.047 124.898 128.623C124.703 127.348 123.469 126.442 122.48 125.72C122.133 125.466 121.821 125.276 121.598 125.152C121.754 125.674 121.924 126.456 121.867 127.393C121.821 128.137 121.669 128.429 121.647 128.923C121.619 129.571 121.825 130.484 122.86 131.636C121.69 131.72 120.509 132.041 119.393 132.379C118.843 132.545 118.304 132.746 117.769 132.947C118.237 132.475 119.173 131.358 118.978 130.075C118.783 128.799 117.549 127.894 116.56 127.171C116.213 126.918 115.901 126.731 115.678 126.604C115.834 127.126 116.004 127.908 115.947 128.845C115.901 129.589 115.748 129.881 115.727 130.374C115.699 131.047 115.919 132.002 117.06 133.214C116.784 133.317 116.504 133.415 116.223 133.51C115 133.912 113.724 134.074 112.53 133.503L112.728 133.433C112.944 133.243 114.405 131.918 114.164 130.346C113.969 129.071 112.735 128.165 111.746 127.443C111.399 127.189 111.087 126.999 110.863 126.875C111.019 127.397 111.19 128.179 111.133 129.116C111.087 129.86 110.934 130.152 110.913 130.646C110.885 131.266 111.073 132.122 111.991 133.2C111.214 132.693 110.587 131.981 110.013 131.245L110.126 130.924C110.115 130.628 110.006 128.584 108.577 127.742C107.418 127.055 105.872 127.446 104.635 127.76C104.199 127.869 103.844 127.992 103.593 128.091C104.117 128.31 104.862 128.69 105.581 129.356C106.152 129.881 106.29 130.198 106.673 130.54C107.198 131.009 108.123 131.463 109.86 131.347C110.424 132.069 111.037 132.763 111.792 133.285C112.562 133.817 113.434 134.088 114.352 134.071C113.721 134.289 112.632 134.804 112.264 135.847C111.863 136.974 112.48 138.246 112.973 139.265C113.146 139.624 113.317 139.909 113.444 140.11C113.543 139.613 113.749 138.905 114.203 138.162C114.564 137.573 114.82 137.401 115.05 137.006C115.376 136.456 115.617 135.547 115.171 133.993L115.132 133.986C116.092 133.814 117.003 133.422 117.914 133.081C118.592 132.827 119.283 132.601 119.981 132.408L119.932 132.432C119.751 132.626 118.528 133.983 118.893 135.406C119.191 136.566 120.41 137.288 121.389 137.862C121.732 138.067 122.037 138.211 122.254 138.306C122.062 137.838 121.835 137.136 121.8 136.266C121.775 135.579 121.888 135.293 121.864 134.839C121.828 134.212 121.53 133.338 120.339 132.312C120.779 132.196 121.225 132.094 121.672 132.006C122.129 131.914 122.587 131.847 123.037 131.83C123.048 131.84 123.058 131.851 123.069 131.861L123.168 131.826C123.856 131.816 124.533 131.925 125.192 132.245C125.848 132.563 126.43 133.014 126.979 133.493L126.695 133.602C126.5 133.782 125.175 135.04 125.426 136.488C125.632 137.665 126.795 138.479 127.723 139.131C128.05 139.36 128.34 139.529 128.553 139.642C128.397 139.159 128.227 138.44 128.262 137.573C128.291 136.886 128.425 136.608 128.436 136.153C128.447 135.621 128.287 134.902 127.567 134.018C127.649 134.092 127.734 134.169 127.816 134.243C128.603 134.962 129.414 135.688 130.386 136.157C130.655 136.284 130.932 136.393 131.215 136.481C131.215 136.481 131.222 136.488 131.226 136.492H131.237C132.141 136.77 133.101 136.865 134.041 136.904C136.611 137.002 139.184 136.506 141.535 135.466C141.645 135.417 141.567 135.251 141.46 135.301L141.443 135.283Z" fill="#62C0A6"/>
<path d="M142.201 92.3721C140.744 89.0739 138.787 86.1704 136.646 83.6439C136.604 83.5981 136.575 83.5594 136.536 83.5136C135.834 82.6855 135.108 81.9032 134.37 81.1633C133.789 82.7384 132.658 83.5981 131.205 84.0351C132.587 82.6045 132.828 80.9237 132.02 79.0209C131.985 78.9434 131.928 78.8623 131.861 78.8059C129.879 77.0688 127.922 75.6241 126.185 74.4648C126.132 74.4366 126.086 74.4049 126.04 74.3732C123.016 72.3788 120.69 71.2723 120.183 71.0327C120.116 71.001 120.077 70.9834 120.077 70.9834C120.077 70.9834 120.063 71.0222 120.041 71.0926C119.793 71.8714 118.276 76.8468 117.939 83.4219C117.939 83.4748 117.932 83.5277 117.936 83.5805C117.854 85.3987 117.854 87.3403 118 89.3417C118.393 91.2868 119.822 92.062 120.86 92.2804C119.925 92.5729 119.045 92.5694 118.265 91.9245C118.705 95.1205 119.524 98.4363 120.942 101.646C120.981 101.734 121.023 101.83 121.07 101.914L121.151 102.097C121.92 103.764 122.814 105.336 123.799 106.805C123.831 106.854 123.859 106.893 123.888 106.935C130.772 117.15 141.772 122.44 142.953 122.986C143.02 123.017 143.059 123.035 143.059 123.035C143.059 123.035 143.073 122.996 143.095 122.926C143.311 122.246 144.449 118.518 144.981 113.334C144.988 113.278 144.991 113.236 144.998 113.179C145.161 111.544 145.264 109.768 145.25 107.897C145.25 107.802 145.25 107.707 145.25 107.612C145.229 105.124 145.016 102.492 144.491 99.8035C143.577 100.17 142.815 100.452 142.815 100.452L143.917 97.3052C143.477 95.6632 142.91 94 142.191 92.3721H142.201ZM120.063 76.0575C120.13 75.8284 120.378 75.6981 120.602 75.7685C120.832 75.8355 120.96 76.0751 120.892 76.3041C120.825 76.5332 120.584 76.66 120.353 76.5931C120.134 76.5226 119.995 76.2865 120.063 76.0575ZM120.119 77.5233C120.463 77.3718 120.86 77.5233 121.009 77.8686C121.162 78.2104 121.009 78.6121 120.665 78.7637C120.322 78.9152 119.914 78.7566 119.761 78.4148C119.609 78.073 119.772 77.6748 120.119 77.5233ZM122.502 92.9852C122.739 92.8795 123.012 92.9922 123.119 93.2318C123.218 93.4609 123.119 93.7357 122.881 93.8379C122.644 93.9436 122.371 93.8309 122.271 93.6018C122.165 93.3657 122.268 93.0909 122.505 92.9852H122.502ZM121.75 95.1064C122.165 94.9267 122.651 95.1135 122.828 95.5187C123.009 95.931 122.821 96.4137 122.406 96.5934C121.998 96.7696 121.516 96.5828 121.332 96.1706C121.155 95.7653 121.343 95.2861 121.75 95.1064ZM134.519 82.5093C134.633 82.46 134.76 82.5093 134.813 82.6221C134.863 82.7348 134.817 82.8722 134.704 82.9216C134.59 82.9709 134.459 82.9145 134.406 82.7983C134.356 82.6855 134.406 82.5586 134.519 82.5058V82.5093ZM130.24 79.8454C130.506 79.7291 130.811 79.8454 130.928 80.1132C131.045 80.3775 130.928 80.6805 130.659 80.7968C130.393 80.9131 130.088 80.7968 129.971 80.529C129.854 80.2647 129.971 79.9617 130.24 79.8454ZM130.4 81.8328C130.506 81.787 130.641 81.8328 130.694 81.9455C130.744 82.0583 130.691 82.1992 130.584 82.245C130.471 82.2944 130.329 82.2415 130.279 82.1252C130.23 82.0125 130.287 81.8821 130.404 81.8292L130.4 81.8328Z" fill="#96E1ED"/>
<path d="M134.044 89.3215L137.61 88.6062L137.632 88.7542L133.959 89.4977L131.095 95.7522L134.342 103.106L137.66 96.0658L137.791 96.1257L134.424 103.293L140.053 116.038L145.253 107.62C145.253 107.715 145.253 107.81 145.253 107.905L141.957 113.247L145.002 113.187C144.995 113.244 144.991 113.286 144.984 113.342L141.857 113.406L140.127 116.207L143.134 123.015L142.992 123.078L138.621 113.184L134.158 111.658L134.207 111.51L138.536 112.997L135.515 106.154L129.585 104.484C128.262 105.051 125.508 106.242 123.888 106.95C123.859 106.912 123.831 106.869 123.799 106.82C125.515 106.069 128.457 104.797 129.347 104.42L121.151 102.112L121.07 101.929L135.434 105.974L129.407 92.3237L124.799 91.8057L124.82 91.6612L129.34 92.1651L126.784 86.3792L117.936 83.5991C117.936 83.5462 117.943 83.4934 117.939 83.4405L122.339 84.8253C121.527 83.2996 120.371 81.1325 120.275 81.0162L120.329 80.9704V80.9598L120.279 80.907L120.346 80.8894C120.392 80.8999 120.442 80.9105 122.548 84.8922L126.703 86.196L120.041 71.1112C120.063 71.0407 120.077 71.002 120.077 71.002C120.077 71.002 120.116 71.016 120.183 71.0513L125.412 82.8908L126.04 74.3917C126.086 74.4234 126.132 74.4551 126.185 74.4833L125.543 83.1868L131.017 95.5795L136.536 83.5321C136.579 83.5779 136.607 83.6167 136.646 83.6625L134.044 89.3391V89.3215Z" fill="#3B87A0"/>
<path d="M131.098 104.895C128.383 102.51 125.384 100.691 122.374 99.289C122.317 99.2643 122.275 99.2397 122.218 99.2185C121.233 98.7604 120.24 98.3517 119.262 97.9888C119.4 99.6625 118.737 100.913 117.599 101.914C118.251 100.036 117.758 98.4151 116.224 97.0233C116.16 96.9669 116.075 96.9176 115.99 96.8929C113.458 96.1424 111.073 95.6455 109.006 95.3178C108.946 95.3178 108.889 95.3037 108.832 95.2931C105.245 94.7435 102.667 94.7082 102.107 94.7012C102.033 94.7012 101.99 94.7012 101.99 94.7012C101.99 94.7012 101.99 94.7435 102.005 94.8175C102.107 95.6279 102.831 100.776 105.301 106.886C105.326 106.932 105.34 106.985 105.365 107.03C106.056 108.718 106.879 110.477 107.854 112.235C109.034 113.838 110.658 113.944 111.689 113.711C110.963 114.367 110.165 114.73 109.183 114.469C110.931 117.186 113.076 119.853 115.717 122.175C115.787 122.239 115.869 122.309 115.947 122.365L116.099 122.499C117.5 123.694 118.974 124.747 120.492 125.667C120.541 125.699 120.584 125.724 120.626 125.748C131.187 132.151 143.407 132.366 144.708 132.369C144.782 132.369 144.824 132.369 144.824 132.369C144.824 132.369 144.825 132.33 144.81 132.253C144.718 131.545 144.179 127.686 142.474 122.76C142.456 122.707 142.442 122.669 142.425 122.612C141.882 121.058 141.226 119.406 140.425 117.711C140.386 117.626 140.347 117.538 140.305 117.453C139.234 115.205 137.929 112.901 136.32 110.681C135.647 111.396 135.072 111.967 135.072 111.967L134.746 108.651C133.651 107.344 132.438 106.069 131.098 104.892V104.895ZM104.117 99.3172C104.082 99.0811 104.252 98.8591 104.486 98.8309C104.724 98.7957 104.94 98.9613 104.975 99.1974C105.011 99.4335 104.844 99.6484 104.607 99.6836C104.376 99.7118 104.153 99.5533 104.117 99.3172ZM104.787 100.624C105.036 100.343 105.461 100.318 105.741 100.565C106.025 100.811 106.056 101.241 105.805 101.519C105.557 101.801 105.117 101.826 104.837 101.579C104.553 101.333 104.536 100.903 104.784 100.624H104.787ZM113.476 113.666C113.65 113.472 113.944 113.461 114.139 113.63C114.327 113.796 114.352 114.088 114.178 114.282C114.004 114.476 113.71 114.487 113.522 114.321C113.327 114.148 113.302 113.859 113.476 113.666ZM113.689 115.903C113.99 115.565 114.508 115.533 114.841 115.826C115.181 116.125 115.213 116.64 114.912 116.978C114.618 117.309 114.1 117.341 113.76 117.041C113.427 116.749 113.395 116.234 113.689 115.903ZM119.963 99.141C120.049 99.0458 120.183 99.0388 120.275 99.1234C120.371 99.2079 120.385 99.3489 120.3 99.4405C120.219 99.5356 120.073 99.5356 119.978 99.4546C119.885 99.3736 119.875 99.2361 119.96 99.1445L119.963 99.141ZM114.954 98.5067C115.146 98.2918 115.476 98.2706 115.692 98.4609C115.908 98.6512 115.929 98.9789 115.738 99.1938C115.546 99.4088 115.217 99.4299 115 99.2397C114.784 99.0494 114.763 98.7217 114.954 98.5067ZM115.936 100.244C116.014 100.159 116.156 100.142 116.248 100.226C116.344 100.307 116.351 100.459 116.273 100.543C116.188 100.639 116.039 100.646 115.947 100.565C115.851 100.484 115.851 100.339 115.933 100.244H115.936Z" fill="#6AB3C6"/>
<path d="M122.41 105.525L125.345 103.387L125.426 103.51L122.406 105.716L122.445 112.587L128.496 117.908L128.539 110.134H128.684L128.649 118.042L139.135 127.263L140.305 117.453C140.344 117.538 140.383 117.626 140.425 117.71L139.684 123.933L142.425 122.608C142.442 122.661 142.456 122.7 142.474 122.756L139.663 124.12L139.277 127.383L144.878 132.309L144.775 132.425L136.632 125.265L131.939 125.741L131.921 125.586L136.48 125.131L130.85 120.18L124.76 121.135C123.799 122.199 121.8 124.433 120.626 125.748C120.584 125.723 120.541 125.698 120.492 125.667C121.732 124.271 123.867 121.889 124.515 121.178L116.099 122.499L115.947 122.365L130.694 120.047L119.46 110.17L115.057 111.621L115.015 111.48L119.329 110.053L114.568 105.864L105.362 107.03C105.337 106.984 105.323 106.931 105.298 106.886L109.878 106.308C108.499 105.261 106.532 103.774 106.397 103.707L106.429 103.644L106.422 103.637L106.358 103.605L106.411 103.563C106.457 103.552 106.507 103.542 110.098 106.28L114.419 105.73L102.008 94.8135C101.998 94.7396 101.994 94.6973 101.994 94.6973C101.994 94.6973 102.036 94.6973 102.111 94.6973L111.853 103.263L108.836 95.2892C108.893 95.2998 108.946 95.3104 109.009 95.3139L112.101 103.482L122.3 112.45L122.225 99.2111C122.282 99.2358 122.324 99.2604 122.381 99.2816L122.417 105.518L122.41 105.525Z" fill="#96E1ED"/>
<path d="M96.8856 111.382C97.2153 110.712 96.9352 109.909 96.2652 109.581C95.5917 109.253 94.7834 109.532 94.4537 110.198C94.124 110.867 94.4041 111.67 95.0741 111.998C95.7477 112.326 96.5559 112.047 96.8856 111.382Z" fill="#96E1ED"/>
<path d="M107.354 121.352C107.531 120.996 107.382 120.566 107.024 120.39C106.666 120.214 106.234 120.362 106.057 120.717C105.879 121.073 106.028 121.503 106.386 121.679C106.744 121.856 107.177 121.708 107.354 121.352Z" fill="#96E1ED"/>
<path d="M112.615 87.2443C112.792 86.8884 112.643 86.4585 112.285 86.2823C111.927 86.1062 111.494 86.2542 111.317 86.61C111.143 86.9659 111.289 87.3958 111.647 87.572C112.005 87.7447 112.437 87.6002 112.615 87.2443Z" fill="#96E1ED"/>
<path d="M148.628 85.4865C148.802 85.1306 148.657 84.7007 148.299 84.5245C147.941 84.3483 147.508 84.4963 147.331 84.8522C147.154 85.2081 147.302 85.638 147.661 85.8142C148.019 85.9904 148.451 85.8424 148.628 85.4865Z" fill="#96E1ED"/>
<path d="M223.768 95.0842C225.381 93.4563 226.654 91.5042 227.476 89.3688C227.859 88.3681 228.192 87.304 228.291 86.2257L228.224 86.3032C227.969 86.4371 226.207 87.3251 224.814 86.5499C223.679 85.9192 223.265 84.4498 222.931 83.2764C222.814 82.8641 222.747 82.5082 222.708 82.2545C223.144 82.5858 223.821 83.0157 224.722 83.294C225.438 83.5125 225.767 83.4737 226.239 83.6288C226.845 83.8261 227.614 84.3229 228.32 85.6302C228.32 84.5485 227.986 83.5266 227.593 82.5259C227.203 81.5322 226.749 80.5526 226.537 79.5026C226.377 78.6992 226.402 77.9099 226.636 77.1487C226.164 77.3778 224.597 78.0438 223.332 77.3426C222.197 76.7118 221.783 75.2424 221.45 74.0691C221.333 73.6568 221.265 73.3009 221.226 73.0472C221.662 73.3784 222.339 73.8083 223.24 74.0867C223.956 74.3051 224.285 74.2664 224.757 74.4214C225.377 74.6223 226.164 75.1367 226.884 76.5074C227.377 75.4468 228.096 74.4637 228.809 73.544C229.16 73.0895 229.536 72.6596 229.915 72.2332C229.305 72.501 227.923 72.9803 226.785 72.346C225.65 71.7153 225.236 70.2459 224.902 69.0725C224.785 68.6602 224.718 68.3043 224.679 68.0506C225.115 68.3819 225.792 68.8118 226.693 69.0901C227.409 69.3086 227.738 69.2698 228.21 69.4249C228.851 69.6363 229.674 70.1789 230.415 71.6659C230.61 71.4439 230.801 71.2219 230.986 70.9929C231.797 69.9992 232.4 68.8646 232.279 67.5538L232.141 67.7124C231.886 67.8463 230.124 68.7378 228.731 67.959C227.597 67.3283 227.182 65.8589 226.849 64.6855C226.732 64.2733 226.664 63.9174 226.625 63.6637C227.061 63.9949 227.738 64.4248 228.639 64.7032C229.355 64.9216 229.685 64.8829 230.156 65.0379C230.748 65.2317 231.492 65.7074 232.184 66.9407C231.978 66.0422 231.531 65.2035 231.042 64.4107L230.702 64.4036C230.425 64.2874 228.543 63.4664 228.252 61.8419C228.015 60.5206 228.929 59.2203 229.66 58.1809C229.918 57.8144 230.16 57.529 230.337 57.3281C230.358 57.8954 230.454 58.72 230.826 59.6256C231.12 60.3409 231.368 60.5805 231.556 61.0562C231.812 61.7116 231.914 62.7299 231.191 64.305C231.673 65.0837 232.109 65.9012 232.333 66.7856C232.563 67.6877 232.51 68.5968 232.17 69.4425C232.599 68.9316 233.467 68.1 234.577 68.1246C235.778 68.1493 236.76 69.1712 237.547 69.9887C237.824 70.2776 238.033 70.5384 238.178 70.7286C237.675 70.6476 236.938 70.5842 236.076 70.7498C235.396 70.8801 235.14 71.0528 234.69 71.1303C234.055 71.2396 233.116 71.1409 231.812 70.1789L231.819 70.1402C231.315 70.9753 230.627 71.6835 229.986 72.4094C229.507 72.9521 229.05 73.5123 228.621 74.0937L228.66 74.055C228.908 73.9563 230.613 73.2939 231.826 74.136C232.811 74.8196 233.059 76.2115 233.258 77.3214C233.329 77.7125 233.357 78.0473 233.371 78.2834C232.999 77.9381 232.418 77.48 231.609 77.1417C230.971 76.8739 230.663 76.881 230.245 76.6942C229.667 76.4405 228.951 75.8556 228.405 74.3862C228.142 74.7562 227.887 75.1332 227.646 75.5173C227.398 75.9119 227.175 76.3136 227.001 76.7259C227.008 76.74 227.015 76.7541 227.022 76.7682L226.951 76.8492C226.7 77.487 226.561 78.153 226.629 78.8789C226.696 79.6012 226.916 80.2989 227.175 80.979L227.38 80.7535C227.618 80.6337 229.27 79.8444 230.546 80.5914C231.585 81.1974 231.939 82.5646 232.223 83.657C232.322 84.041 232.379 84.3723 232.411 84.6084C232.014 84.2947 231.397 83.8825 230.564 83.6076C229.904 83.3892 229.599 83.4209 229.167 83.2694C228.664 83.0932 228.043 82.688 227.462 81.7084C227.504 81.8106 227.547 81.9163 227.586 82.0185C227.983 83.0051 228.384 84.0164 228.479 85.084C228.504 85.38 228.508 85.6725 228.49 85.9685C228.49 85.972 228.493 85.9755 228.497 85.9791L228.49 85.9861C228.437 86.9234 228.189 87.8537 227.891 88.7416C227.079 91.1659 225.7 93.3858 223.896 95.204C223.81 95.2886 223.683 95.1582 223.764 95.0736L223.768 95.0842Z" fill="#62C0A6"/>
<path d="M215.593 133.082C217.486 134.379 219.642 135.285 221.9 135.715C222.96 135.915 224.069 136.056 225.154 135.965L225.069 135.912C224.892 135.686 223.704 134.115 224.229 132.617C224.654 131.398 226.037 130.736 227.143 130.207C227.533 130.02 227.873 129.893 228.114 129.809C227.862 130.295 227.554 131.028 227.437 131.962C227.345 132.698 227.437 133.015 227.37 133.505C227.278 134.132 226.923 134.971 225.75 135.891C226.82 135.7 227.777 135.197 228.696 134.636C229.61 134.083 230.503 133.466 231.507 133.075C232.272 132.779 233.059 132.667 233.857 132.762C233.549 132.339 232.613 130.922 233.091 129.562C233.517 128.343 234.899 127.681 236.005 127.152C236.395 126.965 236.736 126.838 236.977 126.754C236.725 127.24 236.417 127.973 236.3 128.907C236.207 129.643 236.3 129.96 236.232 130.45C236.14 131.092 235.768 131.951 234.538 132.896C235.672 133.192 236.771 133.724 237.81 134.263C238.32 134.527 238.813 134.82 239.302 135.116C238.93 134.566 238.217 133.297 238.646 132.071C239.075 130.852 240.454 130.189 241.56 129.661C241.95 129.474 242.291 129.347 242.532 129.263C242.28 129.749 241.972 130.482 241.855 131.416C241.762 132.152 241.855 132.469 241.787 132.959C241.691 133.625 241.298 134.524 239.951 135.507C240.206 135.658 240.458 135.806 240.717 135.951C241.844 136.571 243.07 136.962 244.347 136.62L244.166 136.514C243.989 136.289 242.801 134.717 243.326 133.22C243.751 132.001 245.134 131.338 246.24 130.81C246.63 130.623 246.97 130.496 247.211 130.411C246.959 130.898 246.651 131.631 246.534 132.564C246.442 133.301 246.534 133.618 246.467 134.108C246.378 134.721 246.038 135.531 244.935 136.423C245.789 136.067 246.541 135.482 247.239 134.865L247.19 134.531C247.257 134.242 247.743 132.254 249.303 131.687C250.572 131.225 252.018 131.891 253.174 132.427C253.581 132.614 253.907 132.801 254.138 132.941C253.581 133.061 252.78 133.297 251.947 133.819C251.288 134.231 251.096 134.517 250.657 134.781C250.054 135.144 249.061 135.422 247.374 134.992C246.686 135.598 245.953 136.166 245.116 136.543C244.262 136.927 243.354 137.032 242.454 136.849C243.035 137.18 244.01 137.885 244.176 138.978C244.361 140.158 243.521 141.3 242.847 142.209C242.61 142.529 242.39 142.78 242.227 142.952C242.22 142.448 242.152 141.712 241.84 140.898C241.592 140.253 241.376 140.035 241.22 139.608C241 139.006 240.933 138.068 241.66 136.624H241.699C240.784 136.278 239.962 135.729 239.132 135.225C238.512 134.851 237.877 134.502 237.225 134.185L237.271 134.217C237.413 134.443 238.363 135.996 237.742 137.332C237.235 138.417 235.902 138.904 234.835 139.291C234.46 139.429 234.134 139.513 233.903 139.569C234.18 139.147 234.531 138.495 234.726 137.646C234.878 136.973 234.821 136.673 234.928 136.229C235.08 135.619 235.534 134.816 236.892 134.023C236.48 133.829 236.062 133.646 235.637 133.477C235.204 133.304 234.768 133.153 234.325 133.054C234.311 133.065 234.3 133.072 234.286 133.082L234.194 133.03C233.52 132.892 232.833 132.875 232.127 133.068C231.422 133.262 230.769 133.597 230.142 133.967L230.401 134.129C230.56 134.34 231.631 135.82 231.113 137.198C230.695 138.319 229.401 138.907 228.366 139.376C228.001 139.541 227.685 139.654 227.458 139.725C227.699 139.281 228.001 138.604 228.128 137.744C228.228 137.064 228.146 136.768 228.22 136.317C228.306 135.792 228.6 135.116 229.468 134.379C229.373 134.439 229.277 134.499 229.185 134.555C228.277 135.119 227.345 135.683 226.303 135.965C226.016 136.042 225.725 136.095 225.431 136.13C225.427 136.13 225.423 136.134 225.42 136.137H225.413C224.473 136.243 223.509 136.162 222.58 136.025C220.035 135.651 217.596 134.689 215.48 133.241C215.381 133.174 215.487 133.023 215.586 133.089L215.593 133.082Z" fill="#62C0A6"/>
<path d="M220.191 95.3026L220.691 98.5972C220.691 98.5972 219.993 98.1814 219.163 97.6529C218.153 100.2 217.454 102.752 216.972 105.19C216.954 105.282 216.937 105.377 216.919 105.468C216.557 107.304 216.331 109.07 216.189 110.708C216.189 110.764 216.178 110.807 216.178 110.863C215.739 116.053 216.167 119.926 216.253 120.638C216.26 120.712 216.267 120.754 216.267 120.754C216.267 120.754 216.306 120.747 216.38 120.726C217.642 120.405 229.433 117.22 238.093 108.442C238.129 108.407 238.164 108.375 238.203 108.333C239.444 107.072 240.614 105.69 241.681 104.189L241.794 104.024C241.858 103.95 241.918 103.862 241.971 103.784C243.96 100.888 245.378 97.7797 246.403 94.7212C245.516 95.211 244.651 95.0559 243.787 94.5978C244.846 94.5732 246.392 94.0728 247.14 92.2335C247.654 90.2919 248.016 88.3856 248.271 86.5815C248.282 86.5322 248.285 86.4758 248.296 86.4229C249.186 79.8971 248.615 74.7314 248.516 73.921C248.508 73.847 248.501 73.8047 248.501 73.8047C248.501 73.8047 248.462 73.8117 248.388 73.8329C247.846 73.9773 245.357 74.6363 242.014 76.0457C241.964 76.0704 241.911 76.0915 241.851 76.1092C239.93 76.9337 237.739 77.9943 235.47 79.3404C235.395 79.3826 235.325 79.4496 235.275 79.5236C234.126 81.2467 234.052 82.938 235.147 84.6012C233.8 83.907 232.847 82.857 232.57 81.2009C231.709 81.7893 230.851 82.4306 230.007 83.1142C229.957 83.1495 229.922 83.1847 229.876 83.2234C227.306 85.3165 224.842 87.8113 222.8 90.7852C221.793 92.2546 220.928 93.7839 220.191 95.3167V95.3026ZM247.2 79.2593C246.963 79.284 246.75 79.1149 246.725 78.8788C246.7 78.6427 246.871 78.4313 247.108 78.4066C247.339 78.3784 247.558 78.5511 247.583 78.7872C247.608 79.0232 247.431 79.2311 247.2 79.2593ZM247.441 81.1551C247.229 81.4651 246.8 81.5462 246.488 81.3348C246.176 81.1233 246.105 80.7005 246.314 80.3939C246.527 80.0839 246.942 80.0063 247.254 80.2178C247.565 80.4292 247.651 80.8485 247.438 81.1586L247.441 81.1551ZM242.163 95.6232C242.021 95.8311 241.734 95.891 241.518 95.743C241.301 95.5986 241.255 95.3096 241.397 95.1017C241.543 94.8868 241.833 94.8269 242.046 94.9714C242.262 95.1158 242.308 95.4048 242.163 95.6197V95.6232ZM242.606 98.3188C242.351 98.6923 241.84 98.7875 241.472 98.5373C241.096 98.2836 241 97.7762 241.255 97.4027C241.507 97.0362 242.018 96.9411 242.39 97.1948C242.758 97.445 242.854 97.9524 242.602 98.3153L242.606 98.3188ZM232.237 82.783C232.166 82.8852 232.028 82.9204 231.921 82.8499C231.819 82.7795 231.797 82.6385 231.868 82.5363C231.939 82.4341 232.074 82.4095 232.177 82.48C232.279 82.5504 232.304 82.6843 232.233 82.7865L232.237 82.783ZM237.016 81.363C236.852 81.6026 236.53 81.6625 236.289 81.5004C236.048 81.3383 235.988 81.0176 236.151 80.778C236.314 80.5384 236.636 80.4785 236.877 80.6406C237.118 80.8027 237.179 81.1233 237.016 81.363ZM236.42 82.8781C236.349 82.9803 236.2 83.0085 236.097 82.938C236.002 82.8746 235.973 82.7266 236.044 82.6244C236.115 82.5222 236.257 82.5011 236.353 82.568C236.455 82.6385 236.491 82.7759 236.42 82.8817V82.8781Z" fill="#96E1ED"/>
<path d="M231.383 89.2625L228.008 87.9058L227.958 88.0468L231.429 89.4492L233.084 96.1195L228.529 102.751L226.572 95.2245L226.434 95.2562L228.415 102.917L220.521 114.414L216.969 105.189C216.951 105.281 216.933 105.376 216.915 105.468L219.167 111.321L216.185 110.704C216.185 110.76 216.175 110.803 216.175 110.859L219.237 111.493L220.418 114.562L216.203 120.704L216.331 120.792L222.46 111.867L227.129 111.183L227.107 111.028L222.577 111.698L226.813 105.524L232.953 104.967C234.148 105.767 236.636 107.441 238.097 108.435C238.132 108.399 238.168 108.368 238.207 108.325C236.657 107.275 234.002 105.485 233.198 104.953L241.681 104.185L241.794 104.02L226.926 105.366L235.381 93.0504L240.008 93.3852L240.015 93.2372L235.481 92.9059L239.065 87.6839L248.274 86.5704C248.285 86.521 248.289 86.4647 248.299 86.4118L243.719 86.9686C244.797 85.619 246.339 83.6986 246.452 83.5999L246.406 83.5471L246.413 83.54L246.466 83.4942L246.406 83.4625C246.357 83.4625 246.311 83.466 243.503 86.9932L239.178 87.5147L248.519 73.9063C248.512 73.8323 248.505 73.79 248.505 73.79C248.505 73.79 248.466 73.7971 248.391 73.8182L241.06 84.4985L242.018 76.0311C241.968 76.0558 241.915 76.0769 241.854 76.0945L240.872 84.7663L233.198 95.9469L230.007 83.096C229.957 83.1313 229.922 83.1665 229.876 83.2053L231.379 89.2625H231.383Z" fill="#3B87A0"/>
<path d="M227.111 108.135L226.175 111.334C226.175 111.334 225.718 110.665 225.186 109.84C223.194 111.729 221.485 113.755 220.017 115.771C219.964 115.848 219.907 115.926 219.854 116.003C218.752 117.522 217.802 119.027 216.983 120.454C216.958 120.503 216.933 120.538 216.905 120.588C214.313 125.116 213.069 128.812 212.849 129.492C212.825 129.562 212.814 129.601 212.814 129.601C212.814 129.601 212.853 129.612 212.927 129.622C214.207 129.858 226.257 131.881 237.824 127.526C237.87 127.508 237.916 127.494 237.973 127.473C239.632 126.846 241.277 126.077 242.875 125.161L243.049 125.059C243.138 125.017 243.23 124.964 243.312 124.915C246.339 123.114 248.937 120.887 251.16 118.537C250.146 118.614 249.43 118.11 248.838 117.332C249.809 117.751 251.426 117.945 252.883 116.585C254.17 115.038 255.301 113.456 256.293 111.926C256.325 111.884 256.35 111.835 256.382 111.796C259.941 106.243 261.604 101.313 261.859 100.538C261.884 100.467 261.894 100.429 261.894 100.429C261.894 100.429 261.855 100.418 261.781 100.408C261.228 100.312 258.69 99.872 255.063 99.7592C255.006 99.7592 254.95 99.7592 254.889 99.7522C252.798 99.6993 250.359 99.7486 247.732 100.023C247.647 100.031 247.555 100.062 247.477 100.108C245.708 101.193 244.924 102.698 245.219 104.664C244.286 103.473 243.868 102.12 244.311 100.503C243.28 100.679 242.23 100.901 241.177 101.169C241.117 101.183 241.071 101.197 241.011 101.211C237.792 102.039 234.506 103.276 231.397 105.126C229.862 106.038 228.433 107.067 227.114 108.153L227.111 108.135ZM258.399 104.833C258.172 104.756 258.052 104.516 258.13 104.291C258.208 104.065 258.449 103.945 258.676 104.023C258.899 104.093 259.026 104.34 258.945 104.565C258.867 104.791 258.619 104.904 258.399 104.833ZM257.818 106.655C257.495 106.849 257.07 106.74 256.878 106.419C256.683 106.098 256.797 105.682 257.119 105.492C257.442 105.298 257.853 105.404 258.048 105.725C258.243 106.045 258.144 106.461 257.821 106.655H257.818ZM246.92 117.589C246.704 117.716 246.417 117.652 246.286 117.43C246.151 117.208 246.229 116.927 246.445 116.8C246.669 116.666 246.956 116.733 247.09 116.955C247.225 117.177 247.147 117.459 246.924 117.592L246.92 117.589ZM246.183 120.221C245.793 120.454 245.29 120.327 245.063 119.946C244.829 119.559 244.956 119.058 245.346 118.826C245.729 118.6 246.233 118.724 246.463 119.111C246.69 119.492 246.566 119.992 246.183 120.218V120.221ZM243.326 101.796C243.219 101.859 243.078 101.831 243.014 101.725C242.95 101.62 242.992 101.482 243.099 101.419C243.205 101.355 243.34 101.387 243.404 101.496C243.467 101.602 243.436 101.736 243.326 101.799V101.796ZM248.264 102.497C248.016 102.645 247.697 102.564 247.548 102.317C247.399 102.071 247.48 101.754 247.729 101.606C247.977 101.458 248.296 101.539 248.445 101.785C248.594 102.032 248.512 102.349 248.264 102.497ZM247.083 103.625C246.977 103.688 246.832 103.653 246.764 103.544C246.704 103.445 246.743 103.3 246.849 103.237C246.956 103.174 247.094 103.216 247.154 103.315C247.218 103.42 247.19 103.561 247.083 103.625Z" fill="#6AB3C6"/>
<path d="M239.816 107.321L237.328 104.682L237.225 104.788L239.784 107.508L238.473 114.252L231.539 118.375L232.939 110.725L232.797 110.697L231.365 118.477L219.347 125.623L220.017 115.768C219.964 115.845 219.908 115.923 219.854 116L219.429 122.255L216.983 120.454C216.958 120.503 216.933 120.539 216.905 120.588L219.415 122.441L219.191 125.718L212.771 129.535L212.849 129.665L222.18 124.119L226.707 125.447L226.753 125.299L222.357 124.017L228.809 120.179L234.616 122.234C235.364 123.456 236.913 126.014 237.824 127.526C237.87 127.508 237.916 127.494 237.973 127.473C237.012 125.873 235.357 123.143 234.85 122.322L242.876 125.162L243.049 125.06L228.983 120.081L241.855 112.427L245.914 114.661L245.981 114.531L242.003 112.339L247.459 109.094L256.29 111.923C256.322 111.881 256.347 111.832 256.378 111.793L251.986 110.387C253.535 109.612 255.744 108.509 255.889 108.47L255.871 108.403H255.879L255.946 108.378L255.903 108.326C255.857 108.308 255.815 108.29 251.777 110.32L247.633 108.992L261.855 100.535C261.88 100.464 261.891 100.426 261.891 100.426C261.891 100.426 261.852 100.415 261.777 100.404L250.614 107.043L255.056 99.7561C254.999 99.7561 254.943 99.7561 254.882 99.749L250.331 107.212L238.646 114.161L241.174 101.166C241.114 101.18 241.068 101.194 241.007 101.208L239.816 107.332V107.321Z" fill="#96E1ED"/>
<path d="M263.816 117.752C263.617 117.036 264.039 116.293 264.759 116.096C265.478 115.898 266.226 116.318 266.425 117.033C266.623 117.748 266.202 118.492 265.482 118.689C264.762 118.886 264.014 118.467 263.816 117.752Z" fill="#96E1ED"/>
<path d="M251.681 125.631C251.575 125.251 251.802 124.852 252.185 124.747C252.571 124.641 252.968 124.867 253.074 125.247C253.181 125.628 252.954 126.026 252.571 126.132C252.188 126.237 251.788 126.012 251.681 125.631Z" fill="#96E1ED"/>
<path d="M252.83 91.1478C252.723 90.7637 252.95 90.3691 253.333 90.2634C253.72 90.1577 254.117 90.3832 254.223 90.7637C254.329 91.1478 254.102 91.5425 253.72 91.6482C253.333 91.7539 252.936 91.5284 252.83 91.1478Z" fill="#96E1ED"/>
<path d="M217.756 82.8246C217.649 82.4405 217.876 82.0458 218.259 81.9401C218.645 81.8344 219.043 82.0599 219.149 82.4405C219.255 82.8246 219.028 83.2192 218.645 83.3249C218.259 83.4306 217.862 83.2051 217.756 82.8246Z" fill="#96E1ED"/>
<g style="mix-blend-mode:multiply">
<path d="M215.306 100.9C212.8 73.0066 189.233 40.3352 181.98 30.6592C181.781 33.1997 181.498 35.617 181.14 37.9144C190.906 51.8893 207.153 78.0032 209.212 100.9C209.748 106.844 209.304 112.577 206.231 117.88C201.378 126.246 191.679 130.784 181.132 131.503C182.061 131.563 182.997 131.598 183.933 131.605C195.717 131.683 206.968 127.113 212.325 117.88C215.398 112.577 215.841 106.841 215.306 100.9Z" fill="#E6E6E6"/>
</g>
<path d="M238.1 47.8027C237.969 47.8027 237.877 47.6724 237.923 47.549C237.983 47.3799 238.001 47.1896 237.962 46.9923C237.881 46.5906 237.558 46.2629 237.15 46.1818C236.792 46.1114 236.455 46.2241 236.222 46.4391C236.044 45.5476 235.254 44.871 234.307 44.871C234.307 44.8569 234.307 44.8464 234.307 44.8323C234.307 42.8872 232.723 41.3121 230.766 41.3121C229.132 41.3121 227.756 42.4115 227.348 43.9091C226.909 43.5426 226.342 43.3206 225.721 43.3206C224.892 43.3206 224.154 43.7188 223.694 44.3354C223.754 44.0077 223.789 43.6695 223.789 43.3206C223.789 40.2691 221.301 37.792 218.227 37.792C215.154 37.792 212.665 40.2656 212.665 43.3206C212.665 43.5074 212.676 43.6906 212.693 43.8738C212.261 43.5285 211.711 43.3206 211.112 43.3206C210.07 43.3206 209.177 43.9478 208.787 44.8393C208.45 44.6314 208.053 44.5081 207.628 44.5081C207.496 44.5081 207.369 44.5222 207.245 44.5433C207.17 42.6652 205.614 41.1641 203.707 41.1641C201.8 41.1641 200.254 42.6511 200.169 44.5222C200.091 44.5151 200.013 44.5081 199.931 44.5081C198.708 44.5081 197.719 45.4912 197.719 46.7069C197.719 46.8866 197.741 47.0592 197.783 47.2248C197.854 47.5173 197.645 47.7992 197.344 47.7992C197.053 47.7992 196.794 48.0106 196.766 48.2996C196.734 48.6308 196.993 48.9056 197.319 48.9056H238.129C238.473 48.9056 238.746 48.5956 238.675 48.2397C238.621 47.9754 238.373 47.7992 238.104 47.7992L238.1 47.8027Z" fill="#CAE6FC"/>
<path d="M175.67 81.7529C175.538 81.7529 175.446 81.6225 175.492 81.4992C175.553 81.3301 175.57 81.1398 175.531 80.9425C175.45 80.5408 175.127 80.2131 174.719 80.132C174.361 80.0616 174.025 80.1743 173.791 80.3893C173.613 79.4978 172.823 78.8212 171.876 78.8212C171.876 78.8071 171.876 78.7966 171.876 78.7825C171.876 76.8374 170.292 75.2623 168.335 75.2623C166.701 75.2623 165.325 76.3617 164.918 77.8593C164.478 77.4928 163.911 77.2708 163.29 77.2708C162.461 77.2708 161.724 77.669 161.263 78.2856C161.323 77.9579 161.358 77.6197 161.358 77.2708C161.358 74.2193 158.87 71.7422 155.796 71.7422C152.723 71.7422 150.234 74.2158 150.234 77.2708C150.234 77.4576 150.245 77.6443 150.263 77.824C149.83 77.4787 149.281 77.2708 148.682 77.2708C147.639 77.2708 146.746 77.898 146.356 78.7895C146.019 78.5816 145.622 78.4583 145.197 78.4583C145.066 78.4583 144.938 78.4724 144.814 78.4935C144.739 76.6154 143.183 75.1143 141.276 75.1143C139.369 75.1143 137.823 76.6013 137.738 78.4724C137.66 78.4653 137.582 78.4583 137.501 78.4583C136.278 78.4583 135.289 79.4414 135.289 80.6571C135.289 80.8368 135.31 81.0094 135.352 81.175C135.423 81.4675 135.214 81.7494 134.913 81.7494C134.622 81.7494 134.363 81.9608 134.335 82.2498C134.303 82.581 134.562 82.8558 134.888 82.8558H175.698C176.042 82.8558 176.315 82.5457 176.244 82.1899C176.191 81.9256 175.943 81.7494 175.673 81.7494L175.67 81.7529Z" fill="#CAE6FC"/>
<path d="M172.44 32.186C172.351 32.186 172.288 32.0979 172.32 32.0134C172.362 31.8971 172.373 31.7702 172.348 31.6328C172.295 31.358 172.071 31.1395 171.798 31.0831C171.554 31.0338 171.327 31.1113 171.167 31.2593C171.047 30.6532 170.512 30.1952 169.866 30.1952C169.866 30.1846 169.866 30.1775 169.866 30.167C169.866 28.8456 168.789 27.7744 167.459 27.7744C166.35 27.7744 165.414 28.5214 165.137 29.5398C164.84 29.2896 164.453 29.1381 164.031 29.1381C163.468 29.1381 162.968 29.4094 162.652 29.8287C162.695 29.6067 162.716 29.3742 162.716 29.1381C162.716 27.0626 161.025 25.3818 158.937 25.3818C156.849 25.3818 155.158 27.0626 155.158 29.1381C155.158 29.2649 155.165 29.3918 155.176 29.5151C154.882 29.279 154.509 29.1381 154.102 29.1381C153.393 29.1381 152.787 29.5644 152.521 30.1705C152.29 30.0296 152.021 29.945 151.734 29.945C151.645 29.945 151.56 29.9556 151.475 29.9696C151.425 28.6941 150.369 27.6757 149.071 27.6757C147.774 27.6757 146.728 28.687 146.668 29.9556C146.615 29.9485 146.562 29.945 146.505 29.945C145.675 29.945 145.002 30.6145 145.002 31.439C145.002 31.5588 145.016 31.6786 145.044 31.7914C145.094 31.9887 144.949 32.1825 144.743 32.1825C144.545 32.1825 144.371 32.327 144.35 32.5208C144.328 32.7463 144.506 32.9331 144.725 32.9331H172.451C172.685 32.9331 172.869 32.7216 172.823 32.482C172.787 32.3023 172.617 32.1825 172.437 32.1825L172.44 32.186Z" fill="#CAE6FC"/>
<path d="M134.98 55.9097C134.891 55.9097 134.828 55.8216 134.859 55.737C134.902 55.6207 134.913 55.4939 134.888 55.3565C134.835 55.0816 134.611 54.8631 134.338 54.8068C134.094 54.7574 133.867 54.835 133.707 54.9829C133.587 54.3769 133.052 53.9188 132.406 53.9188C132.406 53.9082 132.406 53.9012 132.406 53.8906C132.406 52.5692 131.329 51.498 129.999 51.498C128.89 51.498 127.954 52.2451 127.677 53.2634C127.38 53.0132 126.993 52.8617 126.571 52.8617C126.008 52.8617 125.508 53.133 125.192 53.5523C125.235 53.3303 125.256 53.0978 125.256 52.8617C125.256 50.7863 123.565 49.1055 121.477 49.1055C119.389 49.1055 117.698 50.7863 117.698 52.8617C117.698 52.9885 117.705 53.1154 117.716 53.2387C117.422 53.0026 117.049 52.8617 116.642 52.8617C115.933 52.8617 115.327 53.2881 115.061 53.8941C114.83 53.7532 114.561 53.6686 114.274 53.6686C114.185 53.6686 114.1 53.6792 114.015 53.6933C113.965 52.4177 112.909 51.3994 111.611 51.3994C110.314 51.3994 109.268 52.4107 109.208 53.6792C109.155 53.6721 109.102 53.6686 109.045 53.6686C108.215 53.6686 107.542 54.3381 107.542 55.1626C107.542 55.2825 107.556 55.4023 107.584 55.515C107.634 55.7123 107.489 55.9061 107.283 55.9061C107.084 55.9061 106.911 56.0506 106.889 56.2444C106.868 56.4699 107.045 56.6567 107.265 56.6567H134.998C135.232 56.6567 135.416 56.4453 135.37 56.2057C135.335 56.0259 135.164 55.9061 134.984 55.9061L134.98 55.9097Z" fill="#CAE6FC"/>
<path d="M190.785 116.647C181.905 134.999 187.365 135.094 186.219 151.482C185.092 150.528 183.593 149.647 182.019 149.308C179.863 148.889 177.442 149.28 176.049 151.585C174.656 153.889 185.776 154.999 188.627 154.333C189.715 139.079 182.203 135.58 192.359 119.364C191.909 118.423 191.335 117.546 190.782 116.647H190.785Z" fill="#FF576D"/>
<path d="M210.875 114.808C207.986 130.798 206.398 136.369 219.645 149.547C220.251 148.043 221.202 146.82 222.69 145.791C224.388 144.639 226.54 143.776 229.153 145.28C231.762 146.785 222.442 152.462 219.581 153.001C205.419 139.001 204.59 133.807 207.936 115.875C208.9 115.491 209.889 115.16 210.871 114.808H210.875Z" fill="#FF576D"/>
<path d="M245.3 82.5459C244.446 82.19 244.077 83.0462 241.497 83.388C240.812 83.4796 240.408 83.4761 240.167 83.7897C239.667 84.4451 240.401 85.7806 240.802 86.4325C239.799 87.9829 231.021 101.482 230.337 101.221C228.366 100.474 219.844 92.8773 219.844 92.8773L218.568 102.529C218.568 102.529 228.036 107.321 231.319 107.641C234.421 107.941 242.422 90.0055 243.305 88.004L243.333 88.0216C244.598 88.1626 245.804 87.5847 246.389 86.5734C247.286 85.0195 246.389 82.9969 245.3 82.5459Z" fill="#FF576D"/>
<path d="M228.089 102.028C228.625 107.972 228.182 113.708 225.108 119.008C219.755 128.24 208.503 132.81 196.72 132.733C184.876 132.655 173.316 128.177 167.927 118.775C164.092 112.081 164.737 105.206 165.109 101.612C166.69 86.3648 176.783 80.5226 185.117 65.4307C189.105 58.2107 193.551 47.3085 194.763 31.7832C202.016 41.4627 225.583 74.1306 228.089 102.024V102.028Z" fill="#FF576D"/>
<g style="mix-blend-mode:screen">
<path d="M175.106 104.497C174.337 109.081 172.036 112.524 169.966 112.179C167.895 111.837 166.843 107.838 167.615 103.253C168.385 98.6655 170.685 95.2264 172.756 95.5717C174.826 95.9135 175.879 99.9129 175.106 104.497Z" fill="#333333"/>
</g>
<g style="mix-blend-mode:screen">
<path d="M176.194 91.4767C175.684 92.7417 174.493 93.4605 173.536 93.0764C172.575 92.6959 172.21 91.3604 172.72 90.0919C173.231 88.8269 174.422 88.1081 175.379 88.4921C176.34 88.8727 176.705 90.2082 176.194 91.4732V91.4767Z" fill="#333333"/>
</g>
<path d="M180.842 99.4629C183.156 99.4629 185.032 97.1596 185.032 94.3184C185.032 91.4771 183.156 89.1738 180.842 89.1738C178.528 89.1738 176.652 91.4771 176.652 94.3184C176.652 97.1596 178.528 99.4629 180.842 99.4629Z" fill="#FFC4CB"/>
<path d="M184.695 94.318C184.695 96.929 182.972 99.0432 180.845 99.0432C178.718 99.0432 176.995 96.929 176.995 94.318C176.995 91.707 178.718 89.5928 180.845 89.5928C182.972 89.5928 184.695 91.707 184.695 94.318Z" fill="#2C3773"/>
<path d="M183.522 94.3188C183.522 96.1335 182.324 97.6064 180.845 97.6064C179.367 97.6064 178.169 96.1335 178.169 94.3188C178.169 92.5041 179.367 91.0312 180.845 91.0312C182.324 91.0312 183.522 92.5041 183.522 94.3188Z" fill="#182154"/>
<path d="M177.478 92.352C177.229 92.3097 176.63 91.9785 176.57 91.3125C176.747 91.5063 177.134 91.8411 177.79 91.686L177.481 92.352H177.478Z" fill="#2C3773"/>
<path d="M178.222 91.5449C177.875 91.3687 177.144 90.6041 177.368 89.5928C177.538 89.9628 177.953 90.6323 178.991 90.7027L178.226 91.5414L178.222 91.5449Z" fill="#2C3773"/>
<path d="M178.35 92.3524C178.35 91.8168 178.786 91.3799 179.328 91.3799C179.87 91.3799 180.306 91.8133 180.306 92.3524C180.306 92.8915 179.87 93.3249 179.328 93.3249C178.786 93.3249 178.35 92.8915 178.35 92.3524Z" fill="white"/>
<path d="M180.338 90.9984C180.338 90.7236 180.565 90.498 180.842 90.498C181.118 90.498 181.345 90.7236 181.345 90.9984C181.345 91.2733 181.118 91.4988 180.842 91.4988C180.565 91.4988 180.338 91.2733 180.338 90.9984Z" fill="white"/>
<path d="M179.268 84.9314C179.14 84.9314 179.013 84.8785 178.92 84.7764C178.75 84.5861 178.764 84.2936 178.956 84.1245C180.158 83.0533 181.987 82.856 183.125 83.6734C183.334 83.8214 183.38 84.1104 183.228 84.3183C183.079 84.5262 182.788 84.572 182.579 84.4205C181.795 83.8567 180.448 84.0329 179.576 84.8116C179.488 84.8891 179.378 84.9279 179.268 84.9279V84.9314Z" fill="#2C3773"/>
<path d="M212.938 99.4629C215.252 99.4629 217.128 97.1596 217.128 94.3184C217.128 91.4771 215.252 89.1738 212.938 89.1738C210.624 89.1738 208.748 91.4771 208.748 94.3184C208.748 97.1596 210.624 99.4629 212.938 99.4629Z" fill="#FFC4CB"/>
<path d="M209.088 94.318C209.088 96.929 210.811 99.0432 212.938 99.0432C215.065 99.0432 216.788 96.929 216.788 94.318C216.788 91.707 215.065 89.5928 212.938 89.5928C210.811 89.5928 209.088 91.707 209.088 94.318Z" fill="#2C3773"/>
<path d="M212.938 97.6064C214.416 97.6064 215.615 96.1345 215.615 94.3188C215.615 92.5031 214.416 91.0312 212.938 91.0312C211.46 91.0312 210.262 92.5031 210.262 94.3188C210.262 96.1345 211.46 97.6064 212.938 97.6064Z" fill="#182154"/>
<path d="M216.302 92.352C216.55 92.3097 217.15 91.9785 217.21 91.3125C217.033 91.5063 216.646 91.8411 215.99 91.686L216.299 92.352H216.302Z" fill="#2C3773"/>
<path d="M215.558 91.5449C215.905 91.3687 216.636 90.6041 216.412 89.5928C216.242 89.9628 215.827 90.6323 214.789 90.7027L215.554 91.5414L215.558 91.5449Z" fill="#2C3773"/>
<path d="M215.434 92.3524C215.434 91.8168 214.998 91.3799 214.455 91.3799C213.913 91.3799 213.477 91.8133 213.477 92.3524C213.477 92.8915 213.913 93.3249 214.455 93.3249C214.998 93.3249 215.434 92.8915 215.434 92.3524Z" fill="white"/>
<path d="M213.441 90.9984C213.441 90.7236 213.215 90.498 212.938 90.498C212.662 90.498 212.435 90.7236 212.435 90.9984C212.435 91.2733 212.662 91.4988 212.938 91.4988C213.215 91.4988 213.441 91.2733 213.441 90.9984Z" fill="white"/>
<path d="M214.512 84.9314C214.64 84.9314 214.767 84.8785 214.859 84.7764C215.03 84.5861 215.015 84.2936 214.824 84.1245C213.622 83.0533 211.789 82.856 210.655 83.6734C210.446 83.8214 210.4 84.1104 210.552 84.3183C210.701 84.5262 210.992 84.572 211.201 84.4205C211.984 83.8567 213.332 84.0329 214.204 84.8116C214.292 84.8891 214.402 84.9279 214.512 84.9279V84.9314Z" fill="#2C3773"/>
<path d="M198.585 95.9073C198.471 95.7275 198.333 95.5655 198.223 95.3858C198.131 95.2378 198.024 95.044 198.049 94.8607C198.07 94.7127 198.014 94.5647 197.854 94.5189C197.723 94.4837 197.532 94.5647 197.51 94.7127C197.454 95.1215 197.603 95.4774 197.837 95.8086C198.017 96.0623 198.273 96.3407 198.269 96.6613C198.269 96.7635 198.241 96.8763 198.152 96.9397C198.049 97.0137 197.89 97.0172 197.769 97.0207C197.51 97.0313 197.181 97.0595 196.996 96.8622C196.752 96.5979 196.358 96.9925 196.603 97.2533C196.876 97.5493 197.291 97.588 197.673 97.5775C198.102 97.5669 198.556 97.4859 198.748 97.0524C198.918 96.6648 198.801 96.2455 198.585 95.9037V95.9073Z" fill="#DB5162"/>
<path d="M200.421 106.386C200.339 107.493 199.797 108.469 198.964 109.195C197.922 110.104 196.422 110.618 194.798 110.502C193.363 110.396 192.09 109.811 191.2 108.948C190.279 108.06 189.754 106.876 189.846 105.615C190.03 103.13 192.391 104.121 195.312 104.336C198.234 104.551 200.609 103.906 200.424 106.39L200.421 106.386Z" fill="#C73243"/>
<path d="M198.964 109.194C197.922 110.103 196.422 110.617 194.798 110.501C193.363 110.395 192.09 109.81 191.2 108.947C191.916 108.176 193.132 107.33 195.032 107.351C196.656 107.372 197.996 108.257 198.964 109.197V109.194Z" fill="#FF97A3"/>
<path d="M213.743 106.069C216.231 106.069 218.249 105.293 218.249 104.335C218.249 103.378 216.231 102.602 213.743 102.602C211.254 102.602 209.237 103.378 209.237 104.335C209.237 105.293 211.254 106.069 213.743 106.069Z" fill="#FF97A3"/>
<path d="M178.364 106.069C180.852 106.069 182.869 105.293 182.869 104.335C182.869 103.378 180.852 102.602 178.364 102.602C175.875 102.602 173.858 103.378 173.858 104.335C173.858 105.293 175.875 106.069 178.364 106.069Z" fill="#FF97A3"/>
<path d="M177.109 103.448C176.797 100.678 175.865 96.1433 172.745 91.6682C170.356 88.2397 164.886 86.0903 158.625 85.2234C158.366 85.1882 158.104 85.153 157.842 85.1213C157.81 85.1177 157.778 85.1142 157.75 85.1107C157.519 85.0825 157.285 85.0578 157.051 85.0332C156.984 85.0261 156.917 85.0191 156.846 85.012C156.729 84.9979 156.608 84.9874 156.491 84.9768C156.328 84.9592 156.165 84.9451 156.002 84.9345C155.995 84.9345 155.991 84.9345 155.988 84.9345C155.811 84.9204 155.633 84.9098 155.456 84.8958C155.364 84.8887 155.275 84.8817 155.187 84.8781C154.949 84.864 154.715 84.8499 154.478 84.8358C154.229 84.8253 153.985 84.8147 153.737 84.8077C153.684 84.8077 153.634 84.8077 153.581 84.8041C153.375 84.7971 153.166 84.7936 152.957 84.79C152.879 84.79 152.801 84.79 152.723 84.79C152.609 84.79 152.496 84.79 152.383 84.79C152.237 84.79 152.088 84.79 151.943 84.79C151.681 84.79 151.418 84.79 151.159 84.8006C151.081 84.8006 151.004 84.8006 150.926 84.8041C150.72 84.8077 150.511 84.8147 150.305 84.8218C150.252 84.8218 150.195 84.8253 150.139 84.8288C149.894 84.8394 149.649 84.8499 149.405 84.8605C149.171 84.8746 148.937 84.8887 148.703 84.9028C148.607 84.9098 148.515 84.9169 148.419 84.9239C148.242 84.938 148.068 84.9486 147.891 84.9662H147.884C147.707 84.9803 147.533 84.9979 147.356 85.0156C147.171 85.0332 146.991 85.0508 146.81 85.0719C146.583 85.0966 146.356 85.1213 146.133 85.1495C146.101 85.153 146.069 85.1565 146.037 85.16C145.775 85.1917 145.516 85.227 145.254 85.2657C138.997 86.1643 133.537 88.3348 131.162 91.7775C128.064 96.2666 127.153 100.805 126.855 103.578C126.869 106.158 126.887 108.74 126.901 111.323V111.33C126.972 123.293 127.043 135.256 127.114 147.219C127.309 148.17 128.007 150.968 130.57 153.294C133.013 155.51 135.71 156 136.696 156.13L167.495 156.06C168.48 155.926 171.178 155.422 173.61 153.195C176.166 150.855 176.85 148.057 177.038 147.103C177.056 135.14 177.07 123.177 177.088 111.214V111.207C177.088 108.624 177.095 106.045 177.098 103.462L177.109 103.448Z" fill="#326AB3"/>
<path d="M177.109 103.448C176.797 100.678 175.865 96.1433 172.745 91.6682C170.356 88.2397 164.886 86.0903 158.625 85.2234C158.366 85.1882 158.104 85.153 157.842 85.1213C157.81 85.1177 157.778 85.1142 157.75 85.1107C157.519 85.0825 157.285 85.0578 157.051 85.0332C156.984 85.0261 156.917 85.0191 156.846 85.012C156.729 84.9979 156.608 84.9874 156.491 84.9768C156.328 84.9592 156.165 84.9451 156.002 84.9345C155.995 84.9345 155.991 84.9345 155.988 84.9345C155.811 84.9204 155.633 84.9098 155.456 84.8958C155.364 84.8887 155.275 84.8817 155.187 84.8781C154.949 84.864 154.715 84.8499 154.478 84.8358C154.229 84.8253 153.985 84.8147 153.737 84.8077C153.684 84.8077 153.634 84.8077 153.581 84.8041C153.375 84.7971 153.166 84.7936 152.957 84.79C152.879 84.79 152.801 84.79 152.723 84.79C152.609 84.79 152.496 84.79 152.383 84.79C152.237 84.79 152.088 84.79 151.943 84.79C151.681 84.79 151.418 84.79 151.159 84.8006C151.081 84.8006 151.004 84.8006 150.926 84.8041C150.72 84.8077 150.511 84.8147 150.305 84.8218C150.252 84.8218 150.195 84.8253 150.139 84.8288C149.894 84.8394 149.649 84.8499 149.405 84.8605C149.171 84.8746 148.937 84.8887 148.703 84.9028C148.607 84.9098 148.515 84.9169 148.419 84.9239C148.242 84.938 148.068 84.9486 147.891 84.9662H147.884C147.707 84.9803 147.533 84.9979 147.356 85.0156C147.171 85.0332 146.991 85.0508 146.81 85.0719C146.583 85.0966 146.356 85.1213 146.133 85.1495C146.101 85.153 146.069 85.1565 146.037 85.16C145.775 85.1917 145.516 85.227 145.254 85.2657C138.997 86.1643 133.537 88.3348 131.162 91.7775C128.064 96.2666 127.153 100.805 126.855 103.578C126.869 106.158 126.887 108.74 126.901 111.323C127.231 108.536 128.174 104.128 131.183 99.7656C134.431 95.058 143.46 92.7253 152.397 92.7852C161.039 92.8416 169.597 95.1355 172.759 99.6705C175.79 104.019 176.754 108.423 177.095 111.207C177.095 108.624 177.102 106.045 177.105 103.462L177.109 103.448Z" fill="#447DC7"/>
<path d="M172.756 145.478C172.6 146.179 172.032 148.237 169.916 149.956C167.902 151.595 165.669 151.965 164.85 152.064C160.731 152.074 143.467 152.113 139.348 152.12C138.532 152.025 136.295 151.665 134.275 150.034C132.151 148.325 131.573 146.271 131.414 145.569C131.347 134.879 131.276 124.191 131.208 113.501C131.456 111.464 132.215 108.127 134.778 104.829C140.071 98.0211 163.882 97.9682 169.207 104.751C171.788 108.039 172.561 111.372 172.816 113.405C172.798 124.096 172.777 134.783 172.759 145.474L172.756 145.478Z" fill="white"/>
<path d="M141.308 150.204C138.791 150.211 136.749 148.189 136.742 145.687C136.735 143.185 138.77 141.156 141.286 141.148C143.803 141.141 145.845 143.164 145.852 145.666C145.86 148.168 143.825 150.201 141.308 150.204Z" fill="#326AB3"/>
<g style="mix-blend-mode:multiply">
<path d="M136.742 145.687C136.742 144.436 137.245 143.301 138.071 142.48C138.897 141.659 140.032 141.148 141.29 141.145C142.549 141.145 143.687 141.648 144.513 142.466C144.654 142.607 144.789 142.762 144.913 142.92C144.144 142.339 143.187 141.994 142.148 141.997C140.89 141.997 139.752 142.512 138.929 143.333C138.103 144.154 137.6 145.288 137.6 146.539C137.6 147.575 137.954 148.527 138.543 149.284C137.451 148.456 136.745 147.152 136.742 145.687Z" fill="#CCCCCC"/>
</g>
<path d="M143.803 143.275L143.835 145.671L143.864 148.064L141.301 146.898L138.738 145.731L141.272 144.502L143.803 143.275Z" fill="#B7D8F2"/>
<g style="mix-blend-mode:screen">
<path d="M143.633 147.716L139.266 145.725L143.584 143.632L143.633 147.716Z" fill="#666666"/>
</g>
<path d="M162.209 150.158C159.692 150.165 157.65 148.143 157.643 145.641C157.636 143.139 159.671 141.106 162.188 141.103C164.705 141.096 166.747 143.118 166.754 145.62C166.761 148.122 164.726 150.151 162.209 150.158Z" fill="#326AB3"/>
<g style="mix-blend-mode:multiply">
<path d="M157.643 145.642C157.643 144.391 158.147 143.256 158.972 142.435C159.798 141.614 160.933 141.103 162.191 141.1C163.45 141.1 164.588 141.603 165.414 142.421C165.556 142.562 165.69 142.717 165.814 142.876C165.045 142.294 164.088 141.949 163.049 141.952C161.791 141.952 160.653 142.467 159.83 143.288C159.004 144.109 158.501 145.243 158.501 146.494C158.501 147.53 158.856 148.482 159.444 149.239C158.352 148.411 157.647 147.107 157.643 145.642Z" fill="#CCCCCC"/>
</g>
<path d="M159.681 143.237L159.66 145.633L159.642 148.029L162.202 146.853L164.758 145.672L162.22 144.456L159.681 143.237Z" fill="#B7D8F2"/>
<g style="mix-blend-mode:screen">
<path d="M159.869 147.677L164.23 145.668L159.901 143.593L159.869 147.677Z" fill="#666666"/>
</g>
<path d="M157.396 107.693L146.584 107.717C141.588 107.728 137.547 111.763 137.558 116.73L137.586 128.83C137.597 133.796 141.656 137.813 146.653 137.802L157.465 137.777C162.461 137.766 166.503 133.731 166.491 128.765L166.464 116.664C166.452 111.698 162.393 107.681 157.396 107.693Z" fill="#CCE3FF"/>
<path d="M149.646 118.852C149.369 118.837 149.015 118.852 148.628 118.915C146.498 119.271 145.378 120.825 145.147 122.467H145.193C145.672 121.836 146.501 121.315 147.614 121.311C149.391 121.308 150.642 122.576 150.645 124.525C150.649 126.35 149.405 128.041 147.32 128.045C145.176 128.048 143.768 126.396 143.761 123.802C143.758 121.84 144.463 120.289 145.448 119.303C146.282 118.489 147.391 117.978 148.657 117.823C149.057 117.759 149.398 117.745 149.646 117.745V118.848V118.852ZM149.277 124.606C149.277 123.179 148.455 122.322 147.203 122.326C146.384 122.326 145.629 122.837 145.261 123.559C145.168 123.714 145.108 123.912 145.108 124.158C145.144 125.8 145.902 127.009 147.32 127.005C148.494 127.005 149.277 126.033 149.274 124.609L149.277 124.606Z" fill="#326AB3"/>
<path d="M151.961 127.07C151.961 126.502 152.344 126.104 152.886 126.101C153.425 126.101 153.797 126.499 153.797 127.066C153.797 127.619 153.446 128.035 152.872 128.035C152.333 128.035 151.961 127.623 151.961 127.07Z" fill="#326AB3"/>
<path d="M161.539 117.876V118.764L157.197 127.855H155.793L160.125 119.028V118.996L155.218 119.007V117.886L161.543 117.872L161.539 117.876Z" fill="#326AB3"/>
<path d="M158.636 90.3461L158.625 85.2192C158.366 85.1839 158.104 85.1487 157.842 85.117C157.81 85.1135 157.778 85.1099 157.75 85.1064C157.519 85.0782 157.285 85.0536 157.051 85.0289C156.984 85.0218 156.917 85.0148 156.846 85.0077C156.729 84.9936 156.608 84.9831 156.491 84.9725C156.328 84.9549 156.165 84.9408 156.002 84.9302C155.995 84.9302 155.991 84.9302 155.988 84.9302C155.81 84.9161 155.633 84.9056 155.456 84.8915C155.364 84.8844 155.275 84.8774 155.187 84.8738C154.949 84.8598 154.715 84.8457 154.478 84.8316C154.229 84.821 153.985 84.8104 153.737 84.8034C153.683 84.8034 153.634 84.8034 153.581 84.7998C153.375 84.7928 153.166 84.7893 152.957 84.7858C152.879 84.7858 152.801 84.7858 152.723 84.7858C152.609 84.7858 152.496 84.7858 152.382 84.7822C152.237 84.7822 152.088 84.7822 151.943 84.7822C151.681 84.7822 151.418 84.7822 151.159 84.7928C151.081 84.7928 151.003 84.7928 150.925 84.7963C150.72 84.7998 150.511 84.8069 150.305 84.8139C150.252 84.8139 150.195 84.8175 150.139 84.821C149.894 84.8316 149.649 84.8421 149.405 84.8527C149.171 84.8668 148.937 84.8809 148.703 84.895C148.607 84.902 148.515 84.9091 148.419 84.9161C148.242 84.9302 148.068 84.9408 147.891 84.9584H147.884C147.707 84.9725 147.533 84.9901 147.356 85.0077C147.171 85.0254 146.991 85.043 146.81 85.0641C146.583 85.0888 146.356 85.1135 146.133 85.1416C146.101 85.1452 146.069 85.1487 146.037 85.1522C145.775 85.1839 145.516 85.2192 145.254 85.2579L145.264 90.3849C145.264 91.5653 146.232 92.5202 147.419 92.5167L156.488 92.4955C157.675 92.4955 158.636 91.5336 158.632 90.3531L158.636 90.3461Z" fill="#1B4985"/>
<path d="M155.937 61.7542L147.841 61.7725L147.911 92.5093L156.008 92.4911L155.937 61.7542Z" fill="#70BDFF"/>
<path d="M155.937 61.7542L147.841 61.7725L147.864 71.8501L155.96 71.8319L155.937 61.7542Z" fill="#9ED2FF"/>
</svg>
